<!-- Generated by readme-aura https://github.com/collectioneur/readme-aura -->
<svg width="800" height="200" viewBox="0 0 800 200" xmlns="http://www.w3.org/2000/svg"><mask id="satori_om-id"><rect x="0" y="0" width="800" height="200" fill="#fff"/></mask><rect x="0" y="0" width="800" height="200" fill="#0f0f0f"/><defs><clipPath id="satori_bc-id-0"><rect x="32" y="24" width="736" height="22"/></clipPath></defs><mask id="satori_om-id-0"><rect x="32" y="24" width="736" height="21" fill="#fff"/><path width="736" height="22" fill="none" stroke="#000" stroke-width="2" d="M768,46 A0,0 0 0 1 768,46 h-736 A0,0 0 0 1 32,46"/></mask><path width="736" height="22" clip-path="url(#satori_bc-id-0)" fill="none" stroke="#222" stroke-width="2" d="M768,46 A0,0 0 0 1 768,46 h-736 A0,0 0 0 1 32,46"/><mask id="satori_om-id-0-0"><rect x="32" y="24" width="368" height="13" fill="#fff"/></mask><g  ><path fill="#555" d="M34.4 35L32.7 35L32.7 27.0L38.0 27.0L38.0 28.4L34.4 28.4L34.4 30.6L37.6 30.6L37.6 31.9L34.4 31.9L34.4 35ZM46.0 35L40.7 35L40.7 27.0L46.0 27.0L46.0 28.4L42.3 28.4L42.3 30.3L45.8 30.3L45.8 31.6L42.3 31.6L42.3 33.6L46.0 33.6L46.0 35ZM50.2 35L48.4 35L51.1 27.0L53.3 27.0L56.1 35L54.3 35L53.6 33.1L50.8 33.1L50.2 35ZM51.2 31.9L53.2 31.9L53.0 31.1Q52.8 30.4 52.5 29.5L52.5 29.5Q52.4 28.9 52.2 28.3L52.2 28.3Q52.0 28.9 51.9 29.5L51.9 29.5Q51.7 30.4 51.4 31.1L51.4 31.1L51.2 31.9ZM60.7 28.4L58.3 28.4L58.3 27.0L64.8 27.0L64.8 28.4L62.3 28.4L62.3 35L60.7 35L60.7 28.4ZM70.7 35.1L70.7 35.1Q69.7 35.1 69.0 34.7Q68.2 34.4 67.8 33.7Q67.4 33.1 67.4 32.2L67.4 32.2L67.4 27.0L69.1 27.0L69.1 32.1Q69.1 32.5 69.3 32.9Q69.5 33.2 69.8 33.5Q70.2 33.7 70.7 33.7L70.7 33.7Q71.2 33.7 71.6 33.5Q72.0 33.2 72.2 32.9Q72.4 32.5 72.4 32.1L72.4 32.1L72.4 27.0L74.0 27.0L74.0 32.2Q74.0 33.1 73.6 33.7Q73.2 34.4 72.5 34.7Q71.7 35.1 70.7 35.1ZM78.6 35L77.0 35L77.0 27.0L80.1 27.0Q81.0 27.0 81.6 27.3Q82.3 27.6 82.6 28.2Q83.0 28.8 83.0 29.6Q83.0 30.4 82.6 31.0Q82.3 31.5 81.6 31.8L81.6 31.8Q81.6 31.9 81.5 31.9L81.5 31.9L83.2 35L81.4 35L79.9 32.1L78.6 32.1L78.6 35ZM78.6 28.4L78.6 30.8L79.8 30.8Q80.3 30.8 80.6 30.7Q80.9 30.5 81.1 30.3Q81.3 30.0 81.3 29.6L81.3 29.6Q81.3 29.2 81.1 28.9Q80.9 28.6 80.6 28.5Q80.3 28.4 79.8 28.4L79.8 28.4L78.6 28.4ZM91.1 35L85.7 35L85.7 27.0L91.0 27.0L91.0 28.4L87.3 28.4L87.3 30.3L90.8 30.3L90.8 31.6L87.3 31.6L87.3 33.6L91.1 33.6L91.1 35Z "/></g><mask id="satori_om-id-0-1"><rect x="400" y="24" width="184" height="13" fill="#fff"/></mask><g  ><path fill="#22c55e" d="M404.1 35L400.7 35L400.7 27.0L403.9 27.0Q404.8 27.0 405.4 27.3Q406.0 27.5 406.2 28.0Q406.5 28.5 406.5 29.1L406.5 29.1Q406.5 29.5 406.4 29.9Q406.2 30.2 405.8 30.5Q405.5 30.7 405.1 30.8L405.1 30.8L405.1 30.9Q405.6 30.9 406.0 31.1Q406.4 31.3 406.6 31.8Q406.9 32.2 406.9 32.8L406.9 32.8Q406.9 33.4 406.5 33.9Q406.2 34.4 405.6 34.7Q405.0 35 404.1 35L404.1 35ZM402.4 31.5L402.4 33.7L403.8 33.7Q404.5 33.7 404.8 33.4Q405.2 33.1 405.2 32.6L405.2 32.6Q405.2 32.3 405.0 32.0Q404.8 31.8 404.5 31.6Q404.2 31.5 403.8 31.5L403.8 31.5L402.4 31.5ZM402.4 28.3L402.4 30.4L403.7 30.4Q404.0 30.4 404.3 30.2Q404.6 30.1 404.7 29.9Q404.9 29.6 404.9 29.3L404.9 29.3Q404.9 28.9 404.6 28.6Q404.3 28.3 403.7 28.3L403.7 28.3L402.4 28.3ZM414.9 35L409.5 35L409.5 27.0L414.9 27.0L414.9 28.4L411.1 28.4L411.1 30.3L414.6 30.3L414.6 31.6L411.1 31.6L411.1 33.6L414.9 33.6L414.9 35ZM419.4 35L417.7 35L417.7 27.0L419.5 27.0L422.0 31.0Q422.2 31.4 422.4 31.7Q422.6 32.1 422.8 32.5L422.8 32.5Q422.9 32.8 423.0 33.0L423.0 33.0Q423.0 32.8 423.0 32.6L423.0 32.6Q423.0 32.1 423.0 31.6Q422.9 31.2 422.9 30.8L422.9 30.8L422.9 27.0L424.6 27.0L424.6 35L422.8 35L420.5 31.3Q420.2 30.9 420.0 30.5Q419.8 30.1 419.6 29.7L419.6 29.7Q419.4 29.4 419.3 29.0L419.3 29.0Q419.3 29.3 419.3 29.7L419.3 29.7Q419.3 30.2 419.3 30.6Q419.4 31.0 419.4 31.3L419.4 31.3L419.4 35ZM427.6 27.0L429.2 27.0L429.2 35L427.6 35L427.6 27.0ZM435.7 35.1L435.7 35.1Q434.6 35.1 433.7 34.6Q432.9 34.1 432.4 33.2Q431.9 32.3 431.9 31.0L431.9 31.0Q431.9 29.7 432.4 28.8Q432.9 27.9 433.8 27.4Q434.6 26.9 435.7 26.9L435.7 26.9Q436.3 26.9 436.9 27.1Q437.5 27.3 438.0 27.6Q438.4 28.0 438.7 28.5Q439.0 29.0 439.1 29.6L439.1 29.6L437.4 29.6Q437.3 29.3 437.2 29.1Q437.0 28.8 436.8 28.7Q436.6 28.5 436.3 28.4Q436.0 28.3 435.7 28.3L435.7 28.3Q435.1 28.3 434.6 28.7Q434.1 29.0 433.9 29.6Q433.6 30.1 433.6 31.0Q433.6 31.8 433.9 32.4Q434.1 33.0 434.6 33.3Q435.1 33.7 435.7 33.7L435.7 33.7Q436.3 33.7 436.7 33.4Q437.1 33.2 437.3 32.8L437.3 32.8Q437.6 32.5 437.6 32.0L437.6 32.0L435.8 32.0L435.8 30.7L439.2 30.7L439.2 31.7Q439.2 32.8 438.7 33.5Q438.3 34.3 437.5 34.7Q436.7 35.1 435.7 35.1ZM443.6 35L441.9 35L441.9 27.0L443.7 27.0L446.3 31.0Q446.5 31.4 446.7 31.7Q446.9 32.1 447.1 32.5L447.1 32.5Q447.2 32.8 447.3 33.0L447.3 33.0Q447.3 32.8 447.2 32.6L447.2 32.6Q447.2 32.1 447.2 31.6Q447.2 31.2 447.2 30.8L447.2 30.8L447.2 27.0L448.8 27.0L448.8 35L447.0 35L444.7 31.3Q444.5 30.9 444.2 30.5Q444.0 30.1 443.8 29.7L443.8 29.7Q443.7 29.4 443.5 29.0L443.5 29.0Q443.5 29.3 443.5 29.7L443.5 29.7Q443.6 30.2 443.6 30.6Q443.6 31.0 443.6 31.3L443.6 31.3L443.6 35Z "/></g><mask id="satori_om-id-0-2"><rect x="584" y="24" width="184" height="13" fill="#fff"/></mask><g  ><path fill="#ef4444" d="M586.4 35L584.7 35L584.7 27.0L587.2 27.0L588.5 30.7Q588.6 30.9 588.7 31.3Q588.8 31.7 588.9 32.2L588.9 32.2Q589.0 32.7 589.1 33.1L589.1 33.1Q589.2 32.7 589.3 32.2L589.3 32.2Q589.4 31.8 589.5 31.3Q589.6 30.9 589.7 30.7L589.7 30.7L591.0 27.0L593.5 27.0L593.5 35L591.9 35L591.9 31.2Q591.9 31.0 591.9 30.6Q591.9 30.2 591.9 29.7Q591.9 29.3 591.9 28.8L591.9 28.8Q591.9 28.6 591.9 28.4L591.9 28.4Q591.9 28.6 591.8 28.9L591.8 28.9Q591.7 29.3 591.6 29.8Q591.4 30.2 591.3 30.6Q591.2 31.0 591.1 31.2L591.1 31.2L589.8 35L588.4 35L587.1 31.2Q587.0 31.0 586.9 30.6Q586.8 30.2 586.7 29.8Q586.5 29.4 586.4 28.9L586.4 28.9Q586.3 28.7 586.3 28.5L586.3 28.5Q586.3 28.6 586.3 28.8L586.3 28.8Q586.3 29.2 586.3 29.7Q586.3 30.2 586.3 30.6Q586.4 31.0 586.4 31.2L586.4 31.2L586.4 35ZM597.8 35L596.0 35L598.7 27.0L600.9 27.0L603.7 35L601.9 35L601.3 33.1L598.4 33.1L597.8 35ZM598.8 31.9L600.8 31.9L600.6 31.1Q600.4 30.4 600.1 29.5L600.1 29.5Q600.0 28.9 599.8 28.3L599.8 28.3Q599.6 28.9 599.5 29.5L599.5 29.5Q599.3 30.4 599.1 31.1L599.1 31.1L598.8 31.9ZM611.3 35L606.2 35L606.2 27.0L607.8 27.0L607.8 33.6L611.3 33.6L611.3 35ZM613.9 27.0L615.5 27.0L615.5 35L613.9 35L613.9 27.0ZM622.0 35.1L622.0 35.1Q620.9 35.1 620.1 34.6Q619.2 34.1 618.7 33.2Q618.3 32.3 618.3 31.0L618.3 31.0Q618.3 29.7 618.8 28.8Q619.3 27.9 620.1 27.4Q620.9 26.9 622.0 26.9L622.0 26.9Q622.7 26.9 623.3 27.1Q623.8 27.3 624.3 27.6Q624.8 28.0 625.0 28.5Q625.3 29.0 625.4 29.6L625.4 29.6L623.7 29.6Q623.7 29.3 623.5 29.1Q623.4 28.8 623.1 28.7Q622.9 28.5 622.6 28.4Q622.4 28.3 622.0 28.3L622.0 28.3Q621.4 28.3 620.9 28.7Q620.5 29.0 620.2 29.6Q619.9 30.1 619.9 31.0Q619.9 31.8 620.2 32.4Q620.5 33.0 620.9 33.3Q621.4 33.7 622.0 33.7L622.0 33.7Q622.6 33.7 623.0 33.4Q623.5 33.2 623.7 32.8L623.7 32.8Q623.9 32.5 623.9 32.0L623.9 32.0L622.2 32.0L622.2 30.7L625.5 30.7L625.5 31.7Q625.5 32.8 625.0 33.5Q624.6 34.3 623.8 34.7Q623.0 35.1 622.0 35.1ZM629.9 35L628.2 35L628.2 27.0L630.1 27.0L632.6 31.0Q632.8 31.4 633.0 31.7Q633.2 32.1 633.4 32.5L633.4 32.5Q633.5 32.8 633.6 33.0L633.6 33.0Q633.6 32.8 633.6 32.6L633.6 32.6Q633.6 32.1 633.5 31.6Q633.5 31.2 633.5 30.8L633.5 30.8L633.5 27.0L635.2 27.0L635.2 35L633.4 35L631.1 31.3Q630.8 30.9 630.6 30.5Q630.4 30.1 630.1 29.7L630.1 29.7Q630.0 29.4 629.8 29.0L629.8 29.0Q629.8 29.3 629.9 29.7L629.9 29.7Q629.9 30.2 629.9 30.6Q629.9 31.0 629.9 31.3L629.9 31.3L629.9 35ZM639.5 35L637.7 35L640.4 27.0L642.6 27.0L645.4 35L643.5 35L642.9 33.1L640.1 33.1L639.5 35ZM640.5 31.9L642.5 31.9L642.3 31.1Q642.0 30.4 641.8 29.5L641.8 29.5Q641.6 28.9 641.5 28.3L641.5 28.3Q641.3 28.9 641.2 29.5L641.2 29.5Q640.9 30.4 640.7 31.1L640.7 31.1L640.5 31.9ZM649.5 35L647.8 35L647.8 27.0L649.7 27.0L652.2 31.0Q652.4 31.4 652.6 31.7Q652.8 32.1 653.0 32.5L653.0 32.5Q653.1 32.8 653.2 33.0L653.2 33.0Q653.2 32.8 653.2 32.6L653.2 32.6Q653.1 32.1 653.1 31.6Q653.1 31.2 653.1 30.8L653.1 30.8L653.1 27.0L654.8 27.0L654.8 35L652.9 35L650.6 31.3Q650.4 30.9 650.2 30.5Q650.0 30.1 649.7 29.7L649.7 29.7Q649.6 29.4 649.4 29.0L649.4 29.0Q649.4 29.3 649.5 29.7L649.5 29.7Q649.5 30.2 649.5 30.6Q649.5 31.0 649.5 31.3L649.5 31.3L649.5 35ZM659.9 28.4L657.4 28.4L657.4 27.0L663.9 27.0L663.9 28.4L661.5 28.4L661.5 35L659.9 35L659.9 28.4Z "/></g><defs><clipPath id="satori_bc-id-1"><rect x="32" y="50" width="736" height="38"/></clipPath></defs><mask id="satori_om-id-1"><rect x="32" y="50" width="736" height="37" fill="#fff"/><path width="736" height="38" fill="none" stroke="#000" stroke-width="2" d="M768,88 A0,0 0 0 1 768,88 h-736 A0,0 0 0 1 32,88"/></mask><path width="736" height="38" clip-path="url(#satori_bc-id-1)" fill="none" stroke="#1a1a1a" stroke-width="2" d="M768,88 A0,0 0 0 1 768,88 h-736 A0,0 0 0 1 32,88"/><mask id="satori_om-id-1-0"><rect x="32" y="61" width="368" height="16" fill="#fff"/></mask><g  ><path fill="#bbb" d="M37.0 74.1L37.0 74.1Q35.8 74.1 34.8 73.5Q33.9 73.0 33.3 71.9Q32.8 70.8 32.8 69.3L32.8 69.3Q32.8 67.8 33.3 66.7Q33.9 65.6 34.8 65.0Q35.8 64.4 37.0 64.4L37.0 64.4Q37.7 64.4 38.3 64.6Q39.0 64.8 39.5 65.2Q40.0 65.6 40.3 66.2Q40.7 66.8 40.8 67.5L40.8 67.5L39.6 67.5Q39.5 67.0 39.2 66.7Q39.0 66.3 38.6 66.0Q38.3 65.8 37.9 65.7Q37.4 65.5 37.0 65.5L37.0 65.5Q36.1 65.5 35.4 66.0Q34.7 66.4 34.3 67.2Q33.9 68.1 33.9 69.3L33.9 69.3Q33.9 70.5 34.4 71.3Q34.8 72.2 35.4 72.6Q36.1 73.0 37.0 73.0L37.0 73.0Q37.4 73.0 37.9 72.9Q38.3 72.7 38.6 72.5Q39.0 72.2 39.2 71.9Q39.5 71.5 39.6 71.0L39.6 71.0L40.8 71.0Q40.7 71.7 40.3 72.3Q40.0 72.9 39.5 73.3Q39.0 73.7 38.3 73.9Q37.7 74.1 37.0 74.1ZM45.4 74.2L45.4 74.2Q44.4 74.2 43.7 73.7Q43.0 73.2 42.6 72.4Q42.2 71.6 42.2 70.5L42.2 70.5Q42.2 69.4 42.6 68.6Q43.0 67.7 43.7 67.3Q44.4 66.8 45.4 66.8L45.4 66.8Q46.4 66.8 47.1 67.3Q47.8 67.7 48.2 68.6Q48.6 69.4 48.6 70.5L48.6 70.5Q48.6 71.6 48.2 72.4Q47.8 73.2 47.1 73.7Q46.4 74.2 45.4 74.2ZM45.4 73.1L45.4 73.1Q46.1 73.1 46.6 72.8Q47.0 72.4 47.3 71.8Q47.5 71.2 47.5 70.5L47.5 70.5Q47.5 69.8 47.3 69.2Q47.0 68.6 46.6 68.2Q46.1 67.8 45.4 67.8L45.4 67.8Q44.7 67.8 44.2 68.2Q43.8 68.6 43.5 69.2Q43.3 69.8 43.3 70.5L43.3 70.5Q43.3 71.2 43.5 71.8Q43.8 72.4 44.2 72.8Q44.7 73.1 45.4 73.1ZM51.4 69.7L51.4 69.7L51.4 74L50.3 74L50.3 66.9L51.4 66.9L51.4 68.2Q51.7 67.6 52.2 67.2L52.2 67.2Q52.8 66.8 53.6 66.8L53.6 66.8Q54.3 66.8 54.8 67.1Q55.4 67.4 55.7 68.0Q56.0 68.6 56.0 69.5L56.0 69.5L56.0 74L54.8 74L54.8 69.6Q54.8 68.8 54.4 68.3Q54.0 67.8 53.2 67.8L53.2 67.8Q52.7 67.8 52.3 68.1Q51.9 68.3 51.7 68.7Q51.4 69.1 51.4 69.7ZM60.9 74.2L60.9 74.2Q59.9 74.2 59.2 73.7Q58.4 73.2 58.0 72.4Q57.6 71.6 57.6 70.5L57.6 70.5Q57.6 69.4 58.0 68.6Q58.4 67.7 59.2 67.3Q59.9 66.8 60.9 66.8L60.9 66.8Q61.4 66.8 61.8 66.9Q62.3 67.1 62.7 67.3Q63.0 67.6 63.3 67.9Q63.6 68.3 63.7 68.8L63.7 68.8L62.6 69.1Q62.6 68.8 62.4 68.6Q62.2 68.4 62.0 68.2Q61.8 68.0 61.5 67.9Q61.2 67.8 60.9 67.8L60.9 67.8Q60.2 67.8 59.7 68.2Q59.2 68.6 59.0 69.2Q58.8 69.8 58.8 70.5L58.8 70.5Q58.8 71.2 59.0 71.8Q59.2 72.4 59.7 72.8Q60.2 73.1 60.9 73.1L60.9 73.1Q61.2 73.1 61.5 73.0Q61.8 72.9 62.0 72.8Q62.3 72.6 62.4 72.3Q62.6 72.1 62.7 71.8L62.7 71.8L63.8 72.1Q63.6 72.6 63.3 73.0Q63.1 73.4 62.7 73.6Q62.3 73.9 61.8 74.0Q61.4 74.2 60.9 74.2ZM67.4 74.2L67.4 74.2Q66.7 74.2 66.2 73.9Q65.6 73.7 65.3 73.2Q65.0 72.7 65.0 72.0L65.0 72.0Q65.0 71.4 65.2 71.0Q65.5 70.6 65.9 70.4Q66.3 70.2 66.7 70.1Q67.2 70.0 67.7 69.9L67.7 69.9Q68.4 69.8 68.8 69.8Q69.2 69.7 69.4 69.6Q69.6 69.5 69.6 69.2L69.6 69.2L69.6 69.2Q69.6 68.8 69.4 68.5Q69.2 68.1 68.9 68.0Q68.6 67.8 68.1 67.8L68.1 67.8Q67.6 67.8 67.2 68.0Q66.8 68.1 66.6 68.4Q66.4 68.6 66.3 68.9L66.3 68.9L65.2 68.5Q65.4 67.8 65.9 67.5Q66.4 67.1 66.9 67.0Q67.5 66.8 68.0 66.8L68.0 66.8Q68.4 66.8 68.8 66.9Q69.3 67.0 69.7 67.2Q70.1 67.5 70.4 68.0Q70.7 68.5 70.7 69.3L70.7 69.3L70.7 74L69.6 74L69.6 73.0L69.5 73.0Q69.4 73.3 69.1 73.5Q68.8 73.8 68.4 74.0Q68.0 74.2 67.4 74.2ZM67.6 73.2L67.6 73.2Q68.2 73.2 68.7 72.9Q69.1 72.7 69.3 72.3Q69.6 71.9 69.6 71.4L69.6 71.4L69.6 70.5Q69.5 70.5 69.2 70.6Q69.0 70.7 68.7 70.7Q68.4 70.8 68.1 70.8Q67.8 70.8 67.7 70.9L67.7 70.9Q67.3 70.9 66.9 71.0Q66.6 71.2 66.3 71.4Q66.1 71.6 66.1 72.0L66.1 72.0Q66.1 72.4 66.3 72.7Q66.5 72.9 66.8 73.0Q67.2 73.2 67.6 73.2ZM76.0 74L74.8 74L72.0 66.9L73.3 66.9L74.8 71.1Q75.0 71.8 75.2 72.4L75.2 72.4Q75.3 72.7 75.4 73.0L75.4 73.0Q75.4 72.7 75.5 72.4L75.5 72.4Q75.7 71.8 75.9 71.1L75.9 71.1L77.4 66.9L78.7 66.9L76.0 74ZM83.0 74.2L83.0 74.2Q82.0 74.2 81.2 73.7Q80.5 73.2 80.1 72.4Q79.7 71.6 79.7 70.5Q79.7 69.4 80.1 68.6Q80.5 67.8 81.2 67.3Q81.9 66.8 82.9 66.8L82.9 66.8Q83.4 66.8 84.0 67.0Q84.5 67.2 85.0 67.6Q85.4 68.0 85.7 68.7Q85.9 69.4 85.9 70.4L85.9 70.4L85.9 70.8L80.8 70.8Q80.8 71.5 81.1 72.0L81.1 72.0Q81.4 72.6 81.9 72.9Q82.3 73.1 83.0 73.1L83.0 73.1Q83.4 73.1 83.8 73.0Q84.1 72.9 84.3 72.7Q84.6 72.4 84.7 72.0L84.7 72.0L85.8 72.3Q85.7 72.9 85.3 73.3Q84.9 73.7 84.3 73.9Q83.7 74.2 83.0 74.2ZM80.8 69.9L80.8 69.9L84.8 69.9Q84.7 69.4 84.6 69.0L84.6 69.0Q84.4 68.4 83.9 68.1Q83.5 67.8 82.9 67.8Q82.2 67.8 81.8 68.1Q81.3 68.5 81.1 69.0L81.1 69.0Q80.9 69.4 80.8 69.9Z M92.4 76.7L91.2 76.7L91.2 66.9L92.3 66.9L92.3 68.0L92.5 68.0Q92.6 67.8 92.8 67.6Q93.0 67.3 93.4 67.0Q93.8 66.8 94.5 66.8L94.5 66.8Q95.4 66.8 96.1 67.3Q96.8 67.7 97.2 68.5Q97.5 69.3 97.5 70.5L97.5 70.5Q97.5 71.6 97.2 72.4Q96.8 73.3 96.1 73.7Q95.4 74.2 94.5 74.2L94.5 74.2Q93.9 74.2 93.5 73.9Q93.0 73.7 92.8 73.4Q92.6 73.1 92.5 72.9L92.5 72.9L92.4 72.9L92.4 76.7ZM94.4 73.1L94.4 73.1Q95.0 73.1 95.5 72.8Q95.9 72.4 96.2 71.8Q96.4 71.2 96.4 70.5L96.4 70.5Q96.4 69.7 96.2 69.1Q95.9 68.5 95.5 68.2Q95.0 67.8 94.4 67.8L94.4 67.8Q93.7 67.8 93.3 68.2Q92.8 68.5 92.6 69.1Q92.4 69.7 92.4 70.5L92.4 70.5Q92.4 71.2 92.6 71.8Q92.8 72.5 93.3 72.8Q93.7 73.1 94.4 73.1ZM102.1 74.2L102.1 74.2Q101.1 74.2 100.4 73.7Q99.7 73.2 99.3 72.4Q98.9 71.6 98.9 70.5L98.9 70.5Q98.9 69.4 99.3 68.6Q99.7 67.7 100.4 67.3Q101.1 66.8 102.1 66.8L102.1 66.8Q103.1 66.8 103.8 67.3Q104.5 67.7 104.9 68.6Q105.3 69.4 105.3 70.5L105.3 70.5Q105.3 71.6 104.9 72.4Q104.5 73.2 103.8 73.7Q103.1 74.2 102.1 74.2ZM102.1 73.1L102.1 73.1Q102.8 73.1 103.3 72.8Q103.7 72.4 104.0 71.8Q104.2 71.2 104.2 70.5L104.2 70.5Q104.2 69.8 104.0 69.2Q103.7 68.6 103.3 68.2Q102.8 67.8 102.1 67.8L102.1 67.8Q101.4 67.8 100.9 68.2Q100.5 68.6 100.2 69.2Q100.0 69.8 100.0 70.5L100.0 70.5Q100.0 71.2 100.2 71.8Q100.5 72.4 100.9 72.8Q101.4 73.1 102.1 73.1ZM108.1 74L107.0 74L107.0 66.9L108.1 66.9L108.1 74ZM107.6 65.7L107.6 65.7Q107.3 65.7 107.0 65.5Q106.8 65.3 106.8 65.0L106.8 65.0Q106.8 64.7 107.0 64.4Q107.3 64.2 107.6 64.2L107.6 64.2Q107.9 64.2 108.1 64.4Q108.4 64.7 108.4 65.0L108.4 65.0Q108.4 65.3 108.1 65.5Q107.9 65.7 107.6 65.7ZM111.3 69.7L111.3 69.7L111.3 74L110.1 74L110.1 66.9L111.2 66.9L111.3 68.2Q111.5 67.6 112.0 67.2L112.0 67.2Q112.6 66.8 113.4 66.8L113.4 66.8Q114.1 66.8 114.7 67.1Q115.2 67.4 115.5 68.0Q115.8 68.6 115.8 69.5L115.8 69.5L115.8 74L114.7 74L114.7 69.6Q114.7 68.8 114.2 68.3Q113.8 67.8 113.1 67.8L113.1 67.8Q112.6 67.8 112.2 68.1Q111.8 68.3 111.5 68.7Q111.3 69.1 111.3 69.7ZM119.2 66.9L120.6 66.9L120.6 67.9L119.2 67.9L119.2 72.2Q119.2 72.6 119.4 72.9Q119.5 73.1 120.0 73.1L120.0 73.1Q120.1 73.1 120.3 73.0Q120.4 73.0 120.6 73.0L120.6 73.0L120.8 74.0Q120.6 74.0 120.4 74.1Q120.2 74.1 120.0 74.1L120.0 74.1Q119.0 74.1 118.5 73.6Q118.0 73.1 118.0 72.2L118.0 72.2L118.0 67.9L117.0 67.9L117.0 66.9L118.0 66.9L118.0 65.2L119.2 65.2L119.2 66.9ZM124.5 74.2L124.5 74.2Q123.8 74.2 123.2 73.9Q122.6 73.7 122.3 73.3Q121.9 72.9 121.8 72.3L121.8 72.3L122.8 72.0Q123 72.6 123.4 72.9Q123.8 73.1 124.5 73.1L124.5 73.1Q125.2 73.1 125.7 72.8Q126.1 72.5 126.1 72.1L126.1 72.1Q126.1 71.7 125.8 71.5Q125.6 71.2 125.1 71.1L125.1 71.1L123.9 70.8Q122.9 70.6 122.4 70.1Q122.0 69.6 122.0 68.9L122.0 68.9Q122.0 68.3 122.3 67.8Q122.7 67.3 123.3 67.1Q123.9 66.8 124.6 66.8L124.6 66.8Q125.3 66.8 125.8 67.0Q126.4 67.3 126.7 67.6Q127.0 68.0 127.2 68.5L127.2 68.5L126.1 68.8Q126.0 68.4 125.6 68.1Q125.3 67.8 124.6 67.8L124.6 67.8Q124.0 67.8 123.6 68.1Q123.1 68.4 123.1 68.8L123.1 68.8Q123.1 69.2 123.4 69.4Q123.7 69.7 124.3 69.8L124.3 69.8L125.4 70.1Q126.4 70.3 126.8 70.8Q127.3 71.3 127.3 72.0L127.3 72.0Q127.3 72.6 126.9 73.1Q126.6 73.6 126.0 73.9Q125.3 74.2 124.5 74.2Z M135.3 74L134.2 74L132.0 66.9L133.3 66.9L134.1 70.0Q134.3 70.6 134.5 71.4L134.5 71.4Q134.6 72.0 134.8 72.8L134.8 72.8Q134.9 72.1 135.1 71.5L135.1 71.5Q135.3 70.7 135.5 70.0L135.5 70.0L136.3 66.9L137.5 66.9L138.4 70.0Q138.6 70.7 138.7 71.5L138.7 71.5Q138.9 72.1 139.0 72.8L139.0 72.8Q139.2 72.1 139.3 71.5L139.3 71.5Q139.5 70.7 139.7 70.0L139.7 70.0L140.6 66.9L141.8 66.9L139.6 74L138.5 74L137.6 70.8Q137.4 70.3 137.3 69.8Q137.2 69.3 137.0 68.8L137.0 68.8Q137.0 68.5 136.9 68.2L136.9 68.2Q136.9 68.5 136.8 68.7L136.8 68.7Q136.7 69.3 136.5 69.8Q136.4 70.3 136.2 70.8L136.2 70.8L135.3 74ZM146.1 74.2L146.1 74.2Q145.2 74.2 144.4 73.7Q143.7 73.2 143.3 72.4Q142.9 71.6 142.9 70.5L142.9 70.5Q142.9 69.4 143.3 68.6Q143.7 67.7 144.4 67.3Q145.2 66.8 146.1 66.8L146.1 66.8Q147.1 66.8 147.8 67.3Q148.6 67.7 149.0 68.6Q149.4 69.4 149.4 70.5L149.4 70.5Q149.4 71.6 149.0 72.4Q148.6 73.2 147.8 73.7Q147.1 74.2 146.1 74.2ZM146.1 73.1L146.1 73.1Q146.8 73.1 147.3 72.8Q147.8 72.4 148.0 71.8Q148.2 71.2 148.2 70.5L148.2 70.5Q148.2 69.8 148.0 69.2Q147.8 68.6 147.3 68.2Q146.8 67.8 146.1 67.8L146.1 67.8Q145.4 67.8 145.0 68.2Q144.5 68.6 144.3 69.2Q144.1 69.8 144.1 70.5L144.1 70.5Q144.1 71.2 144.3 71.8Q144.5 72.4 145.0 72.8Q145.4 73.1 146.1 73.1ZM152.2 74L151.0 74L151.0 66.9L152.1 66.9L152.1 68.0L152.2 68.0Q152.4 67.5 152.9 67.1Q153.4 66.8 154.1 66.8L154.1 66.8Q154.2 66.8 154.4 66.8Q154.5 66.8 154.6 66.8L154.6 66.8L154.6 68.0Q154.6 68.0 154.4 67.9Q154.2 67.9 153.9 67.9L153.9 67.9Q153.4 67.9 153.0 68.1Q152.6 68.3 152.4 68.7Q152.2 69.1 152.2 69.6L152.2 69.6L152.2 74ZM158.3 74.2L158.3 74.2Q157.6 74.2 157.0 73.9Q156.5 73.7 156.1 73.3Q155.7 72.9 155.6 72.3L155.6 72.3L156.7 72.0Q156.8 72.6 157.3 72.9Q157.7 73.1 158.3 73.1L158.3 73.1Q159.1 73.1 159.5 72.8Q159.9 72.5 159.9 72.1L159.9 72.1Q159.9 71.7 159.7 71.5Q159.4 71.2 158.9 71.1L158.9 71.1L157.7 70.8Q156.8 70.6 156.3 70.1Q155.8 69.6 155.8 68.9L155.8 68.9Q155.8 68.3 156.2 67.8Q156.5 67.3 157.1 67.1Q157.7 66.8 158.5 66.8L158.5 66.8Q159.2 66.8 159.7 67.0Q160.2 67.3 160.5 67.6Q160.8 68.0 161.0 68.5L161.0 68.5L160.0 68.8Q159.8 68.4 159.5 68.1Q159.1 67.8 158.5 67.8L158.5 67.8Q157.8 67.8 157.4 68.1Q157.0 68.4 157.0 68.8L157.0 68.8Q157.0 69.2 157.3 69.4Q157.6 69.7 158.2 69.8L158.2 69.8L159.2 70.1Q160.2 70.3 160.7 70.8Q161.1 71.3 161.1 72.0L161.1 72.0Q161.1 72.6 160.8 73.1Q160.4 73.6 159.8 73.9Q159.2 74.2 158.3 74.2ZM164.1 66.9L165.6 66.9L165.6 67.9L164.1 67.9L164.1 72.2Q164.1 72.6 164.3 72.9Q164.5 73.1 165.0 73.1L165.0 73.1Q165.1 73.1 165.2 73.0Q165.4 73.0 165.5 73.0L165.5 73.0L165.8 74.0Q165.6 74.0 165.4 74.1Q165.1 74.1 164.9 74.1L164.9 74.1Q164.0 74.1 163.5 73.6Q163.0 73.1 163.0 72.2L163.0 72.2L163.0 67.9L161.9 67.9L161.9 66.9L163.0 66.9L163.0 65.2L164.1 65.2L164.1 66.9Z "/></g><mask id="satori_om-id-1-1"><rect x="400" y="60" width="184" height="17" fill="#fff"/></mask><g  ><path fill="#22c55e" d="M404.7 74.1L404.7 74.1Q403.4 74.1 402.5 73.5Q401.6 72.9 401.1 71.7Q400.6 70.6 400.6 68.9L400.6 68.9Q400.6 67.3 401.1 66.1Q401.6 64.9 402.5 64.3Q403.4 63.7 404.7 63.7L404.7 63.7Q406.0 63.7 406.9 64.3Q407.8 64.9 408.3 66.1Q408.8 67.3 408.8 68.9L408.8 68.9Q408.8 70.6 408.3 71.7Q407.8 72.9 406.9 73.5Q406.0 74.1 404.7 74.1ZM404.7 72.4L404.7 72.4Q405.3 72.4 405.8 72.0Q406.2 71.6 406.4 70.8Q406.7 70.0 406.7 68.9L406.7 68.9Q406.7 67.8 406.4 67.0Q406.2 66.2 405.8 65.8Q405.3 65.4 404.7 65.4L404.7 65.4Q404.1 65.4 403.7 65.8Q403.2 66.2 403.0 67.0Q402.8 67.8 402.8 68.9L402.8 68.9Q402.8 70.0 403.0 70.8Q403.2 71.6 403.7 72.0Q404.1 72.4 404.7 72.4ZM411.4 74.1L411.4 74.1Q410.9 74.1 410.5 73.8Q410.2 73.5 410.2 73.0L410.2 73.0Q410.2 72.5 410.5 72.1Q410.9 71.8 411.4 71.8L411.4 71.8Q411.9 71.8 412.2 72.1Q412.6 72.5 412.6 73.0L412.6 73.0Q412.6 73.5 412.2 73.8Q411.9 74.1 411.4 74.1ZM418.0 74.1L418.0 74.1Q416.7 74.1 415.8 73.5Q414.9 72.9 414.4 71.7Q413.9 70.6 413.9 68.9L413.9 68.9Q413.9 67.3 414.4 66.1Q414.9 64.9 415.8 64.3Q416.7 63.7 418.0 63.7L418.0 63.7Q419.3 63.7 420.2 64.3Q421.1 64.9 421.6 66.1Q422.1 67.3 422.1 68.9L422.1 68.9Q422.1 70.6 421.6 71.7Q421.1 72.9 420.2 73.5Q419.3 74.1 418.0 74.1ZM418.0 72.4L418.0 72.4Q418.6 72.4 419.1 72.0Q419.5 71.6 419.7 70.8Q420.0 70.0 420.0 68.9L420.0 68.9Q420.0 67.8 419.7 67.0Q419.5 66.2 419.1 65.8Q418.6 65.4 418.0 65.4L418.0 65.4Q417.4 65.4 417.0 65.8Q416.5 66.2 416.3 67.0Q416.1 67.8 416.1 68.9L416.1 68.9Q416.1 70.0 416.3 70.8Q416.5 71.6 417.0 72.0Q417.4 72.4 418.0 72.4ZM427.0 74.1L427.0 74.1Q426.0 74.1 425.2 73.8Q424.3 73.4 423.9 72.7Q423.4 72.0 423.4 71.1L423.4 71.1L425.4 71.1Q425.4 71.5 425.7 71.8Q425.9 72.1 426.2 72.3Q426.6 72.5 427.0 72.5L427.0 72.5Q427.5 72.5 427.9 72.3Q428.3 72.0 428.6 71.6Q428.8 71.2 428.8 70.7L428.8 70.7Q428.8 70.1 428.6 69.7Q428.3 69.3 427.9 69.1Q427.5 68.8 427.0 68.8L427.0 68.8Q426.5 68.8 426.1 69.0Q425.7 69.2 425.5 69.5L425.5 69.5L423.6 69.2L424.1 63.8L430.2 63.8L430.2 65.5L425.8 65.5L425.5 68.1L425.6 68.1Q425.9 67.7 426.4 67.5Q426.9 67.3 427.6 67.3L427.6 67.3Q428.3 67.3 428.9 67.5Q429.5 67.8 429.9 68.2Q430.3 68.7 430.6 69.3Q430.8 69.9 430.8 70.6L430.8 70.6Q430.8 71.6 430.3 72.4Q429.9 73.2 429.0 73.7Q428.2 74.1 427.0 74.1ZM436.0 74.1L436.0 74.1Q434.8 74.1 434.0 73.8Q433.1 73.4 432.6 72.7Q432.1 72.0 432.1 71.1L432.1 71.1L434.2 71.1Q434.2 71.5 434.5 71.8Q434.7 72.1 435.1 72.3Q435.5 72.4 436.0 72.4L436.0 72.4Q436.5 72.4 436.8 72.2Q437.2 72.1 437.4 71.7Q437.7 71.4 437.7 71.0L437.7 71.0Q437.7 70.6 437.4 70.3Q437.2 69.9 436.8 69.8Q436.4 69.6 435.8 69.6L435.8 69.6L434.8 69.6L434.8 68.0L435.8 68.0Q436.3 68.0 436.6 67.9Q437.0 67.7 437.2 67.4Q437.4 67.1 437.4 66.7L437.4 66.7Q437.4 66.3 437.3 66.0Q437.1 65.7 436.7 65.5Q436.4 65.3 436.0 65.3L436.0 65.3Q435.5 65.3 435.2 65.5Q434.8 65.7 434.6 66.0Q434.3 66.2 434.3 66.6L434.3 66.6L432.3 66.6Q432.3 65.8 432.8 65.1Q433.3 64.4 434.1 64.1Q435.0 63.7 436.0 63.7L436.0 63.7Q437.0 63.7 437.8 64.1Q438.6 64.4 439.0 65.1Q439.5 65.7 439.5 66.5L439.5 66.5Q439.5 67.4 438.9 68.0Q438.4 68.5 437.6 68.7L437.6 68.7L437.6 68.8Q438.3 68.9 438.8 69.2Q439.3 69.5 439.6 70.0Q439.8 70.5 439.8 71.1L439.8 71.1Q439.8 72.0 439.3 72.7Q438.8 73.4 438.0 73.8Q437.1 74.1 436.0 74.1Z "/></g><mask id="satori_om-id-1-2"><rect x="584" y="60" width="184" height="17" fill="#fff"/></mask><g  ><path fill="#ef4444" d="M588.7 74.1L588.7 74.1Q587.4 74.1 586.5 73.5Q585.6 72.9 585.1 71.7Q584.6 70.6 584.6 68.9L584.6 68.9Q584.6 67.3 585.1 66.1Q585.6 64.9 586.5 64.3Q587.4 63.7 588.7 63.7L588.7 63.7Q590.0 63.7 590.9 64.3Q591.8 64.9 592.3 66.1Q592.8 67.3 592.8 68.9L592.8 68.9Q592.8 70.6 592.3 71.7Q591.8 72.9 590.9 73.5Q590.0 74.1 588.7 74.1ZM588.7 72.4L588.7 72.4Q589.3 72.4 589.8 72.0Q590.2 71.6 590.4 70.8Q590.7 70.0 590.7 68.9L590.7 68.9Q590.7 67.8 590.4 67.0Q590.2 66.2 589.8 65.8Q589.3 65.4 588.7 65.4L588.7 65.4Q588.1 65.4 587.7 65.8Q587.2 66.2 587.0 67.0Q586.8 67.8 586.8 68.9L586.8 68.9Q586.8 70.0 587.0 70.8Q587.2 71.6 587.7 72.0Q588.1 72.4 588.7 72.4ZM595.4 74.1L595.4 74.1Q594.9 74.1 594.5 73.8Q594.2 73.5 594.2 73.0L594.2 73.0Q594.2 72.5 594.5 72.1Q594.9 71.8 595.4 71.8L595.4 71.8Q595.9 71.8 596.2 72.1Q596.6 72.5 596.6 73.0L596.6 73.0Q596.6 73.5 596.2 73.8Q595.9 74.1 595.4 74.1ZM605.8 74L598.6 74L598.6 72.5L602.2 69.1Q602.6 68.7 602.9 68.3Q603.3 67.9 603.4 67.6Q603.6 67.2 603.6 66.8L603.6 66.8Q603.6 66.4 603.4 66.0Q603.2 65.7 602.8 65.5Q602.5 65.3 602.0 65.3L602.0 65.3Q601.5 65.3 601.2 65.5Q600.8 65.7 600.6 66.1Q600.5 66.4 600.5 66.9L600.5 66.9L598.5 66.9Q598.5 65.9 598.9 65.2Q599.4 64.5 600.2 64.1Q601.0 63.7 602.0 63.7L602.0 63.7Q603.1 63.7 603.9 64.1Q604.7 64.5 605.2 65.1Q605.6 65.8 605.6 66.7L605.6 66.7Q605.6 67.3 605.4 67.8Q605.2 68.4 604.6 69.0Q604.0 69.7 603.0 70.7L603.0 70.7L601.5 72.2L601.5 72.3L605.8 72.3L605.8 74ZM611.2 74.1L611.2 74.1Q610.4 74.1 609.7 73.9Q609.0 73.6 608.4 73.0Q607.8 72.5 607.5 71.5Q607.2 70.5 607.2 69.1L607.2 69.1Q607.2 67.9 607.5 66.8Q607.7 65.8 608.3 65.1Q608.8 64.4 609.6 64.0Q610.3 63.7 611.3 63.7L611.3 63.7Q612.3 63.7 613.1 64.1Q613.8 64.5 614.3 65.1Q614.8 65.8 614.9 66.6L614.9 66.6L612.8 66.6Q612.7 66.1 612.3 65.8Q611.9 65.5 611.3 65.5L611.3 65.5Q610.6 65.5 610.1 65.9Q609.7 66.3 609.5 67.0Q609.2 67.7 609.2 68.7L609.2 68.7L609.3 68.7Q609.5 68.3 609.9 68.0Q610.3 67.6 610.8 67.5Q611.3 67.3 611.8 67.3L611.8 67.3Q612.7 67.3 613.5 67.7Q614.2 68.1 614.6 68.9Q615.0 69.6 615.0 70.6L615.0 70.6Q615.0 71.6 614.5 72.4Q614.0 73.2 613.2 73.7Q612.3 74.1 611.2 74.1ZM611.2 72.5L611.2 72.5Q611.7 72.5 612.1 72.2Q612.5 72.0 612.7 71.6Q613.0 71.2 613.0 70.7L613.0 70.7Q613.0 70.1 612.7 69.7Q612.5 69.3 612.1 69.1Q611.7 68.8 611.2 68.8L611.2 68.8Q610.8 68.8 610.5 69.0Q610.2 69.1 609.9 69.4Q609.7 69.6 609.6 70.0Q609.4 70.3 609.4 70.7L609.4 70.7Q609.4 71.2 609.7 71.6Q609.9 72.0 610.3 72.2Q610.7 72.5 611.2 72.5ZM618.5 63.8L620.7 63.8L620.7 74L618.7 74L618.7 65.7L618.6 65.7L616.3 67.3L616.3 65.4L618.5 63.8Z "/></g><defs><clipPath id="satori_bc-id-2"><rect x="32" y="88" width="736" height="38"/></clipPath></defs><mask id="satori_om-id-2"><rect x="32" y="88" width="736" height="37" fill="#fff"/><path width="736" height="38" fill="none" stroke="#000" stroke-width="2" d="M768,126 A0,0 0 0 1 768,126 h-736 A0,0 0 0 1 32,126"/></mask><path width="736" height="38" clip-path="url(#satori_bc-id-2)" fill="none" stroke="#1a1a1a" stroke-width="2" d="M768,126 A0,0 0 0 1 768,126 h-736 A0,0 0 0 1 32,126"/><mask id="satori_om-id-2-0"><rect x="32" y="99" width="368" height="16" fill="#fff"/></mask><g  ><path fill="#bbb" d="M34.3 112L33.1 112L33.1 102.5L36.4 102.5Q37.5 102.5 38.2 102.9Q38.9 103.3 39.3 104.0Q39.6 104.7 39.6 105.6Q39.6 106.4 39.3 107.1Q38.9 107.8 38.2 108.2Q37.5 108.6 36.4 108.6L36.4 108.6L34.3 108.6L34.3 112ZM34.3 103.6L34.3 107.5L36.3 107.5Q37.1 107.5 37.5 107.3Q38.0 107.0 38.2 106.6Q38.4 106.1 38.4 105.6Q38.4 105.0 38.2 104.6Q38.0 104.1 37.5 103.9Q37.1 103.6 36.3 103.6L36.3 103.6L34.3 103.6ZM44.3 112.2L44.3 112.2Q43.3 112.2 42.5 111.7Q41.8 111.2 41.4 110.4Q41.0 109.6 41.0 108.5Q41.0 107.4 41.4 106.6Q41.8 105.8 42.5 105.3Q43.2 104.8 44.2 104.8L44.2 104.8Q44.7 104.8 45.3 105.0Q45.8 105.2 46.3 105.6Q46.7 106.0 47.0 106.7Q47.2 107.4 47.2 108.4L47.2 108.4L47.2 108.8L42.1 108.8Q42.1 109.5 42.4 110.0L42.4 110.0Q42.7 110.6 43.2 110.9Q43.6 111.1 44.3 111.1L44.3 111.1Q44.7 111.1 45.1 111.0Q45.4 110.9 45.6 110.7Q45.9 110.4 46.0 110.0L46.0 110.0L47.1 110.3Q47.0 110.9 46.6 111.3Q46.2 111.7 45.6 111.9Q45.0 112.2 44.3 112.2ZM42.1 107.9L42.1 107.9L46.1 107.9Q46.0 107.4 45.9 107.0L45.9 107.0Q45.7 106.4 45.2 106.1Q44.8 105.8 44.2 105.8Q43.5 105.8 43.1 106.1Q42.6 106.5 42.4 107.0L42.4 107.0Q42.2 107.4 42.1 107.9ZM50.0 112L48.9 112L48.9 104.9L50.0 104.9L50.0 106.0L50.1 106.0Q50.3 105.5 50.8 105.1Q51.3 104.8 51.9 104.8L51.9 104.8Q52.0 104.8 52.2 104.8Q52.4 104.8 52.5 104.8L52.5 104.8L52.5 106.0Q52.4 106.0 52.2 105.9Q52.0 105.9 51.8 105.9L51.8 105.9Q51.3 105.9 50.9 106.1Q50.5 106.3 50.3 106.7Q50.0 107.1 50.0 107.6L50.0 107.6L50.0 112ZM54.9 112L53.8 112L53.8 104.9L54.9 104.9L54.9 112ZM54.4 103.7L54.4 103.7Q54.0 103.7 53.8 103.5Q53.6 103.3 53.6 103.0L53.6 103.0Q53.6 102.7 53.8 102.4Q54.0 102.2 54.4 102.2L54.4 102.2Q54.7 102.2 54.9 102.4Q55.2 102.7 55.2 103.0L55.2 103.0Q55.2 103.3 54.9 103.5Q54.7 103.7 54.4 103.7ZM58.1 112L56.9 112L56.9 104.9L58.0 104.9L58.0 106.2Q58.2 105.8 58.4 105.5L58.4 105.5Q58.7 105.2 59.2 105.0Q59.6 104.8 60.0 104.8L60.0 104.8Q60.8 104.8 61.3 105.3L61.3 105.3Q61.7 105.6 61.8 106.2L61.8 106.2Q62.0 105.9 62.2 105.6L62.2 105.6Q62.6 105.2 63.0 105.0Q63.5 104.8 64.1 104.8L64.1 104.8Q64.7 104.8 65.2 105.0Q65.7 105.3 66.0 105.8Q66.3 106.4 66.3 107.2L66.3 107.2L66.3 112L65.2 112L65.2 107.2Q65.2 106.5 64.7 106.1Q64.3 105.8 63.7 105.8L63.7 105.8Q63.3 105.8 62.9 106.0Q62.6 106.2 62.4 106.6Q62.2 106.9 62.2 107.4L62.2 107.4L62.2 112L61.0 112L61.0 107.1Q61.0 106.5 60.7 106.2Q60.3 105.8 59.7 105.8L59.7 105.8Q59.2 105.8 58.9 106.0Q58.5 106.2 58.3 106.6Q58.1 107.0 58.1 107.5L58.1 107.5L58.1 112ZM71.3 112.2L71.3 112.2Q70.3 112.2 69.5 111.7Q68.8 111.2 68.4 110.4Q68.0 109.6 68.0 108.5Q68.0 107.4 68.4 106.6Q68.8 105.8 69.5 105.3Q70.2 104.8 71.2 104.8L71.2 104.8Q71.7 104.8 72.3 105.0Q72.8 105.2 73.3 105.6Q73.7 106.0 74.0 106.7Q74.3 107.4 74.3 108.4L74.3 108.4L74.3 108.8L69.1 108.8Q69.2 109.5 69.4 110.0L69.4 110.0Q69.7 110.6 70.2 110.9Q70.7 111.1 71.3 111.1L71.3 111.1Q71.7 111.1 72.1 111.0Q72.4 110.9 72.7 110.7Q72.9 110.4 73.0 110.0L73.0 110.0L74.1 110.3Q74.0 110.9 73.6 111.3Q73.2 111.7 72.6 111.9Q72.0 112.2 71.3 112.2ZM69.1 107.9L69.1 107.9L73.1 107.9Q73.1 107.4 72.9 107.0L72.9 107.0Q72.7 106.4 72.2 106.1Q71.8 105.8 71.2 105.8Q70.5 105.8 70.1 106.1Q69.6 106.5 69.4 107.0L69.4 107.0Q69.2 107.4 69.1 107.9ZM77.2 104.9L78.7 104.9L78.7 105.9L77.2 105.9L77.2 110.2Q77.2 110.6 77.4 110.9Q77.6 111.1 78.1 111.1L78.1 111.1Q78.2 111.1 78.3 111.0Q78.5 111.0 78.6 111.0L78.6 111.0L78.9 112.0Q78.7 112.0 78.5 112.1Q78.3 112.1 78.0 112.1L78.0 112.1Q77.1 112.1 76.6 111.6Q76.1 111.1 76.1 110.2L76.1 110.2L76.1 105.9L75.0 105.9L75.0 104.9L76.1 104.9L76.1 103.2L77.2 103.2L77.2 104.9ZM83.1 112.2L83.1 112.2Q82.1 112.2 81.4 111.7Q80.6 111.2 80.2 110.4Q79.8 109.6 79.8 108.5Q79.8 107.4 80.2 106.6Q80.6 105.8 81.3 105.3Q82.0 104.8 83.0 104.8L83.0 104.8Q83.6 104.8 84.1 105.0Q84.7 105.2 85.1 105.6Q85.6 106.0 85.8 106.7Q86.1 107.4 86.1 108.4L86.1 108.4L86.1 108.8L81.0 108.8Q81.0 109.5 81.2 110.0L81.2 110.0Q81.5 110.6 82.0 110.9Q82.5 111.1 83.1 111.1L83.1 111.1Q83.6 111.1 83.9 111.0Q84.2 110.9 84.5 110.7Q84.7 110.4 84.9 110.0L84.9 110.0L86.0 110.3Q85.8 110.9 85.4 111.3Q85.0 111.7 84.4 111.9Q83.9 112.2 83.1 112.2ZM81.0 107.9L81.0 107.9L84.9 107.9Q84.9 107.4 84.7 107.0L84.7 107.0Q84.5 106.4 84.1 106.1Q83.6 105.8 83.0 105.8Q82.4 105.8 81.9 106.1Q81.4 106.5 81.2 107.0L81.2 107.0Q81.0 107.4 81.0 107.9ZM88.9 112L87.7 112L87.7 104.9L88.8 104.9L88.8 106.0L88.9 106.0Q89.1 105.5 89.6 105.1Q90.1 104.8 90.7 104.8L90.7 104.8Q90.9 104.8 91.0 104.8Q91.2 104.8 91.3 104.8L91.3 104.8L91.3 106.0Q91.3 106.0 91.1 105.9Q90.9 105.9 90.6 105.9L90.6 105.9Q90.1 105.9 89.7 106.1Q89.3 106.3 89.1 106.7Q88.9 107.1 88.9 107.6L88.9 107.6L88.9 112Z M99.0 112L97.9 112L95.7 104.9L96.9 104.9L97.8 108.0Q98.0 108.6 98.2 109.4L98.2 109.4Q98.3 110.0 98.5 110.8L98.5 110.8Q98.6 110.1 98.8 109.5L98.8 109.5Q99.0 108.7 99.1 108.0L99.1 108.0L100.0 104.9L101.2 104.9L102.1 108.0Q102.2 108.7 102.4 109.5L102.4 109.5Q102.6 110.1 102.7 110.8L102.7 110.8Q102.9 110.1 103.0 109.5L103.0 109.5Q103.2 108.7 103.4 108.0L103.4 108.0L104.3 104.9L105.5 104.9L103.3 112L102.2 112L101.3 108.8Q101.1 108.3 101.0 107.8Q100.9 107.3 100.7 106.8L100.7 106.8Q100.7 106.5 100.6 106.2L100.6 106.2Q100.5 106.5 100.5 106.7L100.5 106.7Q100.3 107.3 100.2 107.8Q100.1 108.3 99.9 108.8L99.9 108.8L99.0 112ZM109.8 112.2L109.8 112.2Q108.8 112.2 108.1 111.7Q107.4 111.2 107.0 110.4Q106.6 109.6 106.6 108.5L106.6 108.5Q106.6 107.4 107.0 106.6Q107.4 105.7 108.1 105.3Q108.8 104.8 109.8 104.8L109.8 104.8Q110.8 104.8 111.5 105.3Q112.2 105.7 112.6 106.6Q113.0 107.4 113.0 108.5L113.0 108.5Q113.0 109.6 112.6 110.4Q112.2 111.2 111.5 111.7Q110.8 112.2 109.8 112.2ZM109.8 111.1L109.8 111.1Q110.5 111.1 111.0 110.8Q111.4 110.4 111.7 109.8Q111.9 109.2 111.9 108.5L111.9 108.5Q111.9 107.8 111.7 107.2Q111.4 106.6 111.0 106.2Q110.5 105.8 109.8 105.8L109.8 105.8Q109.1 105.8 108.6 106.2Q108.2 106.6 108.0 107.2Q107.7 107.8 107.7 108.5L107.7 108.5Q107.7 109.2 108.0 109.8Q108.2 110.4 108.6 110.8Q109.1 111.1 109.8 111.1ZM115.9 112L114.7 112L114.7 104.9L115.8 104.9L115.8 106.0L115.9 106.0Q116.1 105.5 116.6 105.1Q117.1 104.8 117.7 104.8L117.7 104.8Q117.9 104.8 118.0 104.8Q118.2 104.8 118.3 104.8L118.3 104.8L118.3 106.0Q118.3 106.0 118.1 105.9Q117.9 105.9 117.6 105.9L117.6 105.9Q117.1 105.9 116.7 106.1Q116.3 106.3 116.1 106.7Q115.9 107.1 115.9 107.6L115.9 107.6L115.9 112ZM122.0 112.2L122.0 112.2Q121.3 112.2 120.7 111.9Q120.1 111.7 119.8 111.3Q119.4 110.9 119.3 110.3L119.3 110.3L120.4 110.0Q120.5 110.6 120.9 110.9Q121.4 111.1 122.0 111.1L122.0 111.1Q122.7 111.1 123.2 110.8Q123.6 110.5 123.6 110.1L123.6 110.1Q123.6 109.7 123.4 109.5Q123.1 109.2 122.6 109.1L122.6 109.1L121.4 108.8Q120.4 108.6 120.0 108.1Q119.5 107.6 119.5 106.9L119.5 106.9Q119.5 106.3 119.8 105.8Q120.2 105.3 120.8 105.1Q121.4 104.8 122.1 104.8L122.1 104.8Q122.9 104.8 123.4 105.0Q123.9 105.3 124.2 105.6Q124.5 106.0 124.7 106.5L124.7 106.5L123.6 106.8Q123.5 106.4 123.2 106.1Q122.8 105.8 122.1 105.8L122.1 105.8Q121.5 105.8 121.1 106.1Q120.7 106.4 120.7 106.8L120.7 106.8Q120.7 107.2 120.9 107.4Q121.2 107.7 121.9 107.8L121.9 107.8L122.9 108.1Q123.9 108.3 124.4 108.8Q124.8 109.3 124.8 110.0L124.8 110.0Q124.8 110.6 124.5 111.1Q124.1 111.6 123.5 111.9Q122.8 112.2 122.0 112.2ZM127.8 104.9L129.3 104.9L129.3 105.9L127.8 105.9L127.8 110.2Q127.8 110.6 128.0 110.9Q128.2 111.1 128.6 111.1L128.6 111.1Q128.7 111.1 128.9 111.0Q129.1 111.0 129.2 111.0L129.2 111.0L129.5 112.0Q129.3 112.0 129.1 112.1Q128.8 112.1 128.6 112.1L128.6 112.1Q127.7 112.1 127.2 111.6Q126.7 111.1 126.7 110.2L126.7 110.2L126.7 105.9L125.6 105.9L125.6 104.9L126.7 104.9L126.7 103.2L127.8 103.2L127.8 104.9Z "/></g><mask id="satori_om-id-2-1"><rect x="400" y="98" width="184" height="17" fill="#fff"/></mask><g  ><path fill="#22c55e" d="M403.4 112L401.2 112L405.4 103.6L405.4 103.5L400.5 103.5L400.5 101.8L407.6 101.8L407.6 103.6L403.4 112ZM412.5 112.1L412.5 112.1Q411.4 112.1 410.5 111.8Q409.6 111.4 409.1 110.7Q408.6 110.1 408.6 109.3L408.6 109.3Q408.6 108.6 408.9 108.1Q409.2 107.6 409.7 107.2Q410.2 106.8 410.8 106.7L410.8 106.7L410.8 106.7Q410.0 106.5 409.5 105.9Q409.0 105.2 409.0 104.4L409.0 104.4Q409.0 103.6 409.4 103.0Q409.9 102.4 410.7 102.0Q411.5 101.7 412.5 101.7L412.5 101.7Q413.5 101.7 414.3 102.0Q415.1 102.4 415.6 103.0Q416.0 103.6 416.0 104.4L416.0 104.4Q416.0 105.2 415.5 105.9Q415.0 106.5 414.2 106.7L414.2 106.7L414.2 106.7Q414.8 106.8 415.3 107.2Q415.8 107.6 416.1 108.1Q416.4 108.6 416.4 109.3L416.4 109.3Q416.4 110.1 415.9 110.7Q415.4 111.4 414.5 111.8Q413.6 112.1 412.5 112.1ZM412.5 110.6L412.5 110.6Q413.0 110.6 413.4 110.4Q413.8 110.2 414.0 109.9Q414.2 109.5 414.2 109.1L414.2 109.1Q414.2 108.7 414.0 108.3Q413.8 108.0 413.4 107.8Q413.0 107.6 412.5 107.6L412.5 107.6Q412.0 107.6 411.6 107.8Q411.2 108.0 411.0 108.3Q410.8 108.6 410.8 109.1L410.8 109.1Q410.8 109.5 411.0 109.9Q411.2 110.2 411.6 110.4Q412.0 110.6 412.5 110.6ZM412.5 106.0L412.5 106.0Q412.9 106.0 413.3 105.8Q413.6 105.7 413.8 105.4Q414 105.0 414 104.6L414 104.6Q414 104.2 413.8 103.9Q413.6 103.6 413.3 103.4Q412.9 103.3 412.5 103.3L412.5 103.3Q412.1 103.3 411.7 103.4Q411.4 103.6 411.2 103.9Q411.0 104.2 411.0 104.6L411.0 104.6Q411.0 105.0 411.2 105.4Q411.4 105.7 411.7 105.8Q412.1 106.0 412.5 106.0ZM419.1 112.1L419.1 112.1Q418.6 112.1 418.3 111.8Q417.9 111.5 417.9 111.0L417.9 111.0Q417.9 110.5 418.3 110.1Q418.6 109.8 419.1 109.8L419.1 109.8Q419.6 109.8 419.9 110.1Q420.3 110.5 420.3 111.0L420.3 111.0Q420.3 111.5 419.9 111.8Q419.6 112.1 419.1 112.1ZM425.6 112.1L425.6 112.1Q424.5 112.1 423.7 111.8Q422.8 111.4 422.3 110.7Q421.8 110.0 421.8 109.1L421.8 109.1L423.9 109.1Q423.9 109.5 424.1 109.8Q424.4 110.1 424.8 110.3Q425.1 110.4 425.6 110.4L425.6 110.4Q426.1 110.4 426.5 110.2Q426.9 110.1 427.1 109.7Q427.3 109.4 427.3 109.0L427.3 109.0Q427.3 108.6 427.1 108.3Q426.9 107.9 426.5 107.8Q426.0 107.6 425.4 107.6L425.4 107.6L424.5 107.6L424.5 106.0L425.4 106.0Q425.9 106.0 426.3 105.9Q426.7 105.7 426.9 105.4Q427.1 105.1 427.1 104.7L427.1 104.7Q427.1 104.3 426.9 104.0Q426.7 103.7 426.4 103.5Q426.1 103.3 425.6 103.3L425.6 103.3Q425.2 103.3 424.8 103.5Q424.5 103.7 424.2 104.0Q424.0 104.2 424.0 104.6L424.0 104.6L422.0 104.6Q422.0 103.8 422.5 103.1Q423.0 102.4 423.8 102.1Q424.6 101.7 425.7 101.7L425.7 101.7Q426.7 101.7 427.5 102.1Q428.3 102.4 428.7 103.1Q429.1 103.7 429.1 104.5L429.1 104.5Q429.1 105.4 428.6 106.0Q428.1 106.5 427.2 106.7L427.2 106.7L427.2 106.8Q428.0 106.9 428.5 107.2Q429.0 107.5 429.3 108.0Q429.5 108.5 429.5 109.1L429.5 109.1Q429.5 110.0 429.0 110.7Q428.5 111.4 427.6 111.8Q426.8 112.1 425.6 112.1Z "/></g><mask id="satori_om-id-2-2"><rect x="584" y="98" width="184" height="17" fill="#fff"/></mask><g  ><path fill="#ef4444" d="M586.9 101.8L589.1 101.8L589.1 112L587.0 112L587.0 103.7L587.0 103.7L584.6 105.3L584.6 103.4L586.9 101.8ZM594.4 112.2L594.4 112.2Q593.4 112.2 592.6 111.8Q591.8 111.4 591.4 110.7Q590.9 110.0 590.8 109.2L590.8 109.2L592.8 109.2Q593.0 109.7 593.4 110.0Q593.8 110.4 594.4 110.4L594.4 110.4Q595.1 110.4 595.5 110.0Q596.0 109.6 596.2 108.8Q596.4 108.1 596.4 107.1L596.4 107.1L596.4 107.1Q596.1 107.5 595.8 107.8Q595.4 108.2 594.9 108.3Q594.4 108.5 593.8 108.5L593.8 108.5Q592.9 108.5 592.2 108.1Q591.5 107.7 591.1 106.9Q590.7 106.2 590.7 105.2L590.7 105.2Q590.7 104.2 591.2 103.4Q591.6 102.6 592.5 102.1Q593.3 101.7 594.5 101.7L594.5 101.7Q595.2 101.7 596.0 101.9Q596.7 102.2 597.3 102.8Q597.8 103.3 598.2 104.3Q598.5 105.3 598.5 106.7L598.5 106.7Q598.5 108.0 598.2 109.0Q597.9 110.0 597.4 110.7Q596.8 111.4 596.1 111.8Q595.3 112.2 594.4 112.2ZM594.5 107.0L594.5 107.0Q594.8 107.0 595.2 106.8Q595.5 106.7 595.7 106.4Q596.0 106.2 596.1 105.9Q596.2 105.5 596.2 105.1L596.2 105.1Q596.2 104.7 596.0 104.2Q595.8 103.8 595.4 103.6Q595.0 103.3 594.5 103.3L594.5 103.3Q594.0 103.3 593.6 103.6Q593.2 103.8 592.9 104.2Q592.7 104.6 592.7 105.2L592.7 105.2Q592.7 105.7 592.9 106.1Q593.2 106.5 593.6 106.7Q594.0 107.0 594.5 107.0ZM602.2 112L600.1 112L604.3 103.6L604.3 103.5L599.4 103.5L599.4 101.8L606.5 101.8L606.5 103.6L602.2 112ZM607.6 112.1L607.6 112.1Q607.1 112.1 606.7 111.8Q606.4 111.5 606.4 111.0L606.4 111.0Q606.4 110.5 606.7 110.1Q607.1 109.8 607.6 109.8L607.6 109.8Q608.1 109.8 608.4 110.1Q608.8 110.5 608.8 111.0L608.8 111.0Q608.8 111.5 608.4 111.8Q608.1 112.1 607.6 112.1ZM615.5 110.2L610.6 110.2L610.6 108.5L614.9 101.8L617.5 101.8L617.5 108.5L618.8 108.5L618.8 110.2L617.5 110.2L617.5 112L615.5 112L615.5 110.2ZM612.7 108.5L615.5 108.5L615.5 104.1L615.4 104.1L612.7 108.4L612.7 108.5Z "/></g><defs><clipPath id="satori_bc-id-3"><rect x="32" y="126" width="736" height="38"/></clipPath></defs><mask id="satori_om-id-3"><rect x="32" y="126" width="736" height="37" fill="#fff"/><path width="736" height="38" fill="none" stroke="#000" stroke-width="2" d="M768,164 A0,0 0 0 1 768,164 h-736 A0,0 0 0 1 32,164"/></mask><path width="736" height="38" clip-path="url(#satori_bc-id-3)" fill="none" stroke="#1a1a1a" stroke-width="2" d="M768,164 A0,0 0 0 1 768,164 h-736 A0,0 0 0 1 32,164"/><mask id="satori_om-id-3-0"><rect x="32" y="137" width="368" height="16" fill="#fff"/></mask><g  ><path fill="#bbb" d="M37.0 150.1L37.0 150.1Q35.8 150.1 34.8 149.5Q33.9 149.0 33.3 147.9Q32.8 146.8 32.8 145.3L32.8 145.3Q32.8 143.8 33.3 142.7Q33.9 141.6 34.8 141.0Q35.8 140.4 37.0 140.4L37.0 140.4Q37.7 140.4 38.3 140.6Q39.0 140.8 39.5 141.2Q40.0 141.6 40.3 142.2Q40.7 142.8 40.8 143.5L40.8 143.5L39.6 143.5Q39.5 143.0 39.2 142.7Q39.0 142.3 38.6 142.0Q38.3 141.8 37.9 141.7Q37.4 141.5 37.0 141.5L37.0 141.5Q36.1 141.5 35.4 142.0Q34.7 142.4 34.3 143.2Q33.9 144.1 33.9 145.3L33.9 145.3Q33.9 146.5 34.4 147.3Q34.8 148.2 35.4 148.6Q36.1 149.0 37.0 149.0L37.0 149.0Q37.4 149.0 37.9 148.9Q38.3 148.7 38.6 148.5Q39.0 148.2 39.2 147.9Q39.5 147.5 39.6 147.0L39.6 147.0L40.8 147.0Q40.7 147.7 40.3 148.3Q40.0 148.9 39.5 149.3Q39.0 149.7 38.3 149.9Q37.7 150.1 37.0 150.1ZM45.4 150.2L45.4 150.2Q44.4 150.2 43.7 149.7Q43.0 149.2 42.6 148.4Q42.2 147.6 42.2 146.5L42.2 146.5Q42.2 145.4 42.6 144.6Q43.0 143.7 43.7 143.3Q44.4 142.8 45.4 142.8L45.4 142.8Q46.4 142.8 47.1 143.3Q47.8 143.7 48.2 144.6Q48.6 145.4 48.6 146.5L48.6 146.5Q48.6 147.6 48.2 148.4Q47.8 149.2 47.1 149.7Q46.4 150.2 45.4 150.2ZM45.4 149.1L45.4 149.1Q46.1 149.1 46.6 148.8Q47.0 148.4 47.3 147.8Q47.5 147.2 47.5 146.5L47.5 146.5Q47.5 145.8 47.3 145.2Q47.0 144.6 46.6 144.2Q46.1 143.8 45.4 143.8L45.4 143.8Q44.7 143.8 44.2 144.2Q43.8 144.6 43.5 145.2Q43.3 145.8 43.3 146.5L43.3 146.5Q43.3 147.2 43.5 147.8Q43.8 148.4 44.2 148.8Q44.7 149.1 45.4 149.1ZM51.4 145.7L51.4 145.7L51.4 150L50.3 150L50.3 142.9L51.4 142.9L51.4 144.2Q51.7 143.6 52.2 143.2L52.2 143.2Q52.8 142.8 53.6 142.8L53.6 142.8Q54.3 142.8 54.8 143.1Q55.4 143.4 55.7 144.0Q56.0 144.6 56.0 145.5L56.0 145.5L56.0 150L54.8 150L54.8 145.6Q54.8 144.8 54.4 144.3Q54.0 143.8 53.2 143.8L53.2 143.8Q52.7 143.8 52.3 144.1Q51.9 144.3 51.7 144.7Q51.4 145.1 51.4 145.7ZM60.9 150.2L60.9 150.2Q59.9 150.2 59.2 149.7Q58.4 149.2 58.0 148.4Q57.6 147.6 57.6 146.5L57.6 146.5Q57.6 145.4 58.0 144.6Q58.4 143.7 59.2 143.3Q59.9 142.8 60.9 142.8L60.9 142.8Q61.4 142.8 61.8 142.9Q62.3 143.1 62.7 143.3Q63.0 143.6 63.3 143.9Q63.6 144.3 63.7 144.8L63.7 144.8L62.6 145.1Q62.6 144.8 62.4 144.6Q62.2 144.4 62.0 144.2Q61.8 144.0 61.5 143.9Q61.2 143.8 60.9 143.8L60.9 143.8Q60.2 143.8 59.7 144.2Q59.2 144.6 59.0 145.2Q58.8 145.8 58.8 146.5L58.8 146.5Q58.8 147.2 59.0 147.8Q59.2 148.4 59.7 148.8Q60.2 149.1 60.9 149.1L60.9 149.1Q61.2 149.1 61.5 149.0Q61.8 148.9 62.0 148.8Q62.3 148.6 62.4 148.3Q62.6 148.1 62.7 147.8L62.7 147.8L63.8 148.1Q63.6 148.6 63.3 149.0Q63.1 149.4 62.7 149.6Q62.3 149.9 61.8 150.0Q61.4 150.2 60.9 150.2ZM67.4 150.2L67.4 150.2Q66.7 150.2 66.2 149.9Q65.6 149.7 65.3 149.2Q65.0 148.7 65.0 148.0L65.0 148.0Q65.0 147.4 65.2 147.0Q65.5 146.6 65.9 146.4Q66.3 146.2 66.7 146.1Q67.2 146.0 67.7 145.9L67.7 145.9Q68.4 145.8 68.8 145.8Q69.2 145.7 69.4 145.6Q69.6 145.5 69.6 145.2L69.6 145.2L69.6 145.2Q69.6 144.8 69.4 144.5Q69.2 144.1 68.9 144.0Q68.6 143.8 68.1 143.8L68.1 143.8Q67.6 143.8 67.2 144.0Q66.8 144.1 66.6 144.4Q66.4 144.6 66.3 144.9L66.3 144.9L65.2 144.5Q65.4 143.8 65.9 143.5Q66.4 143.1 66.9 143.0Q67.5 142.8 68.0 142.8L68.0 142.8Q68.4 142.8 68.8 142.9Q69.3 143.0 69.7 143.2Q70.1 143.5 70.4 144.0Q70.7 144.5 70.7 145.3L70.7 145.3L70.7 150L69.6 150L69.6 149.0L69.5 149.0Q69.4 149.3 69.1 149.5Q68.8 149.8 68.4 150.0Q68.0 150.2 67.4 150.2ZM67.6 149.2L67.6 149.2Q68.2 149.2 68.7 148.9Q69.1 148.7 69.3 148.3Q69.6 147.9 69.6 147.4L69.6 147.4L69.6 146.5Q69.5 146.5 69.2 146.6Q69.0 146.7 68.7 146.7Q68.4 146.8 68.1 146.8Q67.8 146.8 67.7 146.9L67.7 146.9Q67.3 146.9 66.9 147.0Q66.6 147.2 66.3 147.4Q66.1 147.6 66.1 148.0L66.1 148.0Q66.1 148.4 66.3 148.7Q66.5 148.9 66.8 149.0Q67.2 149.2 67.6 149.2ZM76.0 150L74.8 150L72.0 142.9L73.3 142.9L74.8 147.1Q75.0 147.8 75.2 148.4L75.2 148.4Q75.3 148.7 75.4 149.0L75.4 149.0Q75.4 148.7 75.5 148.4L75.5 148.4Q75.7 147.8 75.9 147.1L75.9 147.1L77.4 142.9L78.7 142.9L76.0 150ZM83.0 150.2L83.0 150.2Q82.0 150.2 81.2 149.7Q80.5 149.2 80.1 148.4Q79.7 147.6 79.7 146.5Q79.7 145.4 80.1 144.6Q80.5 143.8 81.2 143.3Q81.9 142.8 82.9 142.8L82.9 142.8Q83.4 142.8 84.0 143.0Q84.5 143.2 85.0 143.6Q85.4 144.0 85.7 144.7Q85.9 145.4 85.9 146.4L85.9 146.4L85.9 146.8L80.8 146.8Q80.8 147.5 81.1 148.0L81.1 148.0Q81.4 148.6 81.9 148.9Q82.3 149.1 83.0 149.1L83.0 149.1Q83.4 149.1 83.8 149.0Q84.1 148.9 84.3 148.7Q84.6 148.4 84.7 148.0L84.7 148.0L85.8 148.3Q85.7 148.9 85.3 149.3Q84.9 149.7 84.3 149.9Q83.7 150.2 83.0 150.2ZM80.8 145.9L80.8 145.9L84.8 145.9Q84.7 145.4 84.6 145.0L84.6 145.0Q84.4 144.4 83.9 144.1Q83.5 143.8 82.9 143.8Q82.2 143.8 81.8 144.1Q81.3 144.5 81.1 145.0L81.1 145.0Q80.9 145.4 80.8 145.9Z M92.4 152.7L91.2 152.7L91.2 142.9L92.3 142.9L92.3 144.0L92.5 144.0Q92.6 143.8 92.8 143.6Q93.0 143.3 93.4 143.0Q93.8 142.8 94.5 142.8L94.5 142.8Q95.4 142.8 96.1 143.3Q96.8 143.7 97.2 144.5Q97.5 145.3 97.5 146.5L97.5 146.5Q97.5 147.6 97.2 148.4Q96.8 149.3 96.1 149.7Q95.4 150.2 94.5 150.2L94.5 150.2Q93.9 150.2 93.5 149.9Q93.0 149.7 92.8 149.4Q92.6 149.1 92.5 148.9L92.5 148.9L92.4 148.9L92.4 152.7ZM94.4 149.1L94.4 149.1Q95.0 149.1 95.5 148.8Q95.9 148.4 96.2 147.8Q96.4 147.2 96.4 146.5L96.4 146.5Q96.4 145.7 96.2 145.1Q95.9 144.5 95.5 144.2Q95.0 143.8 94.4 143.8L94.4 143.8Q93.7 143.8 93.3 144.2Q92.8 144.5 92.6 145.1Q92.4 145.7 92.4 146.5L92.4 146.5Q92.4 147.2 92.6 147.8Q92.8 148.5 93.3 148.8Q93.7 149.1 94.4 149.1ZM102.1 150.2L102.1 150.2Q101.1 150.2 100.4 149.7Q99.7 149.2 99.3 148.4Q98.9 147.6 98.9 146.5L98.9 146.5Q98.9 145.4 99.3 144.6Q99.7 143.7 100.4 143.3Q101.1 142.8 102.1 142.8L102.1 142.8Q103.1 142.8 103.8 143.3Q104.5 143.7 104.9 144.6Q105.3 145.4 105.3 146.5L105.3 146.5Q105.3 147.6 104.9 148.4Q104.5 149.2 103.8 149.7Q103.1 150.2 102.1 150.2ZM102.1 149.1L102.1 149.1Q102.8 149.1 103.3 148.8Q103.7 148.4 104.0 147.8Q104.2 147.2 104.2 146.5L104.2 146.5Q104.2 145.8 104.0 145.2Q103.7 144.6 103.3 144.2Q102.8 143.8 102.1 143.8L102.1 143.8Q101.4 143.8 100.9 144.2Q100.5 144.6 100.2 145.2Q100.0 145.8 100.0 146.5L100.0 146.5Q100.0 147.2 100.2 147.8Q100.5 148.4 100.9 148.8Q101.4 149.1 102.1 149.1ZM108.1 150L107.0 150L107.0 142.9L108.1 142.9L108.1 150ZM107.6 141.7L107.6 141.7Q107.3 141.7 107.0 141.5Q106.8 141.3 106.8 141.0L106.8 141.0Q106.8 140.7 107.0 140.4Q107.3 140.2 107.6 140.2L107.6 140.2Q107.9 140.2 108.1 140.4Q108.4 140.7 108.4 141.0L108.4 141.0Q108.4 141.3 108.1 141.5Q107.9 141.7 107.6 141.7ZM111.3 145.7L111.3 145.7L111.3 150L110.1 150L110.1 142.9L111.2 142.9L111.3 144.2Q111.5 143.6 112.0 143.2L112.0 143.2Q112.6 142.8 113.4 142.8L113.4 142.8Q114.1 142.8 114.7 143.1Q115.2 143.4 115.5 144.0Q115.8 144.6 115.8 145.5L115.8 145.5L115.8 150L114.7 150L114.7 145.6Q114.7 144.8 114.2 144.3Q113.8 143.8 113.1 143.8L113.1 143.8Q112.6 143.8 112.2 144.1Q111.8 144.3 111.5 144.7Q111.3 145.1 111.3 145.7ZM119.2 142.9L120.6 142.9L120.6 143.9L119.2 143.9L119.2 148.2Q119.2 148.6 119.4 148.9Q119.5 149.1 120.0 149.1L120.0 149.1Q120.1 149.1 120.3 149.0Q120.4 149.0 120.6 149.0L120.6 149.0L120.8 150.0Q120.6 150.0 120.4 150.1Q120.2 150.1 120.0 150.1L120.0 150.1Q119.0 150.1 118.5 149.6Q118.0 149.1 118.0 148.2L118.0 148.2L118.0 143.9L117.0 143.9L117.0 142.9L118.0 142.9L118.0 141.2L119.2 141.2L119.2 142.9ZM124.5 150.2L124.5 150.2Q123.8 150.2 123.2 149.9Q122.6 149.7 122.3 149.3Q121.9 148.9 121.8 148.3L121.8 148.3L122.8 148.0Q123 148.6 123.4 148.9Q123.8 149.1 124.5 149.1L124.5 149.1Q125.2 149.1 125.7 148.8Q126.1 148.5 126.1 148.1L126.1 148.1Q126.1 147.7 125.8 147.5Q125.6 147.2 125.1 147.1L125.1 147.1L123.9 146.8Q122.9 146.6 122.4 146.1Q122.0 145.6 122.0 144.9L122.0 144.9Q122.0 144.3 122.3 143.8Q122.7 143.3 123.3 143.1Q123.9 142.8 124.6 142.8L124.6 142.8Q125.3 142.8 125.8 143.0Q126.4 143.3 126.7 143.6Q127.0 144.0 127.2 144.5L127.2 144.5L126.1 144.8Q126.0 144.4 125.6 144.1Q125.3 143.8 124.6 143.8L124.6 143.8Q124.0 143.8 123.6 144.1Q123.1 144.4 123.1 144.8L123.1 144.8Q123.1 145.2 123.4 145.4Q123.7 145.7 124.3 145.8L124.3 145.8L125.4 146.1Q126.4 146.3 126.8 146.8Q127.3 147.3 127.3 148.0L127.3 148.0Q127.3 148.6 126.9 149.1Q126.6 149.6 126.0 149.9Q125.3 150.2 124.5 150.2Z M133.7 150L132.6 150L132.6 142.9L133.7 142.9L133.7 144.2Q133.9 143.8 134.1 143.5L134.1 143.5Q134.4 143.2 134.8 143.0Q135.2 142.8 135.7 142.8L135.7 142.8Q136.5 142.8 137.0 143.3L137.0 143.3Q137.3 143.6 137.5 144.2L137.5 144.2Q137.6 143.9 137.9 143.6L137.9 143.6Q138.2 143.2 138.7 143.0Q139.2 142.8 139.7 142.8L139.7 142.8Q140.4 142.8 140.9 143.0Q141.4 143.3 141.7 143.8Q142.0 144.4 142.0 145.2L142.0 145.2L142.0 150L140.8 150L140.8 145.2Q140.8 144.5 140.4 144.1Q140.0 143.8 139.4 143.8L139.4 143.8Q138.9 143.8 138.6 144.0Q138.2 144.2 138.0 144.6Q137.9 144.9 137.9 145.4L137.9 145.4L137.9 150L136.7 150L136.7 145.1Q136.7 144.5 136.3 144.2Q135.9 143.8 135.3 143.8L135.3 143.8Q134.9 143.8 134.5 144.0Q134.2 144.2 134.0 144.6Q133.7 145.0 133.7 145.5L133.7 145.5L133.7 150ZM147.0 150.2L147.0 150.2Q145.9 150.2 145.2 149.7Q144.4 149.2 144.0 148.4Q143.6 147.6 143.6 146.5Q143.6 145.4 144.0 144.6Q144.4 143.8 145.2 143.3Q145.9 142.8 146.8 142.8L146.8 142.8Q147.4 142.8 147.9 143.0Q148.5 143.2 148.9 143.6Q149.4 144.0 149.7 144.7Q149.9 145.4 149.9 146.4L149.9 146.4L149.9 146.8L144.8 146.8Q144.8 147.5 145.1 148.0L145.1 148.0Q145.3 148.6 145.8 148.9Q146.3 149.1 147.0 149.1L147.0 149.1Q147.4 149.1 147.7 149.0Q148.1 148.9 148.3 148.7Q148.6 148.4 148.7 148.0L148.7 148.0L149.8 148.3Q149.6 148.9 149.3 149.3Q148.9 149.7 148.3 149.9Q147.7 150.2 147.0 150.2ZM144.8 145.9L144.8 145.9L148.8 145.9Q148.7 145.4 148.6 145.0L148.6 145.0Q148.3 144.4 147.9 144.1Q147.5 143.8 146.8 143.8Q146.2 143.8 145.7 144.1Q145.3 144.5 145.0 145.0L145.0 145.0Q144.8 145.4 144.8 145.9ZM153.6 150.2L153.6 150.2Q152.9 150.2 152.3 149.9Q151.8 149.7 151.5 149.2Q151.1 148.7 151.1 148.0L151.1 148.0Q151.1 147.4 151.4 147.0Q151.6 146.6 152.0 146.4Q152.4 146.2 152.9 146.1Q153.4 146.0 153.9 145.9L153.9 145.9Q154.5 145.8 154.9 145.8Q155.3 145.7 155.5 145.6Q155.7 145.5 155.7 145.2L155.7 145.2L155.7 145.2Q155.7 144.8 155.6 144.5Q155.4 144.1 155.1 144.0Q154.7 143.8 154.2 143.8L154.2 143.8Q153.7 143.8 153.4 144.0Q153.0 144.1 152.8 144.4Q152.5 144.6 152.4 144.9L152.4 144.9L151.3 144.5Q151.6 143.8 152.1 143.5Q152.5 143.1 153.1 143.0Q153.7 142.8 154.2 142.8L154.2 142.8Q154.6 142.8 155.0 142.9Q155.5 143.0 155.9 143.2Q156.3 143.5 156.6 144.0Q156.9 144.5 156.9 145.3L156.9 145.3L156.9 150L155.7 150L155.7 149.0L155.7 149.0Q155.5 149.3 155.3 149.5Q155.0 149.8 154.6 150.0Q154.2 150.2 153.6 150.2ZM153.7 149.2L153.7 149.2Q154.4 149.2 154.8 148.9Q155.3 148.7 155.5 148.3Q155.7 147.9 155.7 147.4L155.7 147.4L155.7 146.5Q155.6 146.5 155.4 146.6Q155.2 146.7 154.9 146.7Q154.6 146.8 154.3 146.8Q154.0 146.8 153.8 146.9L153.8 146.9Q153.4 146.9 153.1 147.0Q152.7 147.2 152.5 147.4Q152.3 147.6 152.3 148.0L152.3 148.0Q152.3 148.4 152.5 148.7Q152.7 148.9 153.0 149.0Q153.3 149.2 153.7 149.2ZM160.0 145.7L160.0 145.7L160.0 150L158.9 150L158.9 142.9L160.0 142.9L160.0 144.2Q160.3 143.6 160.7 143.2L160.7 143.2Q161.3 142.8 162.1 142.8L162.1 142.8Q162.9 142.8 163.4 143.1Q163.9 143.4 164.2 144.0Q164.5 144.6 164.5 145.5L164.5 145.5L164.5 150L163.4 150L163.4 145.6Q163.4 144.8 163.0 144.3Q162.5 143.8 161.8 143.8L161.8 143.8Q161.3 143.8 160.9 144.1Q160.5 144.3 160.2 144.7Q160.0 145.1 160.0 145.7Z "/></g><mask id="satori_om-id-3-1"><rect x="400" y="136" width="184" height="17" fill="#fff"/></mask><g  ><path fill="#22c55e" d="M404.7 150.1L404.7 150.1Q403.4 150.1 402.5 149.5Q401.6 148.9 401.1 147.7Q400.6 146.6 400.6 144.9L400.6 144.9Q400.6 143.3 401.1 142.1Q401.6 140.9 402.5 140.3Q403.4 139.7 404.7 139.7L404.7 139.7Q406.0 139.7 406.9 140.3Q407.8 140.9 408.3 142.1Q408.8 143.3 408.8 144.9L408.8 144.9Q408.8 146.6 408.3 147.7Q407.8 148.9 406.9 149.5Q406.0 150.1 404.7 150.1ZM404.7 148.4L404.7 148.4Q405.3 148.4 405.8 148.0Q406.2 147.6 406.4 146.8Q406.7 146.0 406.7 144.9L406.7 144.9Q406.7 143.8 406.4 143.0Q406.2 142.2 405.8 141.8Q405.3 141.4 404.7 141.4L404.7 141.4Q404.1 141.4 403.7 141.8Q403.2 142.2 403.0 143.0Q402.8 143.8 402.8 144.9L402.8 144.9Q402.8 146.0 403.0 146.8Q403.2 147.6 403.7 148.0Q404.1 148.4 404.7 148.4ZM411.4 150.1L411.4 150.1Q410.9 150.1 410.5 149.8Q410.2 149.5 410.2 149.0L410.2 149.0Q410.2 148.5 410.5 148.1Q410.9 147.8 411.4 147.8L411.4 147.8Q411.9 147.8 412.2 148.1Q412.6 148.5 412.6 149.0L412.6 149.0Q412.6 149.5 412.2 149.8Q411.9 150.1 411.4 150.1ZM418.0 150.1L418.0 150.1Q416.7 150.1 415.8 149.5Q414.9 148.9 414.4 147.7Q413.9 146.6 413.9 144.9L413.9 144.9Q413.9 143.3 414.4 142.1Q414.9 140.9 415.8 140.3Q416.7 139.7 418.0 139.7L418.0 139.7Q419.3 139.7 420.2 140.3Q421.1 140.9 421.6 142.1Q422.1 143.3 422.1 144.9L422.1 144.9Q422.1 146.6 421.6 147.7Q421.1 148.9 420.2 149.5Q419.3 150.1 418.0 150.1ZM418.0 148.4L418.0 148.4Q418.6 148.4 419.1 148.0Q419.5 147.6 419.7 146.8Q420.0 146.0 420.0 144.9L420.0 144.9Q420.0 143.8 419.7 143.0Q419.5 142.2 419.1 141.8Q418.6 141.4 418.0 141.4L418.0 141.4Q417.4 141.4 417.0 141.8Q416.5 142.2 416.3 143.0Q416.1 143.8 416.1 144.9L416.1 144.9Q416.1 146.0 416.3 146.8Q416.5 147.6 417.0 148.0Q417.4 148.4 418.0 148.4ZM430.8 150L423.6 150L423.6 148.5L427.2 145.1Q427.7 144.7 428.0 144.3Q428.3 143.9 428.5 143.6Q428.6 143.2 428.6 142.8L428.6 142.8Q428.6 142.4 428.4 142.0Q428.2 141.7 427.9 141.5Q427.5 141.3 427.0 141.3L427.0 141.3Q426.6 141.3 426.2 141.5Q425.9 141.7 425.7 142.1Q425.5 142.4 425.5 142.9L425.5 142.9L423.5 142.9Q423.5 141.9 423.9 141.2Q424.4 140.5 425.2 140.1Q426.0 139.7 427.1 139.7L427.1 139.7Q428.1 139.7 429.0 140.1Q429.8 140.5 430.2 141.1Q430.7 141.8 430.7 142.7L430.7 142.7Q430.7 143.3 430.4 143.8Q430.2 144.4 429.6 145.0Q429.1 145.7 428.0 146.7L428.0 146.7L426.5 148.2L426.5 148.3L430.8 148.3L430.8 150ZM436.3 150.1L436.3 150.1Q435.0 150.1 434.1 149.5Q433.2 148.9 432.7 147.7Q432.2 146.6 432.2 144.9L432.2 144.9Q432.2 143.3 432.7 142.1Q433.2 140.9 434.1 140.3Q435.0 139.7 436.3 139.7L436.3 139.7Q437.6 139.7 438.5 140.3Q439.4 140.9 439.9 142.1Q440.4 143.3 440.4 144.9L440.4 144.9Q440.4 146.6 439.9 147.7Q439.4 148.9 438.5 149.5Q437.6 150.1 436.3 150.1ZM436.3 148.4L436.3 148.4Q436.9 148.4 437.3 148.0Q437.8 147.6 438.0 146.8Q438.2 146.0 438.2 144.9L438.2 144.9Q438.2 143.8 438.0 143.0Q437.8 142.2 437.3 141.8Q436.9 141.4 436.3 141.4L436.3 141.4Q435.6 141.4 435.2 141.8Q434.8 142.2 434.5 143.0Q434.3 143.8 434.3 144.9L434.3 144.9Q434.3 146.0 434.5 146.8Q434.8 147.6 435.2 148.0Q435.6 148.4 436.3 148.4Z "/></g><mask id="satori_om-id-3-2"><rect x="584" y="136" width="184" height="17" fill="#fff"/></mask><g  ><path fill="#ef4444" d="M588.7 150.1L588.7 150.1Q587.4 150.1 586.5 149.5Q585.6 148.9 585.1 147.7Q584.6 146.6 584.6 144.9L584.6 144.9Q584.6 143.3 585.1 142.1Q585.6 140.9 586.5 140.3Q587.4 139.7 588.7 139.7L588.7 139.7Q590.0 139.7 590.9 140.3Q591.8 140.9 592.3 142.1Q592.8 143.3 592.8 144.9L592.8 144.9Q592.8 146.6 592.3 147.7Q591.8 148.9 590.9 149.5Q590.0 150.1 588.7 150.1ZM588.7 148.4L588.7 148.4Q589.3 148.4 589.8 148.0Q590.2 147.6 590.4 146.8Q590.7 146.0 590.7 144.9L590.7 144.9Q590.7 143.8 590.4 143.0Q590.2 142.2 589.8 141.8Q589.3 141.4 588.7 141.4L588.7 141.4Q588.1 141.4 587.7 141.8Q587.2 142.2 587.0 143.0Q586.8 143.8 586.8 144.9L586.8 144.9Q586.8 146.0 587.0 146.8Q587.2 147.6 587.7 148.0Q588.1 148.4 588.7 148.4ZM595.4 150.1L595.4 150.1Q594.9 150.1 594.5 149.8Q594.2 149.5 594.2 149.0L594.2 149.0Q594.2 148.5 594.5 148.1Q594.9 147.8 595.4 147.8L595.4 147.8Q595.9 147.8 596.2 148.1Q596.6 148.5 596.6 149.0L596.6 149.0Q596.6 149.5 596.2 149.8Q595.9 150.1 595.4 150.1ZM599.3 139.8L601.6 139.8L601.6 150L599.5 150L599.5 141.7L599.4 141.7L597.1 143.3L597.1 141.4L599.3 139.8ZM608.0 148.2L603.2 148.2L603.2 146.5L607.4 139.8L610.0 139.8L610.0 146.5L611.3 146.5L611.3 148.2L610.0 148.2L610.0 150L608.0 150L608.0 148.2ZM605.3 146.5L608.1 146.5L608.1 142.1L608.0 142.1L605.3 146.4L605.3 146.5ZM615.3 150L613.2 150L617.4 141.6L617.4 141.5L612.5 141.5L612.5 139.8L619.6 139.8L619.6 141.6L615.3 150Z "/></g><defs><clipPath id="satori_bc-id-4"><rect x="32" y="164" width="736" height="38"/></clipPath></defs><mask id="satori_om-id-4"><rect x="32" y="164" width="736" height="37" fill="#fff"/><path width="736" height="38" fill="none" stroke="#000" stroke-width="2" d="M768,202 A0,0 0 0 1 768,202 h-736 A0,0 0 0 1 32,202"/></mask><path width="736" height="38" clip-path="url(#satori_bc-id-4)" fill="none" stroke="#1a1a1a" stroke-width="2" d="M768,202 A0,0 0 0 1 768,202 h-736 A0,0 0 0 1 32,202"/><mask id="satori_om-id-4-0"><rect x="32" y="175" width="368" height="16" fill="#fff"/></mask><g  ><path fill="#bbb" d="M34.3 188L33.1 188L33.1 178.5L36.4 178.5Q37.5 178.5 38.2 178.9Q38.9 179.3 39.3 180.0Q39.6 180.6 39.6 181.5Q39.6 182.3 39.3 183.0Q38.9 183.6 38.2 184.0L38.2 184.0Q38.0 184.1 37.9 184.1L37.9 184.1L40.0 188L38.6 188L36.6 184.3Q36.5 184.3 36.4 184.3L36.4 184.3L34.3 184.3L34.3 188ZM34.3 179.6L34.3 183.3L36.3 183.3Q37.1 183.3 37.5 183.0Q38.0 182.8 38.2 182.4Q38.4 182.0 38.4 181.5L38.4 181.5Q38.4 180.9 38.2 180.5Q38.0 180.1 37.5 179.8Q37.1 179.6 36.3 179.6L36.3 179.6L34.3 179.6ZM43.4 188.2L43.4 188.2Q42.7 188.2 42.1 187.9Q41.6 187.7 41.3 187.2Q40.9 186.7 40.9 186.0L40.9 186.0Q40.9 185.4 41.2 185.0Q41.4 184.6 41.8 184.4Q42.2 184.2 42.7 184.1Q43.2 184.0 43.7 183.9L43.7 183.9Q44.3 183.8 44.7 183.8Q45.1 183.7 45.3 183.6Q45.5 183.5 45.5 183.2L45.5 183.2L45.5 183.2Q45.5 182.8 45.4 182.5Q45.2 182.1 44.9 182.0Q44.5 181.8 44.0 181.8L44.0 181.8Q43.5 181.8 43.2 182.0Q42.8 182.1 42.6 182.4Q42.4 182.6 42.2 182.9L42.2 182.9L41.1 182.5Q41.4 181.8 41.9 181.5Q42.3 181.1 42.9 181.0Q43.5 180.8 44.0 180.8L44.0 180.8Q44.4 180.8 44.8 180.9Q45.3 181.0 45.7 181.2Q46.1 181.5 46.4 182.0Q46.7 182.5 46.7 183.3L46.7 183.3L46.7 188L45.5 188L45.5 187.0L45.5 187.0Q45.3 187.3 45.1 187.5Q44.8 187.8 44.4 188.0Q44.0 188.2 43.4 188.2ZM43.6 187.2L43.6 187.2Q44.2 187.2 44.6 186.9Q45.1 186.7 45.3 186.3Q45.5 185.9 45.5 185.4L45.5 185.4L45.5 184.5Q45.5 184.5 45.2 184.6Q45.0 184.7 44.7 184.7Q44.4 184.8 44.1 184.8Q43.8 184.8 43.6 184.9L43.6 184.9Q43.2 184.9 42.9 185.0Q42.5 185.2 42.3 185.4Q42.1 185.6 42.1 186.0L42.1 186.0Q42.1 186.4 42.3 186.7Q42.5 186.9 42.8 187.0Q43.1 187.2 43.6 187.2ZM51.3 188.2L51.3 188.2Q50.4 188.2 49.8 187.7Q49.1 187.3 48.7 186.4Q48.3 185.6 48.3 184.5L48.3 184.5Q48.3 183.3 48.7 182.5Q49.1 181.7 49.8 181.3Q50.5 180.8 51.3 180.8L51.3 180.8Q52.0 180.8 52.4 181.0Q52.8 181.3 53.1 181.6Q53.3 181.8 53.4 182.0L53.4 182.0L53.5 182.0L53.5 178.5L54.6 178.5L54.6 188L53.5 188L53.5 186.9L53.4 186.9Q53.3 187.1 53.1 187.4Q52.8 187.7 52.4 187.9Q52.0 188.2 51.3 188.2ZM51.5 187.1L51.5 187.1Q52.1 187.1 52.6 186.8Q53.0 186.5 53.3 185.8Q53.5 185.2 53.5 184.5L53.5 184.5Q53.5 183.7 53.3 183.1Q53.0 182.5 52.6 182.2Q52.2 181.8 51.5 181.8L51.5 181.8Q50.8 181.8 50.4 182.2Q49.9 182.5 49.7 183.1Q49.5 183.7 49.5 184.5L49.5 184.5Q49.5 185.2 49.7 185.8Q49.9 186.4 50.4 186.8Q50.8 187.1 51.5 187.1ZM57.8 188L56.6 188L56.6 180.9L57.8 180.9L57.8 188ZM57.2 179.7L57.2 179.7Q56.9 179.7 56.6 179.5Q56.4 179.3 56.4 179.0L56.4 179.0Q56.4 178.7 56.6 178.4Q56.9 178.2 57.2 178.2L57.2 178.2Q57.5 178.2 57.8 178.4Q58.0 178.7 58.0 179.0L58.0 179.0Q58.0 179.3 57.8 179.5Q57.5 179.7 57.2 179.7ZM62.2 188.1L62.2 188.1Q61.5 188.1 60.9 187.8Q60.4 187.5 60.1 186.9Q59.8 186.3 59.8 185.4L59.8 185.4L59.8 180.9L60.9 180.9L60.9 185.3Q60.9 186.1 61.4 186.6Q61.8 187.1 62.5 187.1L62.5 187.1Q63.0 187.1 63.4 186.8Q63.8 186.6 64.1 186.2Q64.3 185.8 64.3 185.2L64.3 185.2L64.3 180.9L65.5 180.9L65.5 188L64.4 188L64.4 186.7Q64.0 187.4 63.6 187.7L63.6 187.7Q63.0 188.1 62.2 188.1ZM69.9 188.2L69.9 188.2Q69.1 188.2 68.6 187.9Q68.0 187.7 67.6 187.3Q67.3 186.9 67.1 186.3L67.1 186.3L68.2 186.0Q68.4 186.6 68.8 186.9Q69.2 187.1 69.9 187.1L69.9 187.1Q70.6 187.1 71.0 186.8Q71.5 186.5 71.5 186.1L71.5 186.1Q71.5 185.7 71.2 185.5Q71.0 185.2 70.4 185.1L70.4 185.1L69.3 184.8Q68.3 184.6 67.8 184.1Q67.4 183.6 67.4 182.9L67.4 182.9Q67.4 182.3 67.7 181.8Q68.0 181.3 68.6 181.1Q69.2 180.8 70.0 180.8L70.0 180.8Q70.7 180.8 71.2 181.0Q71.7 181.3 72.1 181.6Q72.4 182.0 72.5 182.5L72.5 182.5L71.5 182.8Q71.4 182.4 71.0 182.1Q70.7 181.8 70.0 181.8L70.0 181.8Q69.4 181.8 68.9 182.1Q68.5 182.4 68.5 182.8L68.5 182.8Q68.5 183.2 68.8 183.4Q69.1 183.7 69.7 183.8L69.7 183.8L70.8 184.1Q71.7 184.3 72.2 184.8Q72.7 185.3 72.7 186.0L72.7 186.0Q72.7 186.6 72.3 187.1Q72.0 187.6 71.3 187.9Q70.7 188.2 69.9 188.2Z M80.7 188L79.6 188L77.4 180.9L78.6 180.9L79.5 184.0Q79.7 184.6 79.9 185.4L79.9 185.4Q80.0 186.0 80.2 186.8L80.2 186.8Q80.3 186.1 80.5 185.5L80.5 185.5Q80.7 184.7 80.9 184.0L80.9 184.0L81.7 180.9L82.9 180.9L83.8 184.0Q83.9 184.7 84.1 185.5L84.1 185.5Q84.3 186.1 84.4 186.8L84.4 186.8Q84.6 186.1 84.7 185.5L84.7 185.5Q84.9 184.7 85.1 184.0L85.1 184.0L86.0 180.9L87.2 180.9L85.0 188L83.9 188L83.0 184.8Q82.8 184.3 82.7 183.8Q82.6 183.3 82.4 182.8L82.4 182.8Q82.4 182.5 82.3 182.2L82.3 182.2Q82.2 182.5 82.2 182.7L82.2 182.7Q82.0 183.3 81.9 183.8Q81.8 184.3 81.6 184.8L81.6 184.8L80.7 188ZM91.5 188.2L91.5 188.2Q90.5 188.2 89.8 187.7Q89.1 187.2 88.7 186.4Q88.3 185.6 88.3 184.5L88.3 184.5Q88.3 183.4 88.7 182.6Q89.1 181.7 89.8 181.3Q90.5 180.8 91.5 180.8L91.5 180.8Q92.5 180.8 93.2 181.3Q93.9 181.7 94.3 182.6Q94.8 183.4 94.8 184.5L94.8 184.5Q94.8 185.6 94.3 186.4Q93.9 187.2 93.2 187.7Q92.5 188.2 91.5 188.2ZM91.5 187.1L91.5 187.1Q92.2 187.1 92.7 186.8Q93.2 186.4 93.4 185.8Q93.6 185.2 93.6 184.5L93.6 184.5Q93.6 183.8 93.4 183.2Q93.2 182.6 92.7 182.2Q92.2 181.8 91.5 181.8L91.5 181.8Q90.8 181.8 90.3 182.2Q89.9 182.6 89.7 183.2Q89.4 183.8 89.4 184.5L89.4 184.5Q89.4 185.2 89.7 185.8Q89.9 186.4 90.3 186.8Q90.8 187.1 91.5 187.1ZM97.6 188L96.4 188L96.4 180.9L97.5 180.9L97.5 182.0L97.6 182.0Q97.8 181.5 98.3 181.1Q98.8 180.8 99.4 180.8L99.4 180.8Q99.6 180.8 99.7 180.8Q99.9 180.8 100.0 180.8L100.0 180.8L100.0 182.0Q100.0 182.0 99.8 181.9Q99.6 181.9 99.3 181.9L99.3 181.9Q98.8 181.9 98.4 182.1Q98.0 182.3 97.8 182.7Q97.6 183.1 97.6 183.6L97.6 183.6L97.6 188ZM103.7 188.2L103.7 188.2Q103.0 188.2 102.4 187.9Q101.9 187.7 101.5 187.3Q101.1 186.9 101.0 186.3L101.0 186.3L102.1 186.0Q102.2 186.6 102.7 186.9Q103.1 187.1 103.7 187.1L103.7 187.1Q104.5 187.1 104.9 186.8Q105.3 186.5 105.3 186.1L105.3 186.1Q105.3 185.7 105.1 185.5Q104.8 185.2 104.3 185.1L104.3 185.1L103.1 184.8Q102.1 184.6 101.7 184.1Q101.2 183.6 101.2 182.9L101.2 182.9Q101.2 182.3 101.6 181.8Q101.9 181.3 102.5 181.1Q103.1 180.8 103.8 180.8L103.8 180.8Q104.6 180.8 105.1 181.0Q105.6 181.3 105.9 181.6Q106.2 182.0 106.4 182.5L106.4 182.5L105.4 182.8Q105.2 182.4 104.9 182.1Q104.5 181.8 103.8 181.8L103.8 181.8Q103.2 181.8 102.8 182.1Q102.4 182.4 102.4 182.8L102.4 182.8Q102.4 183.2 102.6 183.4Q102.9 183.7 103.6 183.8L103.6 183.8L104.6 184.1Q105.6 184.3 106.1 184.8Q106.5 185.3 106.5 186.0L106.5 186.0Q106.5 186.6 106.2 187.1Q105.8 187.6 105.2 187.9Q104.6 188.2 103.7 188.2ZM109.5 180.9L111.0 180.9L111.0 181.9L109.5 181.9L109.5 186.2Q109.5 186.6 109.7 186.9Q109.9 187.1 110.3 187.1L110.3 187.1Q110.5 187.1 110.6 187.0Q110.8 187.0 110.9 187.0L110.9 187.0L111.2 188.0Q111.0 188.0 110.8 188.1Q110.5 188.1 110.3 188.1L110.3 188.1Q109.4 188.1 108.9 187.6Q108.4 187.1 108.4 186.2L108.4 186.2L108.4 181.9L107.3 181.9L107.3 180.9L108.4 180.9L108.4 179.2L109.5 179.2L109.5 180.9Z "/></g><mask id="satori_om-id-4-1"><rect x="400" y="174" width="184" height="17" fill="#fff"/></mask><g  ><path fill="#22c55e" d="M402.9 177.8L405.1 177.8L405.1 188L403.0 188L403.0 179.7L403.0 179.7L400.6 181.3L400.6 179.4L402.9 177.8ZM414.1 188L406.9 188L406.9 186.5L410.5 183.1Q411.0 182.7 411.3 182.3Q411.6 181.9 411.8 181.6Q411.9 181.2 411.9 180.8L411.9 180.8Q411.9 180.4 411.7 180.0Q411.5 179.7 411.2 179.5Q410.8 179.3 410.3 179.3L410.3 179.3Q409.9 179.3 409.5 179.5Q409.2 179.7 409.0 180.1Q408.8 180.4 408.8 180.9L408.8 180.9L406.8 180.9Q406.8 179.9 407.2 179.2Q407.7 178.5 408.5 178.1Q409.3 177.7 410.4 177.7L410.4 177.7Q411.4 177.7 412.3 178.1Q413.1 178.5 413.5 179.1Q414.0 179.8 414.0 180.7L414.0 180.7Q414.0 181.3 413.7 181.8Q413.5 182.4 412.9 183.0Q412.4 183.7 411.3 184.7L411.3 184.7L409.8 186.2L409.8 186.3L414.1 186.3L414.1 188ZM417.2 188.1L417.2 188.1Q416.7 188.1 416.4 187.8Q416.0 187.5 416.0 187.0L416.0 187.0Q416.0 186.5 416.4 186.1Q416.7 185.8 417.2 185.8L417.2 185.8Q417.7 185.8 418.0 186.1Q418.4 186.5 418.4 187.0L418.4 187.0Q418.4 187.5 418.0 187.8Q417.7 188.1 417.2 188.1ZM421.2 177.8L423.4 177.8L423.4 188L421.3 188L421.3 179.7L421.2 179.7L418.9 181.3L418.9 179.4L421.2 177.8Z "/></g><mask id="satori_om-id-4-2"><rect x="584" y="174" width="184" height="17" fill="#fff"/></mask><g  ><path fill="#ef4444" d="M592.1 188L584.8 188L584.8 186.5L588.5 183.1Q588.9 182.7 589.2 182.3Q589.6 181.9 589.7 181.6Q589.9 181.2 589.9 180.8L589.9 180.8Q589.9 180.4 589.7 180.0Q589.5 179.7 589.1 179.5Q588.8 179.3 588.3 179.3L588.3 179.3Q587.8 179.3 587.5 179.5Q587.1 179.7 586.9 180.1Q586.7 180.4 586.7 180.9L586.7 180.9L584.8 180.9Q584.8 179.9 585.2 179.2Q585.7 178.5 586.5 178.1Q587.3 177.7 588.3 177.7L588.3 177.7Q589.4 177.7 590.2 178.1Q591.0 178.5 591.5 179.1Q591.9 179.8 591.9 180.7L591.9 180.7Q591.9 181.3 591.7 181.8Q591.5 182.4 590.9 183.0Q590.3 183.7 589.3 184.7L589.3 184.7L587.7 186.2L587.7 186.3L592.1 186.3L592.1 188ZM597.2 188.2L597.2 188.2Q596.2 188.2 595.4 187.8Q594.6 187.4 594.1 186.7Q593.7 186.0 593.6 185.2L593.6 185.2L595.6 185.2Q595.8 185.7 596.2 186.0Q596.6 186.4 597.2 186.4L597.2 186.4Q597.8 186.4 598.3 186.0Q598.8 185.6 599.0 184.8Q599.2 184.1 599.2 183.1L599.2 183.1L599.2 183.1Q598.9 183.5 598.5 183.8Q598.2 184.2 597.7 184.3Q597.2 184.5 596.6 184.5L596.6 184.5Q595.7 184.5 595.0 184.1Q594.3 183.7 593.9 182.9Q593.5 182.2 593.5 181.2L593.5 181.2Q593.5 180.2 593.9 179.4Q594.4 178.6 595.3 178.1Q596.1 177.7 597.3 177.7L597.3 177.7Q598.0 177.7 598.7 177.9Q599.5 178.2 600.0 178.8Q600.6 179.3 600.9 180.3Q601.3 181.3 601.3 182.7L601.3 182.7Q601.3 184.0 601.0 185.0Q600.7 186.0 600.2 186.7Q599.6 187.4 598.9 187.8Q598.1 188.2 597.2 188.2ZM597.2 183.0L597.2 183.0Q597.6 183.0 597.9 182.8Q598.3 182.7 598.5 182.4Q598.7 182.2 598.9 181.9Q599.0 181.5 599.0 181.1L599.0 181.1Q599.0 180.7 598.8 180.2Q598.6 179.8 598.2 179.6Q597.8 179.3 597.3 179.3L597.3 179.3Q596.8 179.3 596.4 179.6Q596.0 179.8 595.7 180.2Q595.5 180.6 595.5 181.2L595.5 181.2Q595.5 181.7 595.7 182.1Q595.9 182.5 596.3 182.7Q596.7 183.0 597.2 183.0ZM603.8 188.1L603.8 188.1Q603.3 188.1 603.0 187.8Q602.7 187.5 602.7 187.0L602.7 187.0Q602.7 186.5 603.0 186.1Q603.3 185.8 603.8 185.8L603.8 185.8Q604.3 185.8 604.7 186.1Q605.0 186.5 605.0 187.0L605.0 187.0Q605.0 187.5 604.7 187.8Q604.3 188.1 603.8 188.1ZM610.3 188.1L610.3 188.1Q609.2 188.1 608.3 187.8Q607.4 187.4 606.9 186.7Q606.4 186.1 606.4 185.3L606.4 185.3Q606.4 184.6 606.7 184.1Q607.0 183.6 607.5 183.2Q608.0 182.8 608.6 182.7L608.6 182.7L608.6 182.7Q607.8 182.5 607.3 181.9Q606.8 181.2 606.8 180.4L606.8 180.4Q606.8 179.6 607.2 179.0Q607.7 178.4 608.5 178.0Q609.3 177.7 610.3 177.7L610.3 177.7Q611.4 177.7 612.2 178.0Q613.0 178.4 613.4 179.0Q613.9 179.6 613.9 180.4L613.9 180.4Q613.9 181.2 613.4 181.9Q612.9 182.5 612.1 182.7L612.1 182.7L612.1 182.7Q612.7 182.8 613.2 183.2Q613.7 183.6 614.0 184.1Q614.3 184.6 614.3 185.3L614.3 185.3Q614.3 186.1 613.8 186.7Q613.2 187.4 612.4 187.8Q611.5 188.1 610.3 188.1ZM610.3 186.6L610.3 186.6Q610.9 186.6 611.2 186.4Q611.6 186.2 611.9 185.9Q612.1 185.5 612.1 185.1L612.1 185.1Q612.1 184.7 611.8 184.3Q611.6 184.0 611.2 183.8Q610.8 183.6 610.3 183.6L610.3 183.6Q609.8 183.6 609.4 183.8Q609.0 184.0 608.8 184.3Q608.6 184.6 608.6 185.1L608.6 185.1Q608.6 185.5 608.8 185.9Q609.0 186.2 609.4 186.4Q609.8 186.6 610.3 186.6ZM610.3 182.0L610.3 182.0Q610.8 182.0 611.1 181.8Q611.4 181.7 611.6 181.4Q611.8 181.0 611.8 180.6L611.8 180.6Q611.8 180.2 611.6 179.9Q611.5 179.6 611.1 179.4Q610.8 179.3 610.3 179.3L610.3 179.3Q609.9 179.3 609.5 179.4Q609.2 179.6 609.0 179.9Q608.8 180.2 608.8 180.6L608.8 180.6Q608.8 181.0 609.0 181.4Q609.2 181.7 609.6 181.8Q609.9 182.0 610.3 182.0Z "/></g><defs><clipPath id="satori_bc-id-5"><rect x="32" y="202" width="736" height="38"/></clipPath></defs><mask id="satori_om-id-5"><rect x="32" y="202" width="736" height="37" fill="#fff"/><path width="736" height="38" fill="none" stroke="#000" stroke-width="2" d="M768,240 A0,0 0 0 1 768,240 h-736 A0,0 0 0 1 32,240"/></mask><path width="736" height="38" clip-path="url(#satori_bc-id-5)" fill="none" stroke="#1a1a1a" stroke-width="2" d="M768,240 A0,0 0 0 1 768,240 h-736 A0,0 0 0 1 32,240"/><mask id="satori_om-id-5-0"><rect x="32" y="213" width="368" height="16" fill="#fff"/></mask><g  ><path fill="#bbb" d="M33.6 226L32.3 226L35.8 216.5L37.2 216.5L40.6 226L39.4 226L38.4 223.4L34.5 223.4L33.6 226ZM34.9 222.3L38.0 222.3L37.4 220.4Q37.2 219.9 36.9 219.1L36.9 219.1Q36.7 218.4 36.5 217.5L36.5 217.5Q36.2 218.5 36.0 219.1L36.0 219.1Q35.7 219.9 35.6 220.4L35.6 220.4L34.9 222.3ZM43.1 226L42.0 226L42.0 218.9L43.1 218.9L43.1 220.0L43.2 220.0Q43.3 219.5 43.9 219.1Q44.4 218.8 45.0 218.8L45.0 218.8Q45.1 218.8 45.3 218.8Q45.5 218.8 45.6 218.8L45.6 218.8L45.6 220.0Q45.5 220.0 45.3 219.9Q45.1 219.9 44.9 219.9L44.9 219.9Q44.4 219.9 44.0 220.1Q43.6 220.3 43.3 220.7Q43.1 221.1 43.1 221.6L43.1 221.6L43.1 226ZM49.8 226.2L49.8 226.2Q48.8 226.2 48.1 225.7Q47.3 225.2 46.9 224.4Q46.5 223.6 46.5 222.5Q46.5 221.4 46.9 220.6Q47.3 219.8 48.0 219.3Q48.8 218.8 49.7 218.8L49.7 218.8Q50.3 218.8 50.8 219.0Q51.4 219.2 51.8 219.6Q52.3 220.0 52.5 220.7Q52.8 221.4 52.8 222.4L52.8 222.4L52.8 222.8L47.7 222.8Q47.7 223.5 48.0 224.0L48.0 224.0Q48.2 224.6 48.7 224.9Q49.2 225.1 49.9 225.1L49.9 225.1Q50.3 225.1 50.6 225.0Q51.0 224.9 51.2 224.7Q51.5 224.4 51.6 224.0L51.6 224.0L52.7 224.3Q52.5 224.9 52.1 225.3Q51.7 225.7 51.2 225.9Q50.6 226.2 49.8 226.2ZM47.7 221.9L47.7 221.9L51.6 221.9Q51.6 221.4 51.4 221.0L51.4 221.0Q51.2 220.4 50.8 220.1Q50.4 219.8 49.7 219.8Q49.1 219.8 48.6 220.1Q48.2 220.5 47.9 221.0L47.9 221.0Q47.7 221.4 47.7 221.9ZM56.4 226.2L56.4 226.2Q55.8 226.2 55.2 225.9Q54.7 225.7 54.3 225.2Q54.0 224.7 54.0 224.0L54.0 224.0Q54.0 223.4 54.3 223.0Q54.5 222.6 54.9 222.4Q55.3 222.2 55.8 222.1Q56.3 222.0 56.8 221.9L56.8 221.9Q57.4 221.8 57.8 221.8Q58.2 221.7 58.4 221.6Q58.6 221.5 58.6 221.2L58.6 221.2L58.6 221.2Q58.6 220.8 58.4 220.5Q58.3 220.1 57.9 220.0Q57.6 219.8 57.1 219.8L57.1 219.8Q56.6 219.8 56.2 220.0Q55.9 220.1 55.7 220.4Q55.4 220.6 55.3 220.9L55.3 220.9L54.2 220.5Q54.5 219.8 55.0 219.5Q55.4 219.1 56.0 219.0Q56.5 218.8 57.1 218.8L57.1 218.8Q57.4 218.8 57.9 218.9Q58.3 219.0 58.8 219.2Q59.2 219.5 59.5 220.0Q59.7 220.5 59.7 221.3L59.7 221.3L59.7 226L58.6 226L58.6 225.0L58.5 225.0Q58.4 225.3 58.2 225.5Q57.9 225.8 57.5 226.0Q57.0 226.2 56.4 226.2ZM56.6 225.2L56.6 225.2Q57.3 225.2 57.7 224.9Q58.1 224.7 58.4 224.3Q58.6 223.9 58.6 223.4L58.6 223.4L58.6 222.5Q58.5 222.5 58.3 222.6Q58.1 222.7 57.8 222.7Q57.5 222.8 57.2 222.8Q56.9 222.8 56.7 222.9L56.7 222.9Q56.3 222.9 56.0 223.0Q55.6 223.2 55.4 223.4Q55.2 223.6 55.2 224.0L55.2 224.0Q55.2 224.4 55.4 224.7Q55.5 224.9 55.9 225.0Q56.2 225.2 56.6 225.2Z M68.1 226L67.0 226L64.8 218.9L66.1 218.9L66.9 222.0Q67.1 222.6 67.3 223.4L67.3 223.4Q67.5 224.0 67.6 224.8L67.6 224.8Q67.7 224.1 67.9 223.5L67.9 223.5Q68.1 222.7 68.3 222.0L68.3 222.0L69.1 218.9L70.3 218.9L71.2 222.0Q71.4 222.7 71.6 223.5L71.6 223.5Q71.7 224.1 71.8 224.8L71.8 224.8Q72.0 224.1 72.1 223.5L72.1 223.5Q72.3 222.7 72.5 222.0L72.5 222.0L73.4 218.9L74.6 218.9L72.4 226L71.3 226L70.4 222.8Q70.2 222.3 70.1 221.8Q70.0 221.3 69.9 220.8L69.9 220.8Q69.8 220.5 69.7 220.2L69.7 220.2Q69.7 220.5 69.6 220.7L69.6 220.7Q69.5 221.3 69.3 221.8Q69.2 222.3 69.1 222.8L69.1 222.8L68.1 226ZM78.9 226.2L78.9 226.2Q78.0 226.2 77.2 225.7Q76.5 225.2 76.1 224.4Q75.7 223.6 75.7 222.5L75.7 222.5Q75.7 221.4 76.1 220.6Q76.5 219.7 77.2 219.3Q78.0 218.8 78.9 218.8L78.9 218.8Q79.9 218.8 80.6 219.3Q81.4 219.7 81.8 220.6Q82.2 221.4 82.2 222.5L82.2 222.5Q82.2 223.6 81.8 224.4Q81.4 225.2 80.6 225.7Q79.9 226.2 78.9 226.2ZM78.9 225.1L78.9 225.1Q79.6 225.1 80.1 224.8Q80.6 224.4 80.8 223.8Q81.0 223.2 81.0 222.5L81.0 222.5Q81.0 221.8 80.8 221.2Q80.6 220.6 80.1 220.2Q79.6 219.8 78.9 219.8L78.9 219.8Q78.2 219.8 77.8 220.2Q77.3 220.6 77.1 221.2Q76.9 221.8 76.9 222.5L76.9 222.5Q76.9 223.2 77.1 223.8Q77.3 224.4 77.8 224.8Q78.2 225.1 78.9 225.1ZM85.0 226L83.8 226L83.8 218.9L84.9 218.9L84.9 220.0L85.0 220.0Q85.2 219.5 85.7 219.1Q86.2 218.8 86.9 218.8L86.9 218.8Q87.0 218.8 87.2 218.8Q87.3 218.8 87.4 218.8L87.4 218.8L87.4 220.0Q87.4 220.0 87.2 219.9Q87.0 219.9 86.7 219.9L86.7 219.9Q86.2 219.9 85.8 220.1Q85.4 220.3 85.2 220.7Q85.0 221.1 85.0 221.6L85.0 221.6L85.0 226ZM91.1 226.2L91.1 226.2Q90.4 226.2 89.8 225.9Q89.3 225.7 88.9 225.3Q88.5 224.9 88.4 224.3L88.4 224.3L89.5 224.0Q89.6 224.6 90.1 224.9Q90.5 225.1 91.1 225.1L91.1 225.1Q91.9 225.1 92.3 224.8Q92.8 224.5 92.8 224.1L92.8 224.1Q92.8 223.7 92.5 223.5Q92.2 223.2 91.7 223.1L91.7 223.1L90.5 222.8Q89.6 222.6 89.1 222.1Q88.6 221.6 88.6 220.9L88.6 220.9Q88.6 220.3 89.0 219.8Q89.3 219.3 89.9 219.1Q90.5 218.8 91.3 218.8L91.3 218.8Q92.0 218.8 92.5 219.0Q93.0 219.3 93.3 219.6Q93.6 220.0 93.8 220.5L93.8 220.5L92.8 220.8Q92.6 220.4 92.3 220.1Q91.9 219.8 91.3 219.8L91.3 219.8Q90.6 219.8 90.2 220.1Q89.8 220.4 89.8 220.8L89.8 220.8Q89.8 221.2 90.1 221.4Q90.4 221.7 91.0 221.8L91.0 221.8L92.0 222.1Q93.0 222.3 93.5 222.8Q93.9 223.3 93.9 224.0L93.9 224.0Q93.9 224.6 93.6 225.1Q93.2 225.6 92.6 225.9Q92.0 226.2 91.1 226.2ZM96.9 218.9L98.4 218.9L98.4 219.9L96.9 219.9L96.9 224.2Q96.9 224.6 97.1 224.9Q97.3 225.1 97.8 225.1L97.8 225.1Q97.9 225.1 98.0 225.0Q98.2 225.0 98.3 225.0L98.3 225.0L98.6 226.0Q98.4 226.0 98.2 226.1Q98.0 226.1 97.7 226.1L97.7 226.1Q96.8 226.1 96.3 225.6Q95.8 225.1 95.8 224.2L95.8 224.2L95.8 219.9L94.7 219.9L94.7 218.9L95.8 218.9L95.8 217.2L96.9 217.2L96.9 218.9Z "/></g><mask id="satori_om-id-5-1"><rect x="400" y="212" width="184" height="17" fill="#fff"/></mask><g  ><path fill="#22c55e" d="M405.6 224.2L400.7 224.2L400.7 222.5L404.9 215.8L407.6 215.8L407.6 222.5L408.8 222.5L408.8 224.2L407.6 224.2L407.6 226L405.6 226L405.6 224.2ZM402.8 222.5L405.6 222.5L405.6 218.1L405.5 218.1L402.8 222.4L402.8 222.5ZM417.5 226L410.3 226L410.3 224.5L413.9 221.1Q414.4 220.7 414.7 220.3Q415.0 219.9 415.2 219.6Q415.4 219.2 415.4 218.8L415.4 218.8Q415.4 218.4 415.2 218.0Q415.0 217.7 414.6 217.5Q414.2 217.3 413.8 217.3L413.8 217.3Q413.3 217.3 413.0 217.5Q412.6 217.7 412.4 218.1Q412.2 218.4 412.2 218.9L412.2 218.9L410.2 218.9Q410.2 217.9 410.7 217.2Q411.1 216.5 411.9 216.1Q412.7 215.7 413.8 215.7L413.8 215.7Q414.9 215.7 415.7 216.1Q416.5 216.5 416.9 217.1Q417.4 217.8 417.4 218.7L417.4 218.7Q417.4 219.3 417.2 219.8Q416.9 220.4 416.4 221.0Q415.8 221.7 414.8 222.7L414.8 222.7L413.2 224.2L413.2 224.3L417.5 224.3L417.5 226ZM426.3 226L419.1 226L419.1 224.5L422.7 221.1Q423.2 220.7 423.5 220.3Q423.8 219.9 424.0 219.6Q424.2 219.2 424.2 218.8L424.2 218.8Q424.2 218.4 424.0 218.0Q423.8 217.7 423.4 217.5Q423.1 217.3 422.6 217.3L422.6 217.3Q422.1 217.3 421.8 217.5Q421.4 217.7 421.2 218.1Q421.0 218.4 421.0 218.9L421.0 218.9L419.0 218.9Q419.0 217.9 419.5 217.2Q419.9 216.5 420.8 216.1Q421.6 215.7 422.6 215.7L422.6 215.7Q423.7 215.7 424.5 216.1Q425.3 216.5 425.8 217.1Q426.2 217.8 426.2 218.7L426.2 218.7Q426.2 219.3 426.0 219.8Q425.8 220.4 425.2 221.0Q424.6 221.7 423.6 222.7L423.6 222.7L422.0 224.2L422.0 224.3L426.3 224.3L426.3 226ZM429.4 226.1L429.4 226.1Q428.9 226.1 428.6 225.8Q428.3 225.5 428.3 225.0L428.3 225.0Q428.3 224.5 428.6 224.1Q428.9 223.8 429.4 223.8L429.4 223.8Q429.9 223.8 430.3 224.1Q430.6 224.5 430.6 225.0L430.6 225.0Q430.6 225.5 430.3 225.8Q429.9 226.1 429.4 226.1ZM436.1 226.1L436.1 226.1Q434.8 226.1 433.9 225.5Q433.0 224.9 432.5 223.7Q432.0 222.6 432.0 220.9L432.0 220.9Q432.0 219.3 432.5 218.1Q433.0 216.9 433.9 216.3Q434.8 215.7 436.1 215.7L436.1 215.7Q437.4 215.7 438.3 216.3Q439.2 216.9 439.7 218.1Q440.2 219.3 440.2 220.9L440.2 220.9Q440.2 222.6 439.7 223.7Q439.2 224.9 438.3 225.5Q437.4 226.1 436.1 226.1ZM436.1 224.4L436.1 224.4Q436.7 224.4 437.1 224.0Q437.6 223.6 437.8 222.8Q438.0 222.0 438.0 220.9L438.0 220.9Q438.0 219.8 437.8 219.0Q437.6 218.2 437.1 217.8Q436.7 217.4 436.1 217.4L436.1 217.4Q435.5 217.4 435.0 217.8Q434.6 218.2 434.4 219.0Q434.1 219.8 434.1 220.9L434.1 220.9Q434.1 222.0 434.4 222.8Q434.6 223.6 435.0 224.0Q435.5 224.4 436.1 224.4Z "/></g><mask id="satori_om-id-5-2"><rect x="584" y="212" width="184" height="17" fill="#fff"/></mask><g  ><path fill="#ef4444" d="M592.1 226L584.8 226L584.8 224.5L588.5 221.1Q588.9 220.7 589.2 220.3Q589.6 219.9 589.7 219.6Q589.9 219.2 589.9 218.8L589.9 218.8Q589.9 218.4 589.7 218.0Q589.5 217.7 589.1 217.5Q588.8 217.3 588.3 217.3L588.3 217.3Q587.8 217.3 587.5 217.5Q587.1 217.7 586.9 218.1Q586.7 218.4 586.7 218.9L586.7 218.9L584.8 218.9Q584.8 217.9 585.2 217.2Q585.7 216.5 586.5 216.1Q587.3 215.7 588.3 215.7L588.3 215.7Q589.4 215.7 590.2 216.1Q591.0 216.5 591.5 217.1Q591.9 217.8 591.9 218.7L591.9 218.7Q591.9 219.3 591.7 219.8Q591.5 220.4 590.9 221.0Q590.3 221.7 589.3 222.7L589.3 222.7L587.7 224.2L587.7 224.3L592.1 224.3L592.1 226ZM597.1 226.1L597.1 226.1Q596.1 226.1 595.2 225.8Q594.4 225.4 594.0 224.7Q593.5 224.0 593.5 223.1L593.5 223.1L595.5 223.1Q595.5 223.5 595.7 223.8Q596.0 224.1 596.3 224.3Q596.7 224.5 597.1 224.5L597.1 224.5Q597.6 224.5 598.0 224.3Q598.4 224.0 598.6 223.6Q598.9 223.2 598.9 222.7L598.9 222.7Q598.9 222.1 598.6 221.7Q598.4 221.3 598.0 221.1Q597.6 220.8 597.1 220.8L597.1 220.8Q596.6 220.8 596.2 221.0Q595.8 221.2 595.5 221.5L595.5 221.5L593.7 221.2L594.2 215.8L600.3 215.8L600.3 217.5L595.9 217.5L595.6 220.1L595.7 220.1Q596.0 219.7 596.5 219.5Q597.0 219.3 597.7 219.3L597.7 219.3Q598.4 219.3 599.0 219.5Q599.5 219.8 600.0 220.2Q600.4 220.7 600.6 221.3Q600.9 221.9 600.9 222.6L600.9 222.6Q600.9 223.6 600.4 224.4Q599.9 225.2 599.1 225.7Q598.2 226.1 597.1 226.1ZM606.2 226.1L606.2 226.1Q605.0 226.1 604.0 225.5Q603.1 224.9 602.7 223.7Q602.2 222.6 602.2 220.9L602.2 220.9Q602.2 219.3 602.7 218.1Q603.1 216.9 604.0 216.3Q605.0 215.7 606.2 215.7L606.2 215.7Q607.5 215.7 608.4 216.3Q609.4 216.9 609.8 218.1Q610.3 219.3 610.3 220.9L610.3 220.9Q610.3 222.6 609.8 223.7Q609.4 224.9 608.4 225.5Q607.5 226.1 606.2 226.1ZM606.2 224.4L606.2 224.4Q606.9 224.4 607.3 224.0Q607.7 223.6 608.0 222.8Q608.2 222.0 608.2 220.9L608.2 220.9Q608.2 219.8 608.0 219.0Q607.7 218.2 607.3 217.8Q606.9 217.4 606.2 217.4L606.2 217.4Q605.6 217.4 605.2 217.8Q604.7 218.2 604.5 219.0Q604.3 219.8 604.3 220.9L604.3 220.9Q604.3 222.0 604.5 222.8Q604.7 223.6 605.2 224.0Q605.6 224.4 606.2 224.4ZM613.9 215.8L616.1 215.8L616.1 226L614.0 226L614.0 217.7L613.9 217.7L611.6 219.3L611.6 217.4L613.9 215.8ZM619.3 226.1L619.3 226.1Q618.8 226.1 618.5 225.8Q618.2 225.5 618.2 225.0L618.2 225.0Q618.2 224.5 618.5 224.1Q618.8 223.8 619.3 223.8L619.3 223.8Q619.8 223.8 620.2 224.1Q620.5 224.5 620.5 225.0L620.5 225.0Q620.5 225.5 620.2 225.8Q619.8 226.1 619.3 226.1ZM626.0 226.1L626.0 226.1Q624.7 226.1 623.8 225.5Q622.9 224.9 622.4 223.7Q621.9 222.6 621.9 220.9L621.9 220.9Q621.9 219.3 622.4 218.1Q622.9 216.9 623.8 216.3Q624.7 215.7 626.0 215.7L626.0 215.7Q627.3 215.7 628.2 216.3Q629.1 216.9 629.6 218.1Q630.1 219.3 630.1 220.9L630.1 220.9Q630.1 222.6 629.6 223.7Q629.1 224.9 628.2 225.5Q627.3 226.1 626.0 226.1ZM626.0 224.4L626.0 224.4Q626.6 224.4 627.0 224.0Q627.5 223.6 627.7 222.8Q627.9 222.0 627.9 220.9L627.9 220.9Q627.9 219.8 627.7 219.0Q627.5 218.2 627.0 217.8Q626.6 217.4 626.0 217.4L626.0 217.4Q625.4 217.4 624.9 217.8Q624.5 218.2 624.3 219.0Q624.0 219.8 624.0 220.9L624.0 220.9Q624.0 222.0 624.3 222.8Q624.5 223.6 624.9 224.0Q625.4 224.4 626.0 224.4Z "/></g></svg>