<!-- Generated by readme-aura https://github.com/collectioneur/readme-aura -->
<svg width="800" height="360" viewBox="0 0 800 360" xmlns="http://www.w3.org/2000/svg"><clipPath id="satori_cp-id"><path x="0" y="0" width="800" height="360" d="M20,0 h760 a20,20 0 0 1 20,20 v320 a20,20 0 0 1 -20,20 h-760 a20,20 0 0 1 -20,-20 v-320 a20,20 0 0 1 20,-20"/></clipPath><mask id="satori_om-id"><rect x="0" y="0" width="800" height="360" fill="#fff"/></mask><path x="0" y="0" width="800" height="360" fill="#08080d" d="M20,0 h760 a20,20 0 0 1 20,20 v320 a20,20 0 0 1 -20,20 h-760 a20,20 0 0 1 -20,-20 v-320 a20,20 0 0 1 20,-20"/><clipPath id="satori_cp-id-0" clip-path="url(#satori_cp-id)"><rect x="0" y="0" width="800" height="360"/></clipPath><mask id="satori_om-id-0"><rect x="0" y="0" width="800" height="360" fill="#fff" mask="url(#satori_om-id)"/></mask><svg x="0" y="0" width="800" height="360" preserveAspectRatio="none" clip-path="url(#satori_cp-id-0)" mask="url(#satori_om-id-0)"><defs><radialGradient id="hg1" cx="50%" cy="50%" r="50%"><stop offset="0%" stop-color="rgba(108,195,130,0.55)"></stop><stop offset="100%" stop-color="rgba(108,195,130,0)"></stop></radialGradient><radialGradient id="hg2" cx="50%" cy="50%" r="50%"><stop offset="0%" stop-color="rgba(230,100,115,0.5)"></stop><stop offset="100%" stop-color="rgba(230,100,115,0)"></stop></radialGradient><radialGradient id="hg3" cx="50%" cy="50%" r="50%"><stop offset="0%" stop-color="rgba(195,155,255,0.35)"></stop><stop offset="100%" stop-color="rgba(195,155,255,0)"></stop></radialGradient><radialGradient id="hg4" cx="50%" cy="50%" r="50%"><stop offset="0%" stop-color="rgba(255,195,110,0.28)"></stop><stop offset="100%" stop-color="rgba(255,195,110,0)"></stop></radialGradient><radialGradient id="hg5" cx="50%" cy="50%" r="50%"><stop offset="0%" stop-color="rgba(80,160,220,0.3)"></stop><stop offset="100%" stop-color="rgba(80,160,220,0)"></stop></radialGradient></defs><ellipse id="hero-o1" cx="110" cy="310" rx="260" ry="200" fill="url(#hg1)"></ellipse><ellipse id="hero-o2" cx="710" cy="70" rx="230" ry="190" fill="url(#hg2)"></ellipse><ellipse id="hero-o3" cx="620" cy="330" rx="200" ry="160" fill="url(#hg3)"></ellipse><ellipse id="hero-o4" cx="200" cy="55" rx="190" ry="150" fill="url(#hg4)"></ellipse><ellipse id="hero-o5" cx="400" cy="340" rx="170" ry="130" fill="url(#hg5)"></ellipse><circle id="hr1" cx="400" cy="178" r="52" fill="none" stroke="rgba(255,255,255,0.9)" stroke-width="0.7"></circle><circle id="hr2" cx="400" cy="178" r="92" fill="none" stroke="rgba(255,255,255,0.9)" stroke-width="0.7"></circle><circle id="hr3" cx="400" cy="178" r="138" fill="none" stroke="rgba(255,255,255,0.9)" stroke-width="0.7"></circle><circle id="hr4" cx="400" cy="178" r="192" fill="none" stroke="rgba(255,255,255,0.9)" stroke-width="0.7"></circle><circle id="hr5" cx="400" cy="178" r="256" fill="none" stroke="rgba(255,255,255,0.9)" stroke-width="0.7"></circle><g id="hero-dot"><circle cx="400" cy="126" r="2.5" fill="rgba(255,255,255,0.5)"></circle></g><style>

    @keyframes orb-a { 0%, 100% { transform: translate(0, 0); opacity: 0.6; } 50% { transform: translate(28px, -22px); opacity: 0.9; } }
    @keyframes orb-b { 0%, 100% { transform: translate(0, 0); opacity: 0.5; } 50% { transform: translate(-22px, 18px); opacity: 0.75; } }
    @keyframes orb-c { 0%, 100% { transform: translate(0, 0); opacity: 0.35; } 50% { transform: translate(16px, -28px); opacity: 0.6; } }
    @keyframes ring-blink { 0%, 100% { opacity: 0.06; } 50% { opacity: 0.18; } }
    @keyframes ring-blink-b { 0%, 100% { opacity: 0.04; } 50% { opacity: 0.12; } }
    @keyframes dot-spin { 0% { transform: rotate(0deg); } 100% { transform: rotate(360deg); } }
    #hero-o1 { animation: orb-a 9s ease-in-out infinite; }
    #hero-o2 { animation: orb-b 11s ease-in-out infinite 0.8s; }
    #hero-o3 { animation: orb-a 8s ease-in-out infinite 2s; }
    #hero-o4 { animation: orb-b 13s ease-in-out infinite 0.4s; }
    #hero-o5 { animation: orb-c 7s ease-in-out infinite 1.2s; }
    #hr1 { animation: ring-blink 8s ease-in-out infinite; }
    #hr2 { animation: ring-blink 8s ease-in-out infinite 1.4s; }
    #hr3 { animation: ring-blink-b 8s ease-in-out infinite 2.8s; }
    #hr4 { animation: ring-blink-b 8s ease-in-out infinite 4.2s; }
    #hr5 { animation: ring-blink-b 10s ease-in-out infinite 5.6s; }
    #hero-dot { animation: dot-spin 20s linear infinite; }
  
</style>
</svg><mask id="satori_om-id-0-0"><rect x="0" y="0" width="0" height="360" fill="#fff" mask="url(#satori_om-id)"/></mask><mask id="satori_om-id-0-0-0"><rect x="0" y="0" width="0" height="360" fill="#fff" mask="url(#satori_om-id)"/></mask><mask id="satori_om-id-0-0-0-0"><rect x="0" y="0" width="0" height="360" fill="#fff" mask="url(#satori_om-id)"/></mask><mask id="satori_om-id-0-0-0-1"><rect x="0" y="0" width="0" height="360" fill="#fff" mask="url(#satori_om-id)"/></mask><mask id="satori_om-id-0-0-1"><rect x="0" y="0" width="0" height="360" fill="#fff" mask="url(#satori_om-id)"/></mask><mask id="satori_om-id-0-0-1-0"><rect x="0" y="0" width="0" height="360" fill="#fff" mask="url(#satori_om-id)"/></mask><mask id="satori_om-id-0-0-1-1"><rect x="0" y="0" width="0" height="360" fill="#fff" mask="url(#satori_om-id)"/></mask><mask id="satori_om-id-0-0-2"><rect x="0" y="0" width="0" height="360" fill="#fff" mask="url(#satori_om-id)"/></mask><mask id="satori_om-id-0-0-2-0"><rect x="0" y="0" width="0" height="360" fill="#fff" mask="url(#satori_om-id)"/></mask><mask id="satori_om-id-0-0-2-1"><rect x="0" y="0" width="0" height="360" fill="#fff" mask="url(#satori_om-id)"/></mask><mask id="satori_om-id-0-0-3"><rect x="0" y="0" width="0" height="360" fill="#fff" mask="url(#satori_om-id)"/></mask><mask id="satori_om-id-0-0-3-0"><rect x="0" y="0" width="0" height="360" fill="#fff" mask="url(#satori_om-id)"/></mask><mask id="satori_om-id-0-0-3-1"><rect x="0" y="0" width="0" height="360" fill="#fff" mask="url(#satori_om-id)"/></mask><mask id="satori_om-id-0-0-4"><rect x="0" y="0" width="0" height="360" fill="#fff" mask="url(#satori_om-id)"/></mask><mask id="satori_om-id-0-0-4-0"><rect x="0" y="0" width="0" height="360" fill="#fff" mask="url(#satori_om-id)"/></mask><mask id="satori_om-id-0-0-4-1"><rect x="0" y="0" width="0" height="360" fill="#fff" mask="url(#satori_om-id)"/></mask><mask id="satori_om-id-0-1"><rect x="0" y="0" width="0" height="360" fill="#fff" mask="url(#satori_om-id)"/></mask><mask id="satori_om-id-0-2"><rect x="0" y="0" width="0" height="360" fill="#fff" mask="url(#satori_om-id)"/></mask><mask id="satori_om-id-0-3"><rect x="0" y="0" width="0" height="360" fill="#fff" mask="url(#satori_om-id)"/></mask><mask id="satori_om-id-0-4"><rect x="0" y="0" width="0" height="360" fill="#fff" mask="url(#satori_om-id)"/></mask><mask id="satori_om-id-0-5"><rect x="0" y="0" width="0" height="360" fill="#fff" mask="url(#satori_om-id)"/></mask><mask id="satori_om-id-0-6"><rect x="0" y="0" width="0" height="360" fill="#fff" mask="url(#satori_om-id)"/></mask><mask id="satori_om-id-0-7"><rect x="0" y="0" width="0" height="360" fill="#fff" mask="url(#satori_om-id)"/></mask><mask id="satori_om-id-0-8"><rect x="0" y="0" width="0" height="360" fill="#fff" mask="url(#satori_om-id)"/></mask><mask id="satori_om-id-0-9"><rect x="0" y="0" width="0" height="360" fill="#fff" mask="url(#satori_om-id)"/></mask><mask id="satori_om-id-0-10"><rect x="0" y="0" width="0" height="360" fill="#fff" mask="url(#satori_om-id)"/></mask><mask id="satori_om-id-0-11"><rect x="0" y="0" width="0" height="360" fill="#fff" mask="url(#satori_om-id)"/></mask><mask id="satori_om-id-0-11-0"><rect x="0" y="0" width="0" height="360" fill="#fff" mask="url(#satori_om-id)"/></mask><mask id="satori_om-id-1"><rect x="216" y="107" width="369" height="147" fill="#fff" mask="url(#satori_om-id)"/></mask><mask id="satori_om-id-1-0"><rect x="216" y="107" width="369" height="60" fill="#fff" mask="url(#satori_om-id)"/></mask><g mask="url(#satori_om-id)" clip-path="url(#satori_cp-id)"><path fill="#ffffff" d="M228.9 159.6L228.9 159.6Q225.8 159.6 223.3 158.5Q220.8 157.4 219.4 155.3Q218.0 153.1 218.0 149.8L218.0 149.8Q218.0 147.1 219.0 145.3Q220.0 143.4 221.8 142.3Q223.5 141.2 225.7 140.6Q227.9 140.0 230.4 139.8L230.4 139.8Q233.2 139.5 234.9 139.2Q236.7 139.0 237.5 138.4Q238.3 137.9 238.3 136.9L238.3 136.9L238.3 136.7Q238.3 135.3 237.7 134.3Q237.1 133.4 236.0 132.9Q234.8 132.3 233.2 132.3L233.2 132.3Q231.5 132.3 230.2 132.9Q228.9 133.4 228.2 134.2Q227.4 135.1 227.0 136.1L227.0 136.1L218.9 134.8Q219.8 131.9 221.7 129.9Q223.7 127.9 226.6 126.9Q229.5 125.8 233.2 125.8L233.2 125.8Q235.8 125.8 238.3 126.5Q240.8 127.1 242.8 128.4Q244.8 129.7 245.9 131.9Q247.1 134.0 247.1 136.9L247.1 136.9L247.1 159L238.8 159L238.8 154.5L238.5 154.5Q237.7 156.0 236.4 157.1Q235.0 158.3 233.2 159.0Q231.3 159.6 228.9 159.6ZM231.4 153.5L231.4 153.5Q233.5 153.5 235.0 152.6Q236.6 151.8 237.5 150.4Q238.4 149.0 238.4 147.3L238.4 147.3L238.4 143.7Q238.0 144.0 237.2 144.3Q236.4 144.5 235.4 144.7Q234.5 144.8 233.5 145.0Q232.6 145.1 231.8 145.2L231.8 145.2Q230.2 145.5 229.0 146.0Q227.8 146.5 227.1 147.4Q226.4 148.2 226.4 149.6L226.4 149.6Q226.4 150.9 227.1 151.7Q227.7 152.6 228.8 153.0Q229.9 153.5 231.4 153.5ZM252.6 115.3L261.4 115.3L261.4 159L252.6 159L252.6 115.3ZM275.6 159L266.8 159L266.8 126.2L275.6 126.2L275.6 159ZM271.2 122.0L271.2 122.0Q269.2 122.0 267.8 120.7Q266.4 119.3 266.4 117.5L266.4 117.5Q266.4 115.6 267.8 114.3Q269.2 112.9 271.2 112.9L271.2 112.9Q273.2 112.9 274.7 114.2Q276.1 115.6 276.1 117.5L276.1 117.5Q276.1 119.3 274.7 120.7Q273.2 122.0 271.2 122.0ZM289.9 159L281.1 159L281.1 126.2L289.9 126.2L289.9 159ZM285.5 122.0L285.5 122.0Q283.5 122.0 282.1 120.7Q280.7 119.3 280.7 117.5L280.7 117.5Q280.7 115.6 282.1 114.3Q283.5 112.9 285.5 112.9L285.5 112.9Q287.5 112.9 288.9 114.2Q290.3 115.6 290.3 117.5L290.3 117.5Q290.3 119.3 288.9 120.7Q287.5 122.0 285.5 122.0ZM304.5 159.6L304.5 159.6Q301.4 159.6 298.9 158.5Q296.4 157.4 295.0 155.3Q293.6 153.1 293.6 149.8L293.6 149.8Q293.6 147.1 294.6 145.3Q295.6 143.4 297.4 142.3Q299.1 141.2 301.3 140.6Q303.5 140.0 306.0 139.8L306.0 139.8Q308.8 139.5 310.6 139.2Q312.3 139.0 313.1 138.4Q313.9 137.9 313.9 136.9L313.9 136.9L313.9 136.7Q313.9 135.3 313.3 134.3Q312.7 133.4 311.6 132.9Q310.4 132.3 308.8 132.3L308.8 132.3Q307.1 132.3 305.8 132.9Q304.6 133.4 303.8 134.2Q303.0 135.1 302.6 136.1L302.6 136.1L294.5 134.8Q295.4 131.9 297.4 129.9Q299.3 127.9 302.2 126.9Q305.1 125.8 308.8 125.8L308.8 125.8Q311.4 125.8 313.9 126.5Q316.4 127.1 318.4 128.4Q320.4 129.7 321.5 131.9Q322.7 134.0 322.7 136.9L322.7 136.9L322.7 159L314.4 159L314.4 154.5L314.1 154.5Q313.3 156.0 312.0 157.1Q310.7 158.3 308.8 159.0Q306.9 159.6 304.5 159.6ZM307.0 153.5L307.0 153.5Q309.1 153.5 310.6 152.6Q312.2 151.8 313.1 150.4Q314.0 149.0 314.0 147.3L314.0 147.3L314.0 143.7Q313.6 144.0 312.8 144.3Q312.0 144.5 311.0 144.7Q310.1 144.8 309.1 145.0Q308.2 145.1 307.5 145.2L307.5 145.2Q305.9 145.5 304.6 146.0Q303.4 146.5 302.7 147.4Q302.0 148.2 302.0 149.6L302.0 149.6Q302.0 150.9 302.7 151.7Q303.3 152.6 304.4 153.0Q305.6 153.5 307.0 153.5ZM337.0 159L328.2 159L328.2 115.3L337.0 115.3L337.0 138.8L337.5 138.8L348.2 126.2L358.4 126.2L346.1 140.5L359.0 159L348.6 159L339.5 145.7L337.0 148.5L337.0 159ZM379.3 159.6L379.3 159.6Q376.7 159.6 374.8 158.6Q373.0 157.7 371.8 156.4Q370.7 155.1 370.1 153.8L370.1 153.8L369.6 153.8L369.6 159L361.0 159L361.0 115.3L369.8 115.3L369.8 131.8L370.1 131.8Q370.7 130.5 371.8 129.1Q372.9 127.7 374.8 126.8Q376.6 125.8 379.4 125.8L379.4 125.8Q383.0 125.8 386.1 127.7Q389.1 129.6 390.9 133.3Q392.7 137.1 392.7 142.7L392.7 142.7Q392.7 148.1 390.9 151.9Q389.2 155.7 386.1 157.6Q383.1 159.6 379.3 159.6ZM376.6 152.5L376.6 152.5Q378.9 152.5 380.5 151.2Q382.1 150.0 382.9 147.8Q383.7 145.5 383.7 142.7L383.7 142.7Q383.7 139.8 382.9 137.6Q382.1 135.4 380.5 134.1Q379.0 132.9 376.6 132.9L376.6 132.9Q374.4 132.9 372.8 134.1Q371.2 135.3 370.4 137.5Q369.6 139.7 369.6 142.7L369.6 142.7Q369.6 145.6 370.4 147.8Q371.3 150.0 372.8 151.3Q374.4 152.5 376.6 152.5ZM406.0 159.6L406.0 159.6Q402.9 159.6 400.4 158.5Q397.9 157.4 396.5 155.3Q395.1 153.1 395.1 149.8L395.1 149.8Q395.1 147.1 396.1 145.3Q397.1 143.4 398.8 142.3Q400.6 141.2 402.8 140.6Q405.0 140.0 407.4 139.8L407.4 139.8Q410.3 139.5 412.0 139.2Q413.8 139.0 414.6 138.4Q415.4 137.9 415.4 136.9L415.4 136.9L415.4 136.7Q415.4 135.3 414.8 134.3Q414.2 133.4 413.0 132.9Q411.9 132.3 410.2 132.3L410.2 132.3Q408.5 132.3 407.3 132.9Q406.0 133.4 405.2 134.2Q404.4 135.1 404.1 136.1L404.1 136.1L396.0 134.8Q396.9 131.9 398.8 129.9Q400.8 127.9 403.7 126.9Q406.6 125.8 410.3 125.8L410.3 125.8Q412.9 125.8 415.4 126.5Q417.9 127.1 419.9 128.4Q421.8 129.7 423.0 131.9Q424.2 134.0 424.2 136.9L424.2 136.9L424.2 159L415.8 159L415.8 154.5L415.5 154.5Q414.8 156.0 413.4 157.1Q412.1 158.3 410.3 159.0Q408.4 159.6 406.0 159.6ZM408.5 153.5L408.5 153.5Q410.5 153.5 412.1 152.6Q413.7 151.8 414.5 150.4Q415.4 149.0 415.4 147.3L415.4 147.3L415.4 143.7Q415.0 144.0 414.3 144.3Q413.5 144.5 412.5 144.7Q411.5 144.8 410.6 145.0Q409.7 145.1 408.9 145.2L408.9 145.2Q407.3 145.5 406.1 146.0Q404.9 146.5 404.2 147.4Q403.5 148.2 403.5 149.6L403.5 149.6Q403.5 150.9 404.1 151.7Q404.8 152.6 405.9 153.0Q407.0 153.5 408.5 153.5ZM438.4 159L429.7 159L429.7 126.2L438.2 126.2L438.2 132.0L438.5 132.0Q439.4 128.9 441.5 127.4Q443.7 125.8 446.4 125.8L446.4 125.8Q447.1 125.8 447.9 125.9Q448.7 126.0 449.3 126.1L449.3 126.1L449.3 134.0Q448.7 133.7 447.6 133.6Q446.4 133.5 445.4 133.5L445.4 133.5Q443.5 133.5 441.8 134.4Q440.2 135.2 439.3 136.8Q438.4 138.3 438.4 140.4L438.4 140.4L438.4 159ZM460.9 159L452.1 159L452.1 115.3L460.9 115.3L460.9 138.8L461.4 138.8L472.1 126.2L482.3 126.2L470.0 140.5L482.9 159L472.5 159L463.4 145.7L460.9 148.5L460.9 159ZM493.7 140.0L493.7 140.0L493.7 159L484.9 159L484.9 115.3L493.5 115.3L493.5 132.5Q494.7 129.8 496.7 128.1L496.7 128.1Q499.3 125.8 503.5 125.8L503.5 125.8Q506.9 125.8 509.4 127.3Q512.0 128.8 513.4 131.6Q514.8 134.3 514.8 138.2L514.8 138.2L514.8 159L506.0 159L506.0 139.7Q506.0 136.6 504.4 134.9Q502.8 133.2 500.0 133.2L500.0 133.2Q498.2 133.2 496.7 134.0Q495.3 134.8 494.5 136.3Q493.7 137.8 493.7 140.0ZM529.4 159.6L529.4 159.6Q526.3 159.6 523.8 158.5Q521.3 157.4 519.9 155.3Q518.5 153.1 518.5 149.8L518.5 149.8Q518.5 147.1 519.5 145.3Q520.5 143.4 522.3 142.3Q524 141.2 526.2 140.6Q528.4 140.0 530.9 139.8L530.9 139.8Q533.7 139.5 535.4 139.2Q537.2 139.0 538.0 138.4Q538.8 137.9 538.8 136.9L538.8 136.9L538.8 136.7Q538.8 135.3 538.2 134.3Q537.6 133.4 536.5 132.9Q535.3 132.3 533.7 132.3L533.7 132.3Q532.0 132.3 530.7 132.9Q529.4 133.4 528.7 134.2Q527.9 135.1 527.5 136.1L527.5 136.1L519.4 134.8Q520.3 131.9 522.2 129.9Q524.2 127.9 527.1 126.9Q530.0 125.8 533.7 125.8L533.7 125.8Q536.3 125.8 538.8 126.5Q541.3 127.1 543.3 128.4Q545.3 129.7 546.4 131.9Q547.6 134.0 547.6 136.9L547.6 136.9L547.6 159L539.3 159L539.3 154.5L539.0 154.5Q538.2 156.0 536.9 157.1Q535.5 158.3 533.7 159.0Q531.8 159.6 529.4 159.6ZM531.9 153.5L531.9 153.5Q534.0 153.5 535.5 152.6Q537.1 151.8 538.0 150.4Q538.9 149.0 538.9 147.3L538.9 147.3L538.9 143.7Q538.5 144.0 537.7 144.3Q536.9 144.5 535.9 144.7Q535.0 144.8 534.0 145.0Q533.1 145.1 532.3 145.2L532.3 145.2Q530.7 145.5 529.5 146.0Q528.3 146.5 527.6 147.4Q526.9 148.2 526.9 149.6L526.9 149.6Q526.9 150.9 527.6 151.7Q528.2 152.6 529.3 153.0Q530.4 153.5 531.9 153.5ZM561.9 140.0L561.9 140.0L561.9 159L553.1 159L553.1 126.2L561.4 126.2L561.5 133.0Q562.8 129.9 564.9 128.1L564.9 128.1Q567.5 125.8 571.7 125.8L571.7 125.8Q575.1 125.8 577.6 127.3Q580.2 128.8 581.5 131.6Q582.9 134.3 582.9 138.2L582.9 138.2L582.9 159L574.1 159L574.1 139.7Q574.1 136.6 572.6 134.9Q571.0 133.2 568.2 133.2L568.2 133.2Q566.4 133.2 564.9 134.0Q563.5 134.8 562.7 136.3Q561.9 137.8 561.9 140.0Z "/></g><mask id="satori_om-id-1-1"><rect x="266" y="183" width="269" height="16" fill="#fff" mask="url(#satori_om-id)"/></mask><g mask="url(#satori_om-id)" clip-path="url(#satori_cp-id)"><path fill="rgba(255,255,255,0.4)" d="M270.1 196L270.1 196L267.1 196L267.1 186.5L270.2 186.5Q271.6 186.5 272.6 187.1Q273.6 187.7 274.1 188.7Q274.6 189.8 274.6 191.3L274.6 191.3Q274.6 192.7 274.1 193.8Q273.6 194.9 272.5 195.4Q271.5 196 270.1 196ZM268.3 187.6L268.3 194.9L270.0 194.9Q271.2 194.9 271.9 194.5Q272.7 194.1 273.1 193.2Q273.4 192.4 273.4 191.3L273.4 191.3Q273.4 190.1 273.1 189.3Q272.7 188.5 272.0 188.0Q271.2 187.6 270.1 187.6L270.1 187.6L268.3 187.6ZM287.3 196L281.5 196L281.5 186.5L287.3 186.5L287.3 187.6L282.7 187.6L282.7 190.7L287.0 190.7L287.0 191.8L282.7 191.8L282.7 194.9L287.3 194.9L287.3 196ZM297.4 196.2L297.4 196.2Q296.3 196.2 295.6 195.8Q294.8 195.5 294.4 194.9Q294.0 194.3 293.9 193.5L293.9 193.5L295.2 193.5Q295.2 194.1 295.5 194.4Q295.8 194.7 296.3 194.9Q296.8 195.1 297.4 195.1L297.4 195.1Q298.0 195.1 298.5 194.9Q299.0 194.7 299.3 194.3Q299.6 193.9 299.6 193.4L299.6 193.4Q299.6 192.9 299.4 192.7Q299.1 192.4 298.7 192.2Q298.3 192.0 297.8 191.9L297.8 191.9L296.6 191.5Q295.5 191.2 294.8 190.6Q294.2 190.0 294.2 189.1L294.2 189.1Q294.2 188.3 294.6 187.7Q295.1 187.1 295.8 186.7Q296.5 186.4 297.4 186.4L297.4 186.4Q298.4 186.4 299.1 186.7Q299.8 187.1 300.2 187.6Q300.6 188.2 300.7 188.9L300.7 188.9L299.5 188.9Q299.4 188.2 298.8 187.9Q298.3 187.5 297.4 187.5L297.4 187.5Q296.8 187.5 296.3 187.7Q295.9 187.9 295.6 188.2Q295.4 188.6 295.4 189.0L295.4 189.0Q295.4 189.5 295.7 189.8Q296.0 190.1 296.4 190.3Q296.8 190.5 297.2 190.5L297.2 190.5L298.1 190.8Q298.5 190.9 299.0 191.1Q299.4 191.3 299.8 191.6Q300.3 191.9 300.5 192.3Q300.8 192.8 300.8 193.4L300.8 193.4Q300.8 194.2 300.4 194.8Q300.0 195.4 299.2 195.8Q298.5 196.2 297.4 196.2ZM307.7 186.5L308.9 186.5L308.9 196L307.7 196L307.7 186.5ZM320.0 196.1L320.0 196.1Q318.8 196.1 317.8 195.5Q316.9 194.9 316.3 193.9Q315.8 192.8 315.8 191.3L315.8 191.3Q315.8 189.8 316.3 188.7Q316.9 187.6 317.8 187.0Q318.7 186.4 320.0 186.4L320.0 186.4Q320.7 186.4 321.4 186.6Q322.0 186.9 322.5 187.3Q323.0 187.7 323.4 188.3Q323.7 188.8 323.8 189.5L323.8 189.5L322.6 189.5Q322.5 189.0 322.2 188.7Q322.0 188.3 321.6 188.1Q321.3 187.8 320.9 187.7Q320.5 187.5 320.0 187.5L320.0 187.5Q319.1 187.5 318.5 188.0Q317.8 188.4 317.4 189.2Q317.0 190.1 317.0 191.3L317.0 191.3Q317.0 192.5 317.4 193.3Q317.8 194.1 318.5 194.6Q319.2 195.0 320.0 195.0L320.0 195.0Q320.8 195.0 321.4 194.7Q322.1 194.3 322.4 193.7L322.4 193.7Q322.7 193.1 322.7 192.3L322.7 192.3L320.3 192.3L320.3 191.2L323.9 191.2L323.9 192.3Q323.9 193.5 323.4 194.3Q322.9 195.2 322.0 195.7Q321.2 196.1 320.0 196.1ZM332.1 196L330.9 196L330.9 186.5L332.3 186.5L336.1 192.6Q336.3 192.8 336.5 193.2Q336.7 193.6 337.0 194.0L337.0 194.0Q337.1 194.3 337.2 194.6L337.2 194.6Q337.2 194.3 337.2 194.0L337.2 194.0Q337.2 193.5 337.2 193.1Q337.2 192.6 337.2 192.3L337.2 192.3L337.2 186.5L338.4 186.5L338.4 196L336.9 196L333.5 190.6Q333.3 190.2 333.0 189.8Q332.8 189.4 332.5 188.9L332.5 188.9Q332.3 188.5 332.0 188.0L332.0 188.0Q332.0 188.5 332.0 188.9L332.0 188.9Q332.1 189.5 332.1 189.9Q332.1 190.4 332.1 190.6L332.1 190.6L332.1 196Z M355.1 192.4L355.1 192.4Q354.7 192.4 354.4 192.1Q354.2 191.9 354.2 191.5L354.2 191.5Q354.2 191.2 354.4 190.9Q354.7 190.6 355.1 190.6L355.1 190.6Q355.4 190.6 355.7 190.9Q355.9 191.2 355.9 191.5L355.9 191.5Q355.9 191.9 355.7 192.1Q355.4 192.4 355.1 192.4Z M375.5 196.1L375.5 196.1Q374.3 196.1 373.4 195.5Q372.4 195.0 371.9 193.9Q371.4 192.8 371.4 191.3L371.4 191.3Q371.4 189.8 371.9 188.7Q372.4 187.6 373.4 187.0Q374.3 186.4 375.5 186.4L375.5 186.4Q376.3 186.4 376.9 186.6Q377.5 186.8 378.1 187.2Q378.6 187.6 378.9 188.2Q379.2 188.8 379.4 189.5L379.4 189.5L378.2 189.5Q378.1 189.0 377.8 188.7Q377.6 188.3 377.2 188.0Q376.9 187.8 376.4 187.7Q376.0 187.5 375.5 187.5L375.5 187.5Q374.7 187.5 374.0 188.0Q373.3 188.4 372.9 189.2Q372.5 190.1 372.5 191.3L372.5 191.3Q372.5 192.5 372.9 193.3Q373.3 194.2 374.0 194.6Q374.7 195.0 375.5 195.0L375.5 195.0Q376.0 195.0 376.4 194.9Q376.9 194.7 377.2 194.5Q377.6 194.2 377.8 193.9Q378.1 193.5 378.2 193.0L378.2 193.0L379.4 193.0Q379.2 193.7 378.9 194.3Q378.6 194.9 378.1 195.3Q377.5 195.7 376.9 195.9Q376.3 196.1 375.5 196.1ZM390.1 196.1L390.1 196.1Q388.8 196.1 387.9 195.5Q386.9 195.0 386.4 193.9Q385.8 192.8 385.8 191.3L385.8 191.3Q385.8 189.8 386.4 188.7Q386.9 187.6 387.9 187.0Q388.8 186.4 390.1 186.4L390.1 186.4Q391.3 186.4 392.2 187.0Q393.2 187.6 393.7 188.7Q394.2 189.8 394.2 191.3L394.2 191.3Q394.2 192.8 393.7 193.9Q393.2 195.0 392.2 195.5Q391.3 196.1 390.1 196.1ZM390.1 195.0L390.1 195.0Q390.9 195.0 391.6 194.6Q392.3 194.2 392.7 193.3Q393.1 192.5 393.1 191.3L393.1 191.3Q393.1 190.1 392.7 189.2Q392.3 188.4 391.6 188.0Q390.9 187.5 390.1 187.5L390.1 187.5Q389.2 187.5 388.5 188.0Q387.8 188.4 387.4 189.2Q387.0 190.1 387.0 191.3L387.0 191.3Q387.0 192.5 387.4 193.3Q387.8 194.1 388.5 194.6Q389.2 195.0 390.1 195.0ZM404.1 196L404.1 196L401.2 196L401.2 186.5L404.2 186.5Q405.6 186.5 406.6 187.1Q407.6 187.7 408.1 188.7Q408.6 189.8 408.6 191.3L408.6 191.3Q408.6 192.7 408.1 193.8Q407.6 194.9 406.6 195.4Q405.6 196 404.1 196ZM402.4 187.6L402.4 194.9L404.0 194.9Q405.2 194.9 405.9 194.5Q406.7 194.1 407.1 193.2Q407.5 192.4 407.5 191.3L407.5 191.3Q407.5 190.1 407.1 189.3Q406.7 188.5 406.0 188.0Q405.2 187.6 404.1 187.6L404.1 187.6L402.4 187.6ZM421.4 196L415.5 196L415.5 186.5L421.3 186.5L421.3 187.6L416.7 187.6L416.7 190.7L421.0 190.7L421.0 191.8L416.7 191.8L416.7 194.9L421.4 194.9L421.4 196Z M437.7 192.4L437.7 192.4Q437.4 192.4 437.1 192.1Q436.9 191.9 436.9 191.5L436.9 191.5Q436.9 191.2 437.1 190.9Q437.4 190.6 437.7 190.6L437.7 190.6Q438.1 190.6 438.3 190.9Q438.6 191.2 438.6 191.5L438.6 191.5Q438.6 191.9 438.3 192.1Q438.1 192.4 437.7 192.4Z M458.2 196.1L458.2 196.1Q457.0 196.1 456.1 195.5Q455.1 195.0 454.6 193.9Q454.0 192.8 454.0 191.3L454.0 191.3Q454.0 189.8 454.6 188.7Q455.1 187.6 456.1 187.0Q457.0 186.4 458.2 186.4L458.2 186.4Q459.0 186.4 459.6 186.6Q460.2 186.8 460.7 187.2Q461.2 187.6 461.6 188.2Q461.9 188.8 462.1 189.5L462.1 189.5L460.8 189.5Q460.7 189.0 460.5 188.7Q460.3 188.3 459.9 188.0Q459.6 187.8 459.1 187.7Q458.7 187.5 458.2 187.5L458.2 187.5Q457.4 187.5 456.7 188.0Q456.0 188.4 455.6 189.2Q455.2 190.1 455.2 191.3L455.2 191.3Q455.2 192.5 455.6 193.3Q456.0 194.2 456.7 194.6Q457.4 195.0 458.2 195.0L458.2 195.0Q458.7 195.0 459.1 194.9Q459.6 194.7 459.9 194.5Q460.3 194.2 460.5 193.9Q460.7 193.5 460.8 193.0L460.8 193.0L462.1 193.0Q461.9 193.7 461.6 194.3Q461.3 194.9 460.7 195.3Q460.2 195.7 459.6 195.9Q459.0 196.1 458.2 196.1ZM470.1 196L468.9 196L468.9 186.5L472.1 186.5Q473.2 186.5 474.0 186.9Q474.7 187.3 475.0 188.0Q475.4 188.6 475.4 189.5Q475.4 190.3 475.0 191.0Q474.7 191.6 474.0 192.0L474.0 192.0Q473.8 192.1 473.6 192.1L473.6 192.1L475.7 196L474.3 196L472.4 192.3Q472.3 192.3 472.2 192.3L472.2 192.3L470.1 192.3L470.1 196ZM470.1 187.6L470.1 191.3L472.1 191.3Q472.8 191.3 473.3 191.0Q473.8 190.8 474.0 190.4Q474.2 190.0 474.2 189.5L474.2 189.5Q474.2 188.9 474.0 188.5Q473.8 188.1 473.3 187.8Q472.8 187.6 472.1 187.6L472.1 187.6L470.1 187.6ZM488.1 196L482.3 196L482.3 186.5L488.0 186.5L488.0 187.6L483.5 187.6L483.5 190.7L487.7 190.7L487.7 191.8L483.5 191.8L483.5 194.9L488.1 194.9L488.1 196ZM495.6 196L494.3 196L497.7 186.5L499.1 186.5L502.6 196L501.3 196L500.4 193.4L496.5 193.4L495.6 196ZM496.8 192.3L500.0 192.3L499.3 190.4Q499.1 189.9 498.9 189.1L498.9 189.1Q498.7 188.4 498.4 187.5L498.4 187.5Q498.1 188.5 497.9 189.1L497.9 189.1Q497.7 189.9 497.5 190.4L497.5 190.4L496.8 192.3ZM511.5 187.6L508.5 187.6L508.5 186.5L515.7 186.5L515.7 187.6L512.7 187.6L512.7 196L511.5 196L511.5 187.6ZM528.3 196L522.4 196L522.4 186.5L528.2 186.5L528.2 187.6L523.7 187.6L523.7 190.7L527.9 190.7L527.9 191.8L523.7 191.8L523.7 194.9L528.3 194.9L528.3 196Z "/></g><mask id="satori_om-id-1-2"><rect x="256" y="229" width="290" height="25" fill="#fff" mask="url(#satori_om-id)"/></mask><defs><clipPath id="satori_bc-id-1-2-0" clip-path="url(#satori_cp-id)"><path x="256" y="229" width="103" height="25" d="M268.5,229 h78 a12.5,12.5 0 0 1 12.5,12.5 v0 a12.5,12.5 0 0 1 -12.5,12.5 h-78 a12.5,12.5 0 0 1 -12.5,-12.5 v0 a12.5,12.5 0 0 1 12.5,-12.5"/></clipPath></defs><mask id="satori_om-id-1-2-0"><rect x="257" y="230" width="101" height="23" fill="#fff" mask="url(#satori_om-id)"/><path width="103" height="25" fill="none" stroke="#000" stroke-width="2" d="M259.661,232.661 A12.5,12.5 0 0 1 268.5,229 h78 a12.5,12.5 0 0 1 12.5,12.5 v0 a12.5,12.5 0 0 1 -12.5,12.5 h-78 a12.5,12.5 0 0 1 -12.5,-12.5 v0 A12.5,12.5 0 0 1 259.661,232.661"/></mask><path x="256" y="229" width="103" height="25" fill="rgba(255,255,255,0.04)" d="M268.5,229 h78 a12.5,12.5 0 0 1 12.5,12.5 v0 a12.5,12.5 0 0 1 -12.5,12.5 h-78 a12.5,12.5 0 0 1 -12.5,-12.5 v0 a12.5,12.5 0 0 1 12.5,-12.5" clip-path="url(#satori_cp-id)" mask="url(#satori_om-id)"/><path width="103" height="25" clip-path="url(#satori_bc-id-1-2-0)" fill="none" stroke="rgba(255,255,255,0.09)" stroke-width="2" d="M259.661,232.661 A12.5,12.5 0 0 1 268.5,229 h78 a12.5,12.5 0 0 1 12.5,12.5 v0 a12.5,12.5 0 0 1 -12.5,12.5 h-78 a12.5,12.5 0 0 1 -12.5,-12.5 v0 A12.5,12.5 0 0 1 259.661,232.661"/><g mask="url(#satori_om-id)" clip-path="url(#satori_cp-id)"><path fill="rgba(255,255,255,0.55)" d="M274.8 246L273.8 246L273.8 240.0L274.8 240.0L274.8 241.1Q274.9 240.8 275.1 240.5L275.1 240.5Q275.4 240.2 275.7 240.0Q276.1 239.9 276.5 239.9L276.5 239.9Q277.1 239.9 277.5 240.3L277.5 240.3Q277.9 240.6 278.0 241.1L278.0 241.1Q278.1 240.8 278.3 240.6L278.3 240.6Q278.6 240.2 279.0 240.1Q279.4 239.9 279.9 239.9L279.9 239.9Q280.4 239.9 280.8 240.1Q281.3 240.3 281.5 240.8Q281.8 241.3 281.8 242.0L281.8 242.0L281.8 246L280.8 246L280.8 242.0Q280.8 241.3 280.5 241.0Q280.1 240.8 279.6 240.8L279.6 240.8Q279.2 240.8 278.9 240.9Q278.6 241.1 278.5 241.4Q278.3 241.7 278.3 242.1L278.3 242.1L278.3 246L277.3 246L277.3 241.9Q277.3 241.4 277.0 241.1Q276.7 240.8 276.2 240.8L276.2 240.8Q275.8 240.8 275.5 240.9Q275.2 241.1 275.0 241.4Q274.8 241.7 274.8 242.2L274.8 242.2L274.8 246ZM285.5 246L284.5 246L284.5 240.0L285.5 240.0L285.5 246ZM285.0 239.0L285.0 239.0Q284.7 239.0 284.5 238.8Q284.3 238.6 284.3 238.4L284.3 238.4Q284.3 238.1 284.5 237.9Q284.7 237.7 285.0 237.7L285.0 237.7Q285.3 237.7 285.5 237.9Q285.6 238.1 285.6 238.4L285.6 238.4Q285.6 238.6 285.5 238.8Q285.3 239.0 285.0 239.0ZM289.1 242.4L289.1 242.4L289.1 246L288.1 246L288.1 240.0L289.1 240.0L289.1 241.1Q289.3 240.5 289.7 240.3L289.7 240.3Q290.2 239.9 290.9 239.9L290.9 239.9Q291.5 239.9 292.0 240.2Q292.4 240.4 292.7 240.9Q293.0 241.4 293.0 242.2L293.0 242.2L293.0 246L292.0 246L292.0 242.3Q292.0 241.6 291.6 241.2Q291.3 240.8 290.6 240.8L290.6 240.8Q290.2 240.8 289.9 241.0Q289.5 241.2 289.3 241.5Q289.1 241.9 289.1 242.4ZM296.6 246L295.6 246L295.6 240.0L296.6 240.0L296.6 246ZM296.1 239.0L296.1 239.0Q295.9 239.0 295.7 238.8Q295.5 238.6 295.5 238.4L295.5 238.4Q295.5 238.1 295.7 237.9Q295.9 237.7 296.1 237.7L296.1 237.7Q296.4 237.7 296.6 237.9Q296.8 238.1 296.8 238.4L296.8 238.4Q296.8 238.6 296.6 238.8Q296.4 239.0 296.1 239.0ZM300.3 246L299.3 246L299.3 240.0L300.3 240.0L300.3 241.1Q300.4 240.8 300.6 240.5L300.6 240.5Q300.8 240.2 301.2 240.0Q301.6 239.9 301.9 239.9L301.9 239.9Q302.6 239.9 303.0 240.3L303.0 240.3Q303.3 240.6 303.5 241.1L303.5 241.1Q303.6 240.8 303.8 240.6L303.8 240.6Q304.1 240.2 304.5 240.1Q304.9 239.9 305.4 239.9L305.4 239.9Q305.9 239.9 306.3 240.1Q306.7 240.3 307.0 240.8Q307.3 241.3 307.3 242.0L307.3 242.0L307.3 246L306.3 246L306.3 242.0Q306.3 241.3 305.9 241.0Q305.6 240.8 305.1 240.8L305.1 240.8Q304.7 240.8 304.4 240.9Q304.1 241.1 303.9 241.4Q303.8 241.7 303.8 242.1L303.8 242.1L303.8 246L302.8 246L302.8 241.9Q302.8 241.4 302.5 241.1Q302.1 240.8 301.6 240.8L301.6 240.8Q301.3 240.8 301.0 240.9Q300.7 241.1 300.5 241.4Q300.3 241.7 300.3 242.2L300.3 242.2L300.3 246ZM311.6 246.1L311.6 246.1Q311.1 246.1 310.6 245.9Q310.1 245.7 309.9 245.3Q309.6 244.9 309.6 244.3L309.6 244.3Q309.6 243.8 309.8 243.5Q310.0 243.1 310.3 242.9Q310.7 242.8 311.1 242.7Q311.5 242.6 311.9 242.5L311.9 242.5Q312.5 242.5 312.8 242.4Q313.1 242.4 313.3 242.3Q313.5 242.2 313.5 242.0L313.5 242.0L313.5 241.9Q313.5 241.6 313.3 241.3Q313.2 241.0 312.9 240.9Q312.6 240.8 312.2 240.8L312.2 240.8Q311.8 240.8 311.5 240.9Q311.2 241.0 311.0 241.2Q310.8 241.4 310.7 241.6L310.7 241.6L309.8 241.3Q310.0 240.8 310.4 240.5Q310.8 240.2 311.2 240.0Q311.7 239.9 312.2 239.9L312.2 239.9Q312.5 239.9 312.9 240.0Q313.2 240.1 313.6 240.3Q314.0 240.5 314.2 240.9Q314.4 241.3 314.4 242.0L314.4 242.0L314.4 246L313.5 246L313.5 245.2L313.4 245.2Q313.3 245.4 313.1 245.6Q312.9 245.8 312.5 246.0Q312.1 246.1 311.6 246.1ZM311.8 245.3L311.8 245.3Q312.3 245.3 312.7 245.1Q313.1 244.9 313.3 244.5Q313.5 244.2 313.5 243.8L313.5 243.8L313.5 243.0Q313.4 243.1 313.2 243.1Q313.0 243.2 312.7 243.2Q312.5 243.3 312.3 243.3Q312.0 243.3 311.9 243.3L311.9 243.3Q311.5 243.4 311.2 243.5Q310.9 243.6 310.7 243.8Q310.6 244.0 310.6 244.3L310.6 244.3Q310.6 244.7 310.7 244.9Q310.9 245.1 311.2 245.2Q311.4 245.3 311.8 245.3ZM317.1 238.0L318.1 238.0L318.1 246L317.1 246L317.1 238.0ZM321.8 246L320.8 246L320.8 240.0L321.8 240.0L321.8 246ZM321.3 239.0L321.3 239.0Q321.0 239.0 320.8 238.8Q320.6 238.6 320.6 238.4L320.6 238.4Q320.6 238.1 320.8 237.9Q321.0 237.7 321.3 237.7L321.3 237.7Q321.6 237.7 321.8 237.9Q322.0 238.1 322.0 238.4L322.0 238.4Q322.0 238.6 321.8 238.8Q321.6 239.0 321.3 239.0ZM326.5 246.1L326.5 246.1Q325.9 246.1 325.4 245.9Q324.9 245.8 324.6 245.4Q324.3 245.1 324.2 244.5L324.2 244.5L325.1 244.3Q325.2 244.8 325.6 245.0Q325.9 245.3 326.5 245.3L326.5 245.3Q327.1 245.3 327.5 245.0Q327.9 244.7 327.9 244.4L327.9 244.4Q327.9 244.1 327.6 243.9Q327.4 243.6 327.0 243.5L327.0 243.5L326.0 243.3Q325.2 243.1 324.8 242.7Q324.4 242.3 324.4 241.7L324.4 241.7Q324.4 241.2 324.7 240.8Q324.9 240.4 325.4 240.1Q326.0 239.9 326.6 239.9L326.6 239.9Q327.2 239.9 327.6 240.1Q328.1 240.3 328.3 240.6Q328.6 240.9 328.7 241.4L328.7 241.4L327.9 241.6Q327.8 241.3 327.5 241.0Q327.2 240.7 326.6 240.7L326.6 240.7Q326.1 240.7 325.7 241.0Q325.3 241.2 325.3 241.6L325.3 241.6Q325.3 241.9 325.6 242.1Q325.8 242.3 326.4 242.5L326.4 242.5L327.3 242.7Q328.1 242.9 328.5 243.3Q328.9 243.7 328.9 244.3L328.9 244.3Q328.9 244.8 328.6 245.2Q328.3 245.7 327.7 245.9Q327.2 246.1 326.5 246.1ZM332.2 246L331.3 246L331.3 240.0L332.2 240.0L332.2 241.1Q332.3 240.8 332.5 240.5L332.5 240.5Q332.8 240.2 333.1 240.0Q333.5 239.9 333.9 239.9L333.9 239.9Q334.5 239.9 334.9 240.3L334.9 240.3Q335.3 240.6 335.4 241.1L335.4 241.1Q335.5 240.8 335.7 240.6L335.7 240.6Q336.0 240.2 336.4 240.1Q336.8 239.9 337.3 239.9L337.3 239.9Q337.8 239.9 338.3 240.1Q338.7 240.3 338.9 240.8Q339.2 241.3 339.2 242.0L339.2 242.0L339.2 246L338.2 246L338.2 242.0Q338.2 241.3 337.9 241.0Q337.5 240.8 337.0 240.8L337.0 240.8Q336.6 240.8 336.3 240.9Q336.0 241.1 335.9 241.4Q335.7 241.7 335.7 242.1L335.7 242.1L335.7 246L334.7 246L334.7 241.9Q334.7 241.4 334.4 241.1Q334.1 240.8 333.6 240.8L333.6 240.8Q333.2 240.8 332.9 240.9Q332.6 241.1 332.4 241.4Q332.2 241.7 332.2 242.2L332.2 242.2L332.2 246Z "/></g><defs><clipPath id="satori_bc-id-1-2-1" clip-path="url(#satori_cp-id)"><path x="367" y="229" width="111" height="25" d="M379.5,229 h86 a12.5,12.5 0 0 1 12.5,12.5 v0 a12.5,12.5 0 0 1 -12.5,12.5 h-86 a12.5,12.5 0 0 1 -12.5,-12.5 v0 a12.5,12.5 0 0 1 12.5,-12.5"/></clipPath></defs><mask id="satori_om-id-1-2-1"><rect x="368" y="230" width="109" height="23" fill="#fff" mask="url(#satori_om-id)"/><path width="111" height="25" fill="none" stroke="#000" stroke-width="2" d="M370.661,232.661 A12.5,12.5 0 0 1 379.5,229 h86 a12.5,12.5 0 0 1 12.5,12.5 v0 a12.5,12.5 0 0 1 -12.5,12.5 h-86 a12.5,12.5 0 0 1 -12.5,-12.5 v0 A12.5,12.5 0 0 1 370.661,232.661"/></mask><path x="367" y="229" width="111" height="25" fill="rgba(255,255,255,0.04)" d="M379.5,229 h86 a12.5,12.5 0 0 1 12.5,12.5 v0 a12.5,12.5 0 0 1 -12.5,12.5 h-86 a12.5,12.5 0 0 1 -12.5,-12.5 v0 a12.5,12.5 0 0 1 12.5,-12.5" clip-path="url(#satori_cp-id)" mask="url(#satori_om-id)"/><path width="111" height="25" clip-path="url(#satori_bc-id-1-2-1)" fill="none" stroke="rgba(255,255,255,0.09)" stroke-width="2" d="M370.661,232.661 A12.5,12.5 0 0 1 379.5,229 h86 a12.5,12.5 0 0 1 12.5,12.5 v0 a12.5,12.5 0 0 1 -12.5,12.5 h-86 a12.5,12.5 0 0 1 -12.5,-12.5 v0 A12.5,12.5 0 0 1 370.661,232.661"/><g mask="url(#satori_om-id)" clip-path="url(#satori_cp-id)"><path fill="rgba(255,255,255,0.55)" d="M387.3 246.1L387.3 246.1Q386.5 246.1 385.9 245.7Q385.2 245.4 384.9 244.7Q384.6 244.0 384.6 243.0L384.6 243.0Q384.6 242.1 384.9 241.4Q385.2 240.7 385.9 240.3Q386.5 239.9 387.3 239.9L387.3 239.9Q388.1 239.9 388.7 240.3Q389.3 240.7 389.7 241.4Q390.0 242.1 390.0 243.0L390.0 243.0Q390.0 244.0 389.7 244.7Q389.3 245.4 388.7 245.7Q388.1 246.1 387.3 246.1ZM387.3 245.3L387.3 245.3Q387.9 245.3 388.3 245.0Q388.7 244.6 388.9 244.1Q389.1 243.6 389.1 243.0L389.1 243.0Q389.1 242.4 388.9 241.9Q388.7 241.4 388.3 241.1Q387.9 240.8 387.3 240.8L387.3 240.8Q386.7 240.8 386.3 241.1Q385.9 241.4 385.7 241.9Q385.5 242.4 385.5 243.0L385.5 243.0Q385.5 243.6 385.7 244.1Q385.9 244.6 386.3 245.0Q386.7 245.3 387.3 245.3ZM393.4 248.2L392.4 248.2L392.4 240.0L393.4 240.0L393.4 241.0L393.5 241.0Q393.6 240.8 393.8 240.6Q394.0 240.3 394.3 240.1Q394.6 239.9 395.2 239.9L395.2 239.9Q396.0 239.9 396.6 240.3Q397.1 240.7 397.4 241.4Q397.8 242.1 397.8 243.0L397.8 243.0Q397.8 244.0 397.5 244.7Q397.1 245.4 396.6 245.7Q396.0 246.1 395.2 246.1L395.2 246.1Q394.7 246.1 394.3 245.9Q394.0 245.7 393.8 245.5Q393.6 245.2 393.5 245.1L393.5 245.1L393.4 245.1L393.4 248.2ZM395.1 245.3L395.1 245.3Q395.7 245.3 396.0 245.0Q396.4 244.7 396.6 244.1Q396.8 243.6 396.8 243.0L396.8 243.0Q396.8 242.4 396.6 241.9Q396.4 241.4 396.0 241.1Q395.7 240.8 395.1 240.8L395.1 240.8Q394.5 240.8 394.2 241.1Q393.8 241.3 393.6 241.8Q393.4 242.3 393.4 243.0L393.4 243.0Q393.4 243.7 393.6 244.2Q393.8 244.7 394.2 245.0Q394.5 245.3 395.1 245.3ZM402.7 246.1L402.7 246.1Q401.8 246.1 401.2 245.7Q400.6 245.4 400.2 244.7Q399.9 244.0 399.9 243.0Q399.9 242.1 400.2 241.4Q400.6 240.7 401.2 240.3Q401.8 239.9 402.6 239.9L402.6 239.9Q403.1 239.9 403.5 240.1Q404.0 240.2 404.4 240.6Q404.8 240.9 405.0 241.5Q405.2 242.1 405.2 242.9L405.2 242.9L405.2 243.3L400.9 243.3Q400.9 243.9 401.1 244.3L401.1 244.3Q401.3 244.8 401.7 245.0Q402.2 245.3 402.7 245.3L402.7 245.3Q403.1 245.3 403.4 245.2Q403.6 245.1 403.9 244.9Q404.1 244.7 404.2 244.3L404.2 244.3L405.1 244.6Q405.0 245.1 404.6 245.4Q404.3 245.7 403.8 245.9Q403.3 246.1 402.7 246.1ZM400.9 242.5L400.9 242.5L404.2 242.5Q404.2 242.1 404.1 241.8L404.1 241.8Q403.9 241.3 403.5 241.0Q403.1 240.8 402.6 240.8Q402.0 240.8 401.7 241.0Q401.3 241.3 401.1 241.7L401.1 241.7Q400.9 242.1 400.9 242.5ZM408.6 242.4L408.6 242.4L408.6 246L407.6 246L407.6 240.0L408.5 240.0L408.5 241.1Q408.8 240.5 409.2 240.3L409.2 240.3Q409.7 239.9 410.4 239.9L410.4 239.9Q411.0 239.9 411.4 240.2Q411.9 240.4 412.1 240.9Q412.4 241.4 412.4 242.2L412.4 242.2L412.4 246L411.4 246L411.4 242.3Q411.4 241.6 411.1 241.2Q410.7 240.8 410.1 240.8L410.1 240.8Q409.6 240.8 409.3 241.0Q409.0 241.2 408.8 241.5Q408.6 241.9 408.6 242.4Z M421.2 246.1L421.2 246.1Q420.6 246.1 420.1 245.9Q419.6 245.8 419.3 245.4Q419.0 245.1 418.9 244.5L418.9 244.5L419.8 244.3Q420.0 244.8 420.3 245.0Q420.7 245.3 421.2 245.3L421.2 245.3Q421.8 245.3 422.2 245.0Q422.6 244.7 422.6 244.4L422.6 244.4Q422.6 244.1 422.4 243.9Q422.2 243.6 421.7 243.5L421.7 243.5L420.7 243.3Q419.9 243.1 419.5 242.7Q419.1 242.3 419.1 241.7L419.1 241.7Q419.1 241.2 419.4 240.8Q419.7 240.4 420.2 240.1Q420.7 239.9 421.3 239.9L421.3 239.9Q421.9 239.9 422.4 240.1Q422.8 240.3 423.1 240.6Q423.3 240.9 423.5 241.4L423.5 241.4L422.6 241.6Q422.5 241.3 422.2 241.0Q421.9 240.7 421.3 240.7L421.3 240.7Q420.8 240.7 420.4 241.0Q420.1 241.2 420.1 241.6L420.1 241.6Q420.1 241.9 420.3 242.1Q420.6 242.3 421.1 242.5L421.1 242.5L422.0 242.7Q422.8 242.9 423.2 243.3Q423.6 243.7 423.6 244.3L423.6 244.3Q423.6 244.8 423.3 245.2Q423.0 245.7 422.5 245.9Q421.9 246.1 421.2 246.1ZM428.4 246.1L428.4 246.1Q427.6 246.1 427.0 245.7Q426.4 245.4 426.0 244.7Q425.7 244.0 425.7 243.0L425.7 243.0Q425.7 242.1 426.0 241.4Q426.4 240.7 427.0 240.3Q427.6 239.9 428.4 239.9L428.4 239.9Q429.3 239.9 429.9 240.3Q430.5 240.7 430.8 241.4Q431.2 242.1 431.2 243.0L431.2 243.0Q431.2 244.0 430.8 244.7Q430.5 245.4 429.9 245.7Q429.3 246.1 428.4 246.1ZM428.4 245.3L428.4 245.3Q429.0 245.3 429.4 245.0Q429.8 244.6 430.0 244.1Q430.2 243.6 430.2 243.0L430.2 243.0Q430.2 242.4 430.0 241.9Q429.8 241.4 429.4 241.1Q429.0 240.8 428.4 240.8L428.4 240.8Q427.8 240.8 427.4 241.1Q427.1 241.4 426.9 241.9Q426.7 242.4 426.7 243.0L426.7 243.0Q426.7 243.6 426.9 244.1Q427.1 244.6 427.4 245.0Q427.8 245.3 428.4 245.3ZM435.6 246.1L435.6 246.1Q435.0 246.1 434.6 245.8Q434.1 245.6 433.8 245.1Q433.6 244.6 433.6 243.8L433.6 243.8L433.6 240.0L434.6 240.0L434.6 243.7Q434.6 244.4 434.9 244.8Q435.3 245.2 435.9 245.2L435.9 245.2Q436.3 245.2 436.7 245.0Q437.0 244.8 437.2 244.5Q437.4 244.1 437.4 243.6L437.4 243.6L437.4 240.0L438.4 240.0L438.4 246L437.5 246L437.5 244.9Q437.2 245.5 436.8 245.7L436.8 245.7Q436.3 246.1 435.6 246.1ZM442.1 246L441.1 246L441.1 240.0L442.0 240.0L442.0 240.9L442.1 240.9Q442.3 240.5 442.7 240.2Q443.1 239.9 443.6 239.9L443.6 239.9Q443.8 239.9 443.9 239.9Q444.1 239.9 444.1 239.9L444.1 239.9L444.1 240.9Q444.1 240.9 443.9 240.9Q443.8 240.8 443.6 240.8L443.6 240.8Q443.1 240.8 442.8 241.0Q442.4 241.2 442.3 241.5Q442.1 241.8 442.1 242.2L442.1 242.2L442.1 246ZM448.7 246.1L448.7 246.1Q447.9 246.1 447.2 245.7Q446.6 245.4 446.3 244.7Q445.9 244.0 445.9 243.0L445.9 243.0Q445.9 242.1 446.3 241.4Q446.6 240.7 447.2 240.3Q447.9 239.9 448.7 239.9L448.7 239.9Q449.1 239.9 449.5 240.0Q449.9 240.1 450.2 240.4Q450.5 240.6 450.8 240.9Q451.0 241.2 451.1 241.6L451.1 241.6L450.2 241.8Q450.1 241.6 450.0 241.4Q449.8 241.2 449.7 241.1Q449.5 240.9 449.2 240.9Q449.0 240.8 448.7 240.8L448.7 240.8Q448.1 240.8 447.7 241.1Q447.3 241.4 447.1 241.9Q446.9 242.4 446.9 243.0L446.9 243.0Q446.9 243.6 447.1 244.1Q447.3 244.6 447.7 245.0Q448.1 245.3 448.7 245.3L448.7 245.3Q449.0 245.3 449.2 245.2Q449.5 245.1 449.7 245.0Q449.9 244.8 450.0 244.6Q450.1 244.4 450.2 244.2L450.2 244.2L451.1 244.4Q451.0 244.8 450.8 245.1Q450.5 245.5 450.2 245.7Q449.9 245.9 449.5 246.0Q449.1 246.1 448.7 246.1ZM456.0 246.1L456.0 246.1Q455.2 246.1 454.5 245.7Q453.9 245.4 453.6 244.7Q453.2 244.0 453.2 243.0Q453.2 242.1 453.6 241.4Q453.9 240.7 454.5 240.3Q455.1 239.9 455.9 239.9L455.9 239.9Q456.4 239.9 456.9 240.1Q457.3 240.2 457.7 240.6Q458.1 240.9 458.3 241.5Q458.5 242.1 458.5 242.9L458.5 242.9L458.5 243.3L454.2 243.3Q454.2 243.9 454.4 244.3L454.4 244.3Q454.7 244.8 455.1 245.0Q455.5 245.3 456.0 245.3L456.0 245.3Q456.4 245.3 456.7 245.2Q457.0 245.1 457.2 244.9Q457.4 244.7 457.5 244.3L457.5 244.3L458.4 244.6Q458.3 245.1 458.0 245.4Q457.6 245.7 457.2 245.9Q456.7 246.1 456.0 246.1ZM454.2 242.5L454.2 242.5L457.6 242.5Q457.5 242.1 457.4 241.8L457.4 241.8Q457.2 241.3 456.8 241.0Q456.5 240.8 455.9 240.8Q455.4 240.8 455.0 241.0Q454.6 241.3 454.4 241.7L454.4 241.7Q454.2 242.1 454.2 242.5Z "/></g><defs><clipPath id="satori_bc-id-1-2-2" clip-path="url(#satori_cp-id)"><path x="486" y="229" width="60" height="25" d="M498.5,229 h35 a12.5,12.5 0 0 1 12.5,12.5 v0 a12.5,12.5 0 0 1 -12.5,12.5 h-35 a12.5,12.5 0 0 1 -12.5,-12.5 v0 a12.5,12.5 0 0 1 12.5,-12.5"/></clipPath></defs><mask id="satori_om-id-1-2-2"><rect x="487" y="230" width="58" height="23" fill="#fff" mask="url(#satori_om-id)"/><path width="60" height="25" fill="none" stroke="#000" stroke-width="2" d="M489.661,232.661 A12.5,12.5 0 0 1 498.5,229 h35 a12.5,12.5 0 0 1 12.5,12.5 v0 a12.5,12.5 0 0 1 -12.5,12.5 h-35 a12.5,12.5 0 0 1 -12.5,-12.5 v0 A12.5,12.5 0 0 1 489.661,232.661"/></mask><path x="486" y="229" width="60" height="25" fill="rgba(255,255,255,0.04)" d="M498.5,229 h35 a12.5,12.5 0 0 1 12.5,12.5 v0 a12.5,12.5 0 0 1 -12.5,12.5 h-35 a12.5,12.5 0 0 1 -12.5,-12.5 v0 a12.5,12.5 0 0 1 12.5,-12.5" clip-path="url(#satori_cp-id)" mask="url(#satori_om-id)"/><path width="60" height="25" clip-path="url(#satori_bc-id-1-2-2)" fill="none" stroke="rgba(255,255,255,0.09)" stroke-width="2" d="M489.661,232.661 A12.5,12.5 0 0 1 498.5,229 h35 a12.5,12.5 0 0 1 12.5,12.5 v0 a12.5,12.5 0 0 1 -12.5,12.5 h-35 a12.5,12.5 0 0 1 -12.5,-12.5 v0 A12.5,12.5 0 0 1 489.661,232.661"/><g mask="url(#satori_om-id)" clip-path="url(#satori_cp-id)"><path fill="rgba(255,255,255,0.55)" d="M506.2 246L505.2 246L503.4 240.0L504.4 240.0L505.1 242.6Q505.3 243.2 505.5 243.8L505.5 243.8Q505.6 244.3 505.7 245.0L505.7 245.0Q505.8 244.4 506.0 243.9L506.0 243.9Q506.1 243.2 506.3 242.6L506.3 242.6L507.0 240.0L508.0 240.0L508.7 242.6Q508.9 243.2 509.1 243.8L509.1 243.8Q509.2 244.4 509.3 244.9L509.3 244.9Q509.4 244.4 509.5 243.9L509.5 243.9Q509.7 243.2 509.9 242.6L509.9 242.6L510.6 240.0L511.6 240.0L509.8 246L508.8 246L508.1 243.3Q507.9 242.9 507.8 242.4Q507.7 242.0 507.6 241.6L507.6 241.6Q507.6 241.3 507.5 241.1L507.5 241.1Q507.4 241.3 507.4 241.6L507.4 241.6Q507.3 242.0 507.2 242.4Q507.1 242.9 506.9 243.3L506.9 243.3L506.2 246ZM516.4 246.1L516.4 246.1Q515.5 246.1 514.9 245.7Q514.2 245.4 513.9 244.7Q513.6 244.0 513.6 243.0Q513.6 242.1 513.9 241.4Q514.2 240.7 514.8 240.3Q515.4 239.9 516.3 239.9L516.3 239.9Q516.7 239.9 517.2 240.1Q517.7 240.2 518.0 240.6Q518.4 240.9 518.7 241.5Q518.9 242.1 518.9 242.9L518.9 242.9L518.9 243.3L514.5 243.3Q514.6 243.9 514.8 244.3L514.8 244.3Q515 244.8 515.4 245.0Q515.8 245.3 516.4 245.3L516.4 245.3Q516.7 245.3 517.0 245.2Q517.3 245.1 517.5 244.9Q517.7 244.7 517.8 244.3L517.8 244.3L518.8 244.6Q518.6 245.1 518.3 245.4Q518.0 245.7 517.5 245.9Q517.0 246.1 516.4 246.1ZM514.5 242.5L514.5 242.5L517.9 242.5Q517.9 242.1 517.7 241.8L517.7 241.8Q517.5 241.3 517.2 241.0Q516.8 240.8 516.3 240.8Q515.7 240.8 515.3 241.0Q514.9 241.3 514.7 241.7L514.7 241.7Q514.6 242.1 514.5 242.5ZM524.1 246.1L524.1 246.1Q523.5 246.1 523.1 245.9Q522.8 245.7 522.6 245.5Q522.4 245.2 522.3 245.1L522.3 245.1L522.2 245.1L522.2 246L521.3 246L521.3 238.0L522.2 238.0L522.2 241.0L522.3 241.0Q522.4 240.8 522.6 240.6Q522.8 240.3 523.1 240.1Q523.5 239.9 524.0 239.9L524.0 239.9Q524.8 239.9 525.4 240.3Q525.9 240.7 526.3 241.4Q526.6 242.1 526.6 243.0L526.6 243.0Q526.6 244.0 526.3 244.7Q525.9 245.4 525.4 245.7Q524.8 246.1 524.1 246.1ZM523.9 245.3L523.9 245.3Q524.5 245.3 524.8 245.0Q525.2 244.7 525.4 244.1Q525.6 243.6 525.6 243.0L525.6 243.0Q525.6 242.4 525.4 241.9Q525.2 241.4 524.9 241.1Q524.5 240.8 523.9 240.8L523.9 240.8Q523.4 240.8 523.0 241.1Q522.6 241.3 522.4 241.8Q522.2 242.3 522.2 243.0L522.2 243.0Q522.2 243.7 522.4 244.2Q522.6 244.7 523.0 245.0Q523.4 245.3 523.9 245.3Z "/></g></svg>