<!-- Generated by readme-aura https://github.com/collectioneur/readme-aura -->
<svg width="800" height="140" viewBox="0 0 800 140" xmlns="http://www.w3.org/2000/svg"><mask id="satori_om-id"><rect x="0" y="0" width="800" height="140" fill="#fff"/></mask><rect x="0" y="0" width="800" height="140" fill="#0f0f0f"/><mask id="satori_om-id-0"><rect x="60" y="44" width="105" height="53" fill="#fff"/></mask><mask id="satori_om-id-0-0"><rect x="60" y="44" width="105" height="34" fill="#fff"/></mask><g  ><path fill="#ef4444" d="M70.6 73.4L70.6 73.4Q68.1 73.4 66.2 72.4Q64.3 71.4 63.2 69.8Q62.1 68.2 61.8 66.1L61.8 66.1L66.8 66.1Q67.1 67.4 68.1 68.2Q69.1 69.0 70.6 69.0L70.6 69.0Q72.2 69.0 73.3 68.0Q74.4 67.1 75.0 65.3Q75.6 63.5 75.6 61.0L75.6 61.0L75.4 61.0Q74.8 62.1 73.9 62.9Q73.0 63.7 71.8 64.1Q70.6 64.5 69.2 64.5L69.2 64.5Q67.0 64.5 65.3 63.5Q63.5 62.5 62.5 60.6Q61.6 58.8 61.6 56.5L61.6 56.5Q61.6 54.0 62.7 52.1Q63.9 50.1 66.0 49.0Q68.0 47.9 70.8 47.9L70.8 47.9Q72.7 47.9 74.4 48.5Q76.1 49.2 77.5 50.6Q78.9 52.0 79.7 54.3Q80.5 56.6 80.5 60.0L80.5 60.0Q80.5 63.2 79.8 65.6Q79.1 68.1 77.8 69.8Q76.5 71.6 74.7 72.5Q72.8 73.4 70.6 73.4ZM70.7 60.8L70.7 60.8Q71.7 60.8 72.4 60.4Q73.2 60.1 73.8 59.5Q74.4 58.9 74.7 58.1Q75.1 57.3 75.1 56.3L75.1 56.3Q75.1 55.2 74.5 54.2Q73.9 53.2 73.0 52.6Q72.0 51.9 70.8 51.9L70.8 51.9Q69.6 51.9 68.6 52.5Q67.6 53.1 67.1 54.1Q66.5 55.1 66.5 56.4L66.5 56.4Q66.5 57.6 67.0 58.6Q67.6 59.6 68.6 60.2Q69.5 60.8 70.7 60.8ZM88.6 73L83.4 73L93.6 52.6L93.6 52.4L81.7 52.4L81.7 48.3L98.9 48.3L98.9 52.5L88.6 73ZM100.6 73.3L100.6 73.3Q99.4 73.3 98.6 72.5Q97.7 71.7 97.7 70.5L97.7 70.5Q97.7 69.2 98.6 68.4Q99.4 67.6 100.6 67.6L100.6 67.6Q101.8 67.6 102.7 68.4Q103.5 69.2 103.5 70.5L103.5 70.5Q103.5 71.7 102.7 72.5Q101.8 73.3 100.6 73.3ZM124.9 73L107.4 73L107.4 69.3L116.1 61.1Q117.2 60.0 118.0 59.1Q118.8 58.3 119.2 57.4Q119.6 56.5 119.6 55.6L119.6 55.6Q119.6 54.4 119.1 53.6Q118.6 52.8 117.7 52.4Q116.9 52.0 115.8 52.0L115.8 52.0Q114.6 52.0 113.8 52.4Q112.9 52.9 112.4 53.8Q112.0 54.6 112.0 55.9L112.0 55.9L107.1 55.9Q107.1 53.4 108.2 51.7Q109.3 49.9 111.3 48.9Q113.2 47.9 115.8 47.9L115.8 47.9Q118.4 47.9 120.4 48.9Q122.3 49.8 123.4 51.5Q124.5 53.1 124.5 55.2L124.5 55.2Q124.5 56.6 124.0 58.0Q123.4 59.3 122.1 61.0Q120.7 62.6 118.1 65.0L118.1 65.0L114.4 68.7L114.4 68.8L124.9 68.8L124.9 73ZM134.2 60.1L134.2 60.1Q132.4 60.1 131.2 59.3Q130.0 58.6 129.4 57.3Q128.8 56.1 128.8 54.6L128.8 54.6L128.8 53.3Q128.8 51.8 129.4 50.6Q130.1 49.4 131.3 48.6Q132.5 47.9 134.2 47.9L134.2 47.9Q136.0 47.9 137.2 48.6Q138.4 49.4 139.0 50.6Q139.6 51.8 139.6 53.3L139.6 53.3L139.6 54.6Q139.6 56.1 139.0 57.4Q138.3 58.6 137.1 59.3Q135.9 60.1 134.2 60.1ZM134.2 57.0L134.2 57.0Q135.3 57.0 135.7 56.3Q136.1 55.5 136.1 54.6L136.1 54.6L136.1 53.3Q136.1 52.4 135.7 51.7Q135.3 50.9 134.2 50.9L134.2 50.9Q133.1 50.9 132.7 51.7Q132.3 52.5 132.3 53.3L132.3 53.3L132.3 54.6Q132.3 55.5 132.7 56.3Q133.1 57.0 134.2 57.0ZM151.8 73.4L151.8 73.4Q150.0 73.4 148.8 72.7Q147.6 71.9 147.0 70.7Q146.4 69.4 146.4 68.0L146.4 68.0L146.4 66.7Q146.4 65.2 147.0 64.0Q147.6 62.7 148.8 62.0Q150.0 61.2 151.8 61.2L151.8 61.2Q153.5 61.2 154.7 62.0Q155.9 62.7 156.5 64.0Q157.2 65.2 157.2 66.7L157.2 66.7L157.2 68.0Q157.2 69.5 156.5 70.7Q155.9 72.0 154.7 72.7Q153.5 73.4 151.8 73.4ZM151.8 70.4L151.8 70.4Q152.9 70.4 153.3 69.6Q153.7 68.9 153.7 68.0L153.7 68.0L153.7 66.7Q153.7 65.8 153.3 65.0Q152.9 64.3 151.8 64.3L151.8 64.3Q150.7 64.3 150.2 65.0Q149.8 65.8 149.8 66.7L149.8 66.7L149.8 68.0Q149.8 68.9 150.2 69.6Q150.7 70.4 151.8 70.4ZM136.1 73L132.7 73L149.7 48.3L153.1 48.3L136.1 73Z "/></g><mask id="satori_om-id-0-1"><rect x="74" y="84" width="77" height="13" fill="#fff"/></mask><g  ><path fill="#666" d="M76.1 95L74.3 95L77.0 87.0L79.1 87.0L81.9 95L80.1 95L79.5 93.1L76.7 93.1L76.1 95ZM77.1 91.9L79.1 91.9L78.8 91.1Q78.6 90.4 78.4 89.5L78.4 89.5Q78.2 88.9 78.1 88.3L78.1 88.3Q77.9 88.9 77.8 89.5L77.8 89.5Q77.5 90.4 77.3 91.1L77.3 91.1L77.1 91.9ZM87.9 95.1L87.9 95.1Q86.9 95.1 86.0 94.6Q85.2 94.1 84.7 93.2Q84.2 92.3 84.2 91.0L84.2 91.0Q84.2 89.7 84.7 88.8Q85.2 87.9 86.0 87.4Q86.9 86.9 87.9 86.9L87.9 86.9Q88.6 86.9 89.2 87.1Q89.8 87.3 90.2 87.6Q90.7 88.0 91.0 88.5Q91.3 89.1 91.4 89.7L91.4 89.7L89.7 89.7Q89.7 89.4 89.5 89.1Q89.4 88.9 89.1 88.7Q88.9 88.5 88.6 88.4Q88.3 88.3 88.0 88.3L88.0 88.3Q87.3 88.3 86.9 88.7Q86.4 89.0 86.1 89.6Q85.9 90.2 85.9 91.0L85.9 91.0Q85.9 91.9 86.1 92.5Q86.4 93.1 86.9 93.4Q87.3 93.7 88.0 93.7L88.0 93.7Q88.3 93.7 88.6 93.6Q88.9 93.5 89.1 93.3Q89.4 93.1 89.5 92.8Q89.7 92.6 89.7 92.3L89.7 92.3L91.4 92.3Q91.3 92.8 91.1 93.3Q90.8 93.8 90.3 94.2Q89.9 94.6 89.3 94.9Q88.7 95.1 87.9 95.1ZM97.6 95.1L97.6 95.1Q96.5 95.1 95.7 94.6Q94.8 94.1 94.3 93.2Q93.9 92.3 93.9 91.0L93.9 91.0Q93.9 89.7 94.3 88.8Q94.8 87.9 95.7 87.4Q96.5 86.9 97.6 86.9L97.6 86.9Q98.3 86.9 98.8 87.1Q99.4 87.3 99.9 87.6Q100.3 88.0 100.6 88.5Q100.9 89.1 101.0 89.7L101.0 89.7L99.4 89.7Q99.3 89.4 99.1 89.1Q99.0 88.9 98.8 88.7Q98.5 88.5 98.2 88.4Q97.9 88.3 97.6 88.3L97.6 88.3Q97.0 88.3 96.5 88.7Q96.0 89.0 95.8 89.6Q95.5 90.2 95.5 91.0L95.5 91.0Q95.5 91.9 95.8 92.5Q96.0 93.1 96.5 93.4Q97.0 93.7 97.6 93.7L97.6 93.7Q97.9 93.7 98.2 93.6Q98.5 93.5 98.8 93.3Q99.0 93.1 99.1 92.8Q99.3 92.6 99.4 92.3L99.4 92.3L101.0 92.3Q101.0 92.8 100.7 93.3Q100.4 93.8 100.0 94.2Q99.5 94.6 98.9 94.9Q98.3 95.1 97.6 95.1ZM107.0 95.1L107.0 95.1Q106.0 95.1 105.3 94.7Q104.5 94.4 104.1 93.7Q103.7 93.1 103.7 92.2L103.7 92.2L103.7 87.0L105.4 87.0L105.4 92.1Q105.4 92.5 105.6 92.9Q105.8 93.2 106.1 93.5Q106.5 93.7 107.0 93.7L107.0 93.7Q107.5 93.7 107.9 93.5Q108.3 93.2 108.5 92.9Q108.7 92.5 108.7 92.1L108.7 92.1L108.7 87.0L110.3 87.0L110.3 92.2Q110.3 93.1 109.9 93.7Q109.5 94.4 108.7 94.7Q108.0 95.1 107.0 95.1ZM114.9 95L113.3 95L113.3 87.0L116.4 87.0Q117.3 87.0 117.9 87.3Q118.6 87.6 118.9 88.2Q119.2 88.8 119.2 89.6Q119.2 90.4 118.9 91.0Q118.6 91.5 117.9 91.8L117.9 91.8Q117.9 91.9 117.8 91.9L117.8 91.9L119.5 95L117.7 95L116.2 92.1L114.9 92.1L114.9 95ZM114.9 88.4L114.9 90.8L116.1 90.8Q116.6 90.8 116.9 90.7Q117.2 90.5 117.4 90.3Q117.6 90.0 117.6 89.6L117.6 89.6Q117.6 89.2 117.4 88.9Q117.2 88.6 116.9 88.5Q116.6 88.4 116.1 88.4L116.1 88.4L114.9 88.4ZM123.3 95L121.5 95L124.3 87.0L126.4 87.0L129.2 95L127.4 95L126.8 93.1L123.9 93.1L123.3 95ZM124.3 91.9L126.3 91.9L126.1 91.1Q125.9 90.4 125.6 89.5L125.6 89.5Q125.5 88.9 125.3 88.3L125.3 88.3Q125.2 88.9 125.0 89.5L125.0 89.5Q124.8 90.4 124.6 91.1L124.6 91.1L124.3 91.9ZM135.2 95.1L135.2 95.1Q134.1 95.1 133.3 94.6Q132.5 94.1 132.0 93.2Q131.5 92.3 131.5 91.0L131.5 91.0Q131.5 89.7 132.0 88.8Q132.5 87.9 133.3 87.4Q134.1 86.9 135.2 86.9L135.2 86.9Q135.9 86.9 136.5 87.1Q137.1 87.3 137.5 87.6Q138.0 88.0 138.3 88.5Q138.5 89.1 138.6 89.7L138.6 89.7L137.0 89.7Q136.9 89.4 136.8 89.1Q136.6 88.9 136.4 88.7Q136.2 88.5 135.9 88.4Q135.6 88.3 135.2 88.3L135.2 88.3Q134.6 88.3 134.1 88.7Q133.7 89.0 133.4 89.6Q133.1 90.2 133.1 91.0L133.1 91.0Q133.1 91.9 133.4 92.5Q133.7 93.1 134.1 93.4Q134.6 93.7 135.2 93.7L135.2 93.7Q135.6 93.7 135.9 93.6Q136.2 93.5 136.4 93.3Q136.6 93.1 136.8 92.8Q136.9 92.6 137.0 92.3L137.0 92.3L138.6 92.3Q138.6 92.8 138.3 93.3Q138.0 93.8 137.6 94.2Q137.2 94.6 136.6 94.9Q136.0 95.1 135.2 95.1ZM145.5 95L143.8 95L143.8 92.0L140.9 87.0L142.8 87.0L144.1 89.5Q144.4 89.9 144.5 90.2L144.5 90.2Q144.6 90.4 144.7 90.6L144.7 90.6Q144.7 90.4 144.8 90.2L144.8 90.2Q145.0 89.9 145.2 89.5L145.2 89.5L146.5 87.0L148.4 87.0L145.5 92.0L145.5 95Z "/></g><mask id="satori_om-id-1"><rect x="222" y="44" width="76" height="53" fill="#fff"/></mask><mask id="satori_om-id-1-0"><rect x="222" y="44" width="76" height="34" fill="#fff"/></mask><g  ><path fill="#f97316" d="M232.6 73.4L232.6 73.4Q230.1 73.4 228.2 72.4Q226.3 71.4 225.2 69.8Q224.1 68.2 223.8 66.1L223.8 66.1L228.8 66.1Q229.1 67.4 230.1 68.2Q231.1 69.0 232.6 69.0L232.6 69.0Q234.2 69.0 235.3 68.0Q236.4 67.1 237.0 65.3Q237.6 63.5 237.6 61.0L237.6 61.0L237.4 61.0Q236.8 62.1 235.9 62.9Q235.0 63.7 233.8 64.1Q232.6 64.5 231.2 64.5L231.2 64.5Q229.0 64.5 227.3 63.5Q225.5 62.5 224.5 60.6Q223.6 58.8 223.6 56.5L223.6 56.5Q223.6 54.0 224.7 52.1Q225.9 50.1 228.0 49.0Q230.0 47.9 232.8 47.9L232.8 47.9Q234.7 47.9 236.4 48.5Q238.1 49.2 239.5 50.6Q240.9 52.0 241.7 54.3Q242.5 56.6 242.5 60.0L242.5 60.0Q242.5 63.2 241.8 65.6Q241.1 68.1 239.8 69.8Q238.5 71.6 236.7 72.5Q234.8 73.4 232.6 73.4ZM232.7 60.8L232.7 60.8Q233.7 60.8 234.4 60.4Q235.2 60.1 235.8 59.5Q236.4 58.9 236.7 58.1Q237.1 57.3 237.1 56.3L237.1 56.3Q237.1 55.2 236.5 54.2Q235.9 53.2 235.0 52.6Q234.0 51.9 232.8 51.9L232.8 51.9Q231.6 51.9 230.6 52.5Q229.6 53.1 229.1 54.1Q228.5 55.1 228.5 56.4L228.5 56.4Q228.5 57.6 229.0 58.6Q229.6 59.6 230.6 60.2Q231.5 60.8 232.7 60.8ZM254.4 73.3L254.4 73.3Q252.6 73.3 250.8 72.7Q249.0 72.1 247.7 70.7Q246.3 69.3 245.5 66.9Q244.6 64.6 244.6 61.2L244.6 61.2Q244.6 58.1 245.3 55.6Q246.0 53.2 247.3 51.5Q248.7 49.7 250.5 48.8Q252.3 47.9 254.6 47.9L254.6 47.9Q257.1 47.9 258.9 48.9Q260.8 49.8 262.0 51.5Q263.1 53.1 263.4 55.1L263.4 55.1L258.4 55.1Q258.1 53.8 257.1 53.1Q256.1 52.3 254.6 52.3L254.6 52.3Q253.0 52.3 251.9 53.3Q250.8 54.2 250.2 56.0Q249.6 57.8 249.6 60.2L249.6 60.2L249.8 60.2Q250.4 59.1 251.3 58.3Q252.2 57.6 253.4 57.2Q254.7 56.7 256.0 56.7L256.0 56.7Q258.2 56.7 259.9 57.8Q261.6 58.8 262.6 60.6Q263.6 62.4 263.6 64.7L263.6 64.7Q263.6 67.2 262.5 69.2Q261.3 71.1 259.2 72.2Q257.2 73.3 254.4 73.3ZM254.4 69.3L254.4 69.3Q255.6 69.3 256.6 68.7Q257.6 68.1 258.1 67.1Q258.7 66.1 258.7 64.9L258.7 64.9Q258.7 63.6 258.1 62.6Q257.6 61.6 256.6 61.0Q255.7 60.4 254.4 60.4L254.4 60.4Q253.5 60.4 252.7 60.8Q252.0 61.1 251.4 61.8Q250.8 62.4 250.5 63.2Q250.1 64.0 250.1 64.9L250.1 64.9Q250.1 66.1 250.7 67.1Q251.2 68.1 252.2 68.7Q253.2 69.3 254.4 69.3ZM272.6 60.1L272.6 60.1Q270.9 60.1 269.7 59.3Q268.5 58.6 267.9 57.3Q267.2 56.1 267.2 54.6L267.2 54.6L267.2 53.3Q267.2 51.8 267.9 50.6Q268.5 49.4 269.7 48.6Q270.9 47.9 272.6 47.9L272.6 47.9Q274.4 47.9 275.6 48.6Q276.8 49.4 277.4 50.6Q278.0 51.8 278.0 53.3L278.0 53.3L278.0 54.6Q278.0 56.1 277.4 57.4Q276.8 58.6 275.6 59.3Q274.4 60.1 272.6 60.1ZM272.6 57.0L272.6 57.0Q273.8 57.0 274.2 56.3Q274.6 55.5 274.6 54.6L274.6 54.6L274.6 53.3Q274.6 52.4 274.2 51.7Q273.8 50.9 272.6 50.9L272.6 50.9Q271.5 50.9 271.1 51.7Q270.7 52.5 270.7 53.3L270.7 53.3L270.7 54.6Q270.7 55.5 271.1 56.3Q271.5 57.0 272.6 57.0ZM290.2 73.4L290.2 73.4Q288.5 73.4 287.3 72.7Q286.1 71.9 285.4 70.7Q284.8 69.4 284.8 68.0L284.8 68.0L284.8 66.7Q284.8 65.2 285.4 64.0Q286.1 62.7 287.3 62.0Q288.5 61.2 290.2 61.2L290.2 61.2Q292.0 61.2 293.2 62.0Q294.4 62.7 295.0 64.0Q295.6 65.2 295.6 66.7L295.6 66.7L295.6 68.0Q295.6 69.5 295.0 70.7Q294.4 72.0 293.2 72.7Q292.0 73.4 290.2 73.4ZM290.2 70.4L290.2 70.4Q291.3 70.4 291.7 69.6Q292.1 68.9 292.1 68.0L292.1 68.0L292.1 66.7Q292.1 65.8 291.7 65.0Q291.4 64.3 290.2 64.3L290.2 64.3Q289.1 64.3 288.7 65.0Q288.3 65.8 288.3 66.7L288.3 66.7L288.3 68.0Q288.3 68.9 288.7 69.6Q289.1 70.4 290.2 70.4ZM274.6 73L271.1 73L288.1 48.3L291.6 48.3L274.6 73Z "/></g><mask id="satori_om-id-1-1"><rect x="224" y="84" width="73" height="13" fill="#fff"/></mask><g  ><path fill="#666" d="M226.4 95L224.7 95L224.7 87.0L227.8 87.0Q228.8 87.0 229.4 87.3Q230.0 87.7 230.4 88.3Q230.7 88.9 230.7 89.7L230.7 89.7Q230.7 90.5 230.4 91.1Q230.0 91.7 229.4 92.0Q228.7 92.4 227.8 92.4L227.8 92.4L226.4 92.4L226.4 95ZM226.4 88.4L226.4 91.1L227.5 91.1Q228.0 91.1 228.4 90.9Q228.7 90.7 228.9 90.4Q229.0 90.1 229.0 89.7Q229.0 89.3 228.9 89.0Q228.7 88.7 228.4 88.5Q228.0 88.4 227.5 88.4L227.5 88.4L226.4 88.4ZM235.0 95L233.4 95L233.4 87.0L236.5 87.0Q237.4 87.0 238.0 87.3Q238.7 87.6 239.0 88.2Q239.3 88.8 239.3 89.6Q239.3 90.4 239.0 91.0Q238.7 91.5 238.0 91.8L238.0 91.8Q238.0 91.9 237.9 91.9L237.9 91.9L239.6 95L237.8 95L236.3 92.1L235.0 92.1L235.0 95ZM235.0 88.4L235.0 90.8L236.2 90.8Q236.7 90.8 237.0 90.7Q237.3 90.5 237.5 90.3Q237.6 90.0 237.6 89.6L237.6 89.6Q237.6 89.2 237.5 88.9Q237.3 88.6 237.0 88.5Q236.7 88.4 236.2 88.4L236.2 88.4L235.0 88.4ZM247.4 95L242.1 95L242.1 87.0L247.4 87.0L247.4 88.4L243.7 88.4L243.7 90.3L247.2 90.3L247.2 91.6L243.7 91.6L243.7 93.6L247.4 93.6L247.4 95ZM253.8 95.1L253.8 95.1Q252.7 95.1 251.9 94.6Q251.0 94.1 250.5 93.2Q250.0 92.3 250.0 91.0L250.0 91.0Q250.0 89.7 250.5 88.8Q251.0 87.9 251.9 87.4Q252.7 86.9 253.8 86.9L253.8 86.9Q254.4 86.9 255.0 87.1Q255.6 87.3 256.1 87.6Q256.5 88.0 256.8 88.5Q257.1 89.1 257.2 89.7L257.2 89.7L255.5 89.7Q255.5 89.4 255.3 89.1Q255.2 88.9 254.9 88.7Q254.7 88.5 254.4 88.4Q254.1 88.3 253.8 88.3L253.8 88.3Q253.2 88.3 252.7 88.7Q252.2 89.0 252.0 89.6Q251.7 90.2 251.7 91.0L251.7 91.0Q251.7 91.9 252.0 92.5Q252.2 93.1 252.7 93.4Q253.2 93.7 253.8 93.7L253.8 93.7Q254.1 93.7 254.4 93.6Q254.7 93.5 254.9 93.3Q255.2 93.1 255.3 92.8Q255.5 92.6 255.5 92.3L255.5 92.3L257.2 92.3Q257.1 92.8 256.9 93.3Q256.6 93.8 256.2 94.2Q255.7 94.6 255.1 94.9Q254.5 95.1 253.8 95.1ZM259.9 87.0L261.5 87.0L261.5 95L259.9 95L259.9 87.0ZM267.4 95.1L267.4 95.1Q266.5 95.1 265.7 94.8Q265.0 94.5 264.6 93.9Q264.2 93.4 264.2 92.5L264.2 92.5L265.8 92.5Q265.8 92.9 266.1 93.2Q266.3 93.5 266.6 93.6Q267.0 93.7 267.4 93.7L267.4 93.7Q267.8 93.7 268.2 93.6Q268.5 93.5 268.7 93.2Q268.9 93.0 268.9 92.7L268.9 92.7Q268.9 92.4 268.7 92.3Q268.5 92.1 268.2 91.9Q267.9 91.8 267.5 91.7L267.5 91.7L266.6 91.5Q265.6 91.2 265.0 90.7Q264.4 90.2 264.4 89.3L264.4 89.3Q264.4 88.6 264.8 88.0Q265.2 87.5 265.9 87.2Q266.6 86.9 267.4 86.9L267.4 86.9Q268.3 86.9 269.0 87.2Q269.6 87.5 270.0 88.0Q270.4 88.6 270.4 89.3L270.4 89.3L268.8 89.3Q268.8 88.8 268.4 88.5Q268.0 88.3 267.4 88.3L267.4 88.3Q267.0 88.3 266.7 88.4Q266.4 88.5 266.3 88.7Q266.1 88.9 266.1 89.2L266.1 89.2Q266.1 89.5 266.3 89.7Q266.5 89.9 266.8 90.0Q267.1 90.1 267.4 90.2L267.4 90.2L268.1 90.4Q268.6 90.5 269.1 90.7Q269.5 90.9 269.8 91.2Q270.1 91.4 270.3 91.8Q270.5 92.2 270.5 92.7L270.5 92.7Q270.5 93.4 270.1 94.0Q269.8 94.5 269.1 94.8Q268.4 95.1 267.4 95.1ZM273.2 87.0L274.8 87.0L274.8 95L273.2 95L273.2 87.0ZM281.3 95.1L281.3 95.1Q280.2 95.1 279.4 94.6Q278.5 94.1 278.0 93.2Q277.6 92.3 277.6 91.0L277.6 91.0Q277.6 89.7 278.0 88.8Q278.5 87.9 279.4 87.4Q280.2 86.9 281.3 86.9L281.3 86.9Q282.4 86.9 283.2 87.4Q284.0 87.9 284.5 88.8Q285.0 89.7 285.0 91.0L285.0 91.0Q285.0 92.3 284.5 93.2Q284.0 94.1 283.2 94.6Q282.4 95.1 281.3 95.1ZM281.3 93.7L281.3 93.7Q281.9 93.7 282.4 93.3Q282.8 93.0 283.1 92.5Q283.4 91.9 283.4 91.0L283.4 91.0Q283.4 90.1 283.1 89.5Q282.8 89.0 282.4 88.6Q281.9 88.3 281.3 88.3L281.3 88.3Q280.7 88.3 280.2 88.7Q279.7 89.0 279.5 89.6Q279.2 90.1 279.2 91.0L279.2 91.0Q279.2 91.9 279.5 92.4Q279.7 93.0 280.2 93.3Q280.7 93.7 281.3 93.7ZM289.4 95L287.8 95L287.8 87.0L289.6 87.0L292.1 91.0Q292.3 91.4 292.5 91.7Q292.7 92.1 292.9 92.5L292.9 92.5Q293.0 92.8 293.1 93.0L293.1 93.0Q293.1 92.8 293.1 92.6L293.1 92.6Q293.1 92.1 293.0 91.6Q293.0 91.2 293.0 90.8L293.0 90.8L293.0 87.0L294.7 87.0L294.7 95L292.9 95L290.6 91.3Q290.3 90.9 290.1 90.5Q289.9 90.1 289.6 89.7L289.6 89.7Q289.5 89.4 289.3 89.0L289.3 89.0Q289.3 89.3 289.4 89.7L289.4 89.7Q289.4 90.2 289.4 90.6Q289.4 91.0 289.4 91.3L289.4 91.3L289.4 95Z "/></g><mask id="satori_om-id-2"><rect x="355" y="44" width="74" height="53" fill="#fff"/></mask><mask id="satori_om-id-2-0"><rect x="355" y="44" width="74" height="34" fill="#fff"/></mask><g  ><path fill="#eab308" d="M365.6 73.4L365.6 73.4Q363.1 73.4 361.2 72.4Q359.3 71.4 358.2 69.8Q357.1 68.2 356.8 66.1L356.8 66.1L361.8 66.1Q362.1 67.4 363.1 68.2Q364.1 69.0 365.6 69.0L365.6 69.0Q367.2 69.0 368.3 68.0Q369.4 67.1 370.0 65.3Q370.6 63.5 370.6 61.0L370.6 61.0L370.4 61.0Q369.8 62.1 368.9 62.9Q368.0 63.7 366.8 64.1Q365.6 64.5 364.2 64.5L364.2 64.5Q362.0 64.5 360.3 63.5Q358.5 62.5 357.5 60.6Q356.6 58.8 356.6 56.5L356.6 56.5Q356.6 54.0 357.7 52.1Q358.9 50.1 361.0 49.0Q363.0 47.9 365.8 47.9L365.8 47.9Q367.7 47.9 369.4 48.5Q371.1 49.2 372.5 50.6Q373.9 52.0 374.7 54.3Q375.5 56.6 375.5 60.0L375.5 60.0Q375.5 63.2 374.8 65.6Q374.1 68.1 372.8 69.8Q371.5 71.6 369.7 72.5Q367.8 73.4 365.6 73.4ZM365.7 60.8L365.7 60.8Q366.7 60.8 367.4 60.4Q368.2 60.1 368.8 59.5Q369.4 58.9 369.7 58.1Q370.1 57.3 370.1 56.3L370.1 56.3Q370.1 55.2 369.5 54.2Q368.9 53.2 368.0 52.6Q367.0 51.9 365.8 51.9L365.8 51.9Q364.6 51.9 363.6 52.5Q362.6 53.1 362.1 54.1Q361.5 55.1 361.5 56.4L361.5 56.4Q361.5 57.6 362.0 58.6Q362.6 59.6 363.6 60.2Q364.5 60.8 365.7 60.8ZM383.6 73L378.4 73L388.6 52.6L388.6 52.4L376.7 52.4L376.7 48.3L393.9 48.3L393.9 52.5L383.6 73ZM402.7 60.1L402.7 60.1Q400.9 60.1 399.7 59.3Q398.5 58.6 397.9 57.3Q397.3 56.1 397.3 54.6L397.3 54.6L397.3 53.3Q397.3 51.8 397.9 50.6Q398.5 49.4 399.7 48.6Q400.9 47.9 402.7 47.9L402.7 47.9Q404.4 47.9 405.6 48.6Q406.8 49.4 407.5 50.6Q408.1 51.8 408.1 53.3L408.1 53.3L408.1 54.6Q408.1 56.1 407.4 57.4Q406.8 58.6 405.6 59.3Q404.4 60.1 402.7 60.1ZM402.7 57.0L402.7 57.0Q403.8 57.0 404.2 56.3Q404.6 55.5 404.6 54.6L404.6 54.6L404.6 53.3Q404.6 52.4 404.2 51.7Q403.8 50.9 402.7 50.9L402.7 50.9Q401.6 50.9 401.2 51.7Q400.7 52.5 400.7 53.3L400.7 53.3L400.7 54.6Q400.7 55.5 401.2 56.3Q401.6 57.0 402.7 57.0ZM420.2 73.4L420.2 73.4Q418.5 73.4 417.3 72.7Q416.1 71.9 415.5 70.7Q414.8 69.4 414.8 68.0L414.8 68.0L414.8 66.7Q414.8 65.2 415.5 64.0Q416.1 62.7 417.3 62.0Q418.5 61.2 420.2 61.2L420.2 61.2Q422.0 61.2 423.2 62.0Q424.4 62.7 425.0 64.0Q425.6 65.2 425.6 66.7L425.6 66.7L425.6 68.0Q425.6 69.5 425.0 70.7Q424.4 72.0 423.2 72.7Q422.0 73.4 420.2 73.4ZM420.2 70.4L420.2 70.4Q421.3 70.4 421.8 69.6Q422.2 68.9 422.2 68.0L422.2 68.0L422.2 66.7Q422.2 65.8 421.8 65.0Q421.4 64.3 420.2 64.3L420.2 64.3Q419.1 64.3 418.7 65.0Q418.3 65.8 418.3 66.7L418.3 66.7L418.3 68.0Q418.3 68.9 418.7 69.6Q419.1 70.4 420.2 70.4ZM404.6 73L401.1 73L418.1 48.3L421.6 48.3L404.6 73Z "/></g><mask id="satori_om-id-2-1"><rect x="366" y="84" width="52" height="13" fill="#fff"/></mask><g  ><path fill="#666" d="M368.4 95L366.7 95L366.7 87.0L369.8 87.0Q370.8 87.0 371.4 87.3Q372.0 87.6 372.4 88.2Q372.7 88.8 372.7 89.6Q372.7 90.4 372.4 91.0Q372.0 91.5 371.4 91.8L371.4 91.8Q371.3 91.9 371.3 91.9L371.3 91.9L373.0 95L371.2 95L369.6 92.1L368.4 92.1L368.4 95ZM368.4 88.4L368.4 90.8L369.5 90.8Q370.0 90.8 370.4 90.7Q370.7 90.5 370.9 90.3Q371.0 90.0 371.0 89.6L371.0 89.6Q371.0 89.2 370.9 88.9Q370.7 88.6 370.4 88.5Q370.0 88.4 369.5 88.4L369.5 88.4L368.4 88.4ZM380.8 95L375.4 95L375.4 87.0L380.8 87.0L380.8 88.4L377.1 88.4L377.1 90.3L380.5 90.3L380.5 91.6L377.1 91.6L377.1 93.6L380.8 93.6L380.8 95ZM387.1 95.1L387.1 95.1Q386.1 95.1 385.2 94.6Q384.4 94.1 383.9 93.2Q383.4 92.3 383.4 91.0L383.4 91.0Q383.4 89.7 383.9 88.8Q384.4 87.9 385.2 87.4Q386.1 86.9 387.1 86.9L387.1 86.9Q387.8 86.9 388.4 87.1Q389.0 87.3 389.4 87.6Q389.9 88.0 390.2 88.5Q390.5 89.1 390.6 89.7L390.6 89.7L388.9 89.7Q388.9 89.4 388.7 89.1Q388.6 88.9 388.3 88.7Q388.1 88.5 387.8 88.4Q387.5 88.3 387.2 88.3L387.2 88.3Q386.5 88.3 386.1 88.7Q385.6 89.0 385.3 89.6Q385.1 90.2 385.1 91.0L385.1 91.0Q385.1 91.9 385.3 92.5Q385.6 93.1 386.1 93.4Q386.5 93.7 387.2 93.7L387.2 93.7Q387.5 93.7 387.8 93.6Q388.1 93.5 388.3 93.3Q388.6 93.1 388.7 92.8Q388.9 92.6 388.9 92.3L388.9 92.3L390.6 92.3Q390.5 92.8 390.2 93.3Q390.0 93.8 389.5 94.2Q389.1 94.6 388.5 94.9Q387.9 95.1 387.1 95.1ZM394.6 95L392.8 95L395.5 87.0L397.7 87.0L400.5 95L398.7 95L398.1 93.1L395.2 93.1L394.6 95ZM395.6 91.9L397.6 91.9L397.4 91.1Q397.2 90.4 396.9 89.5L396.9 89.5Q396.8 88.9 396.6 88.3L396.6 88.3Q396.4 88.9 396.3 89.5L396.3 89.5Q396.1 90.4 395.9 91.1L395.9 91.1L395.6 91.9ZM408.1 95L403.0 95L403.0 87.0L404.6 87.0L404.6 93.6L408.1 93.6L408.1 95ZM415.8 95L410.7 95L410.7 87.0L412.3 87.0L412.3 93.6L415.8 93.6L415.8 95Z "/></g><mask id="satori_om-id-3"><rect x="485" y="44" width="74" height="53" fill="#fff"/></mask><mask id="satori_om-id-3-0"><rect x="485" y="44" width="74" height="34" fill="#fff"/></mask><g  ><path fill="#22c55e" d="M495.6 73.4L495.6 73.4Q493.1 73.4 491.2 72.4Q489.3 71.4 488.2 69.8Q487.1 68.2 486.8 66.1L486.8 66.1L491.8 66.1Q492.1 67.4 493.1 68.2Q494.1 69.0 495.6 69.0L495.6 69.0Q497.2 69.0 498.3 68.0Q499.4 67.1 500.0 65.3Q500.6 63.5 500.6 61.0L500.6 61.0L500.4 61.0Q499.8 62.1 498.9 62.9Q498.0 63.7 496.8 64.1Q495.6 64.5 494.2 64.5L494.2 64.5Q492.0 64.5 490.3 63.5Q488.5 62.5 487.5 60.6Q486.6 58.8 486.6 56.5L486.6 56.5Q486.6 54.0 487.7 52.1Q488.9 50.1 491.0 49.0Q493.0 47.9 495.8 47.9L495.8 47.9Q497.7 47.9 499.4 48.5Q501.1 49.2 502.5 50.6Q503.9 52.0 504.7 54.3Q505.5 56.6 505.5 60.0L505.5 60.0Q505.5 63.2 504.8 65.6Q504.1 68.1 502.8 69.8Q501.5 71.6 499.7 72.5Q497.8 73.4 495.6 73.4ZM495.7 60.8L495.7 60.8Q496.7 60.8 497.4 60.4Q498.2 60.1 498.8 59.5Q499.4 58.9 499.7 58.1Q500.1 57.3 500.1 56.3L500.1 56.3Q500.1 55.2 499.5 54.2Q498.9 53.2 498.0 52.6Q497.0 51.9 495.8 51.9L495.8 51.9Q494.6 51.9 493.6 52.5Q492.6 53.1 492.1 54.1Q491.5 55.1 491.5 56.4L491.5 56.4Q491.5 57.6 492.0 58.6Q492.6 59.6 493.6 60.2Q494.5 60.8 495.7 60.8ZM513.6 73L508.4 73L518.6 52.6L518.6 52.4L506.7 52.4L506.7 48.3L523.9 48.3L523.9 52.5L513.6 73ZM532.7 60.1L532.7 60.1Q530.9 60.1 529.7 59.3Q528.5 58.6 527.9 57.3Q527.3 56.1 527.3 54.6L527.3 54.6L527.3 53.3Q527.3 51.8 527.9 50.6Q528.5 49.4 529.7 48.6Q530.9 47.9 532.7 47.9L532.7 47.9Q534.4 47.9 535.6 48.6Q536.8 49.4 537.5 50.6Q538.1 51.8 538.1 53.3L538.1 53.3L538.1 54.6Q538.1 56.1 537.4 57.4Q536.8 58.6 535.6 59.3Q534.4 60.1 532.7 60.1ZM532.7 57.0L532.7 57.0Q533.8 57.0 534.2 56.3Q534.6 55.5 534.6 54.6L534.6 54.6L534.6 53.3Q534.6 52.4 534.2 51.7Q533.8 50.9 532.7 50.9L532.7 50.9Q531.6 50.9 531.2 51.7Q530.7 52.5 530.7 53.3L530.7 53.3L530.7 54.6Q530.7 55.5 531.2 56.3Q531.6 57.0 532.7 57.0ZM550.2 73.4L550.2 73.4Q548.5 73.4 547.3 72.7Q546.1 71.9 545.5 70.7Q544.8 69.4 544.8 68.0L544.8 68.0L544.8 66.7Q544.8 65.2 545.5 64.0Q546.1 62.7 547.3 62.0Q548.5 61.2 550.2 61.2L550.2 61.2Q552.0 61.2 553.2 62.0Q554.4 62.7 555.0 64.0Q555.6 65.2 555.6 66.7L555.6 66.7L555.6 68.0Q555.6 69.5 555.0 70.7Q554.4 72.0 553.2 72.7Q552.0 73.4 550.2 73.4ZM550.2 70.4L550.2 70.4Q551.3 70.4 551.8 69.6Q552.2 68.9 552.2 68.0L552.2 68.0L552.2 66.7Q552.2 65.8 551.8 65.0Q551.4 64.3 550.2 64.3L550.2 64.3Q549.1 64.3 548.7 65.0Q548.3 65.8 548.3 66.7L548.3 66.7L548.3 68.0Q548.3 68.9 548.7 69.6Q549.1 70.4 550.2 70.4ZM534.6 73L531.1 73L548.1 48.3L551.6 48.3L534.6 73Z "/></g><mask id="satori_om-id-3-1"><rect x="490" y="84" width="64" height="13" fill="#fff"/></mask><g  ><path fill="#666" d="M492.4 95L490.7 95L490.7 87.0L496.0 87.0L496.0 88.4L492.4 88.4L492.4 90.6L495.6 90.6L495.6 91.9L492.4 91.9L492.4 95ZM500.2 87.0L502.0 87.0L502.0 95L500.3 95L500.3 88.4L500.3 88.4L498.5 89.7L498.5 88.2L500.2 87.0Z M512.0 95.1L512.0 95.1Q511 95.1 510.3 94.8Q509.6 94.5 509.2 93.9Q508.8 93.4 508.8 92.5L508.8 92.5L510.4 92.5Q510.4 92.9 510.6 93.2Q510.8 93.5 511.2 93.6Q511.5 93.7 511.9 93.7L511.9 93.7Q512.4 93.7 512.7 93.6Q513.0 93.5 513.2 93.2Q513.4 93.0 513.4 92.7L513.4 92.7Q513.4 92.4 513.2 92.3Q513.1 92.1 512.8 91.9Q512.5 91.8 512.0 91.7L512.0 91.7L511.1 91.5Q510.1 91.2 509.5 90.7Q509.0 90.2 509.0 89.3L509.0 89.3Q509.0 88.6 509.4 88.0Q509.8 87.5 510.4 87.2Q511.1 86.9 512.0 86.9L512.0 86.9Q512.9 86.9 513.5 87.2Q514.2 87.5 514.6 88.0Q514.9 88.6 514.9 89.3L514.9 89.3L513.4 89.3Q513.3 88.8 512.9 88.5Q512.6 88.3 512.0 88.3L512.0 88.3Q511.6 88.3 511.3 88.4Q511.0 88.5 510.8 88.7Q510.7 88.9 510.7 89.2L510.7 89.2Q510.7 89.5 510.8 89.7Q511.0 89.9 511.3 90.0Q511.6 90.1 511.9 90.2L511.9 90.2L512.7 90.4Q513.2 90.5 513.6 90.7Q514.0 90.9 514.4 91.2Q514.7 91.4 514.9 91.8Q515.0 92.2 515.0 92.7L515.0 92.7Q515.0 93.4 514.7 94.0Q514.3 94.5 513.6 94.8Q512.9 95.1 512.0 95.1ZM521.2 95.1L521.2 95.1Q520.2 95.1 519.3 94.6Q518.5 94.1 518.0 93.2Q517.5 92.3 517.5 91.0L517.5 91.0Q517.5 89.7 518 88.8Q518.5 87.9 519.3 87.4Q520.2 86.9 521.2 86.9L521.2 86.9Q521.9 86.9 522.5 87.1Q523.1 87.3 523.5 87.6Q524.0 88.0 524.3 88.5Q524.6 89.1 524.7 89.7L524.7 89.7L523.0 89.7Q523.0 89.4 522.8 89.1Q522.7 88.9 522.4 88.7Q522.2 88.5 521.9 88.4Q521.6 88.3 521.3 88.3L521.3 88.3Q520.6 88.3 520.2 88.7Q519.7 89.0 519.4 89.6Q519.2 90.2 519.2 91.0L519.2 91.0Q519.2 91.9 519.4 92.5Q519.7 93.1 520.2 93.4Q520.6 93.7 521.3 93.7L521.3 93.7Q521.6 93.7 521.9 93.6Q522.2 93.5 522.4 93.3Q522.7 93.1 522.8 92.8Q523.0 92.6 523.0 92.3L523.0 92.3L524.7 92.3Q524.6 92.8 524.3 93.3Q524.1 93.8 523.6 94.2Q523.2 94.6 522.6 94.9Q522.0 95.1 521.2 95.1ZM530.9 95.1L530.9 95.1Q529.8 95.1 529.0 94.6Q528.1 94.1 527.6 93.2Q527.1 92.3 527.1 91.0L527.1 91.0Q527.1 89.7 527.6 88.8Q528.1 87.9 529.0 87.4Q529.8 86.9 530.9 86.9L530.9 86.9Q531.9 86.9 532.8 87.4Q533.6 87.9 534.1 88.8Q534.6 89.7 534.6 91.0L534.6 91.0Q534.6 92.3 534.1 93.2Q533.6 94.1 532.8 94.6Q531.9 95.1 530.9 95.1ZM530.9 93.7L530.9 93.7Q531.5 93.7 532.0 93.3Q532.4 93.0 532.7 92.5Q532.9 91.9 532.9 91.0L532.9 91.0Q532.9 90.1 532.7 89.5Q532.4 89.0 532.0 88.6Q531.5 88.3 530.9 88.3L530.9 88.3Q530.3 88.3 529.8 88.7Q529.3 89.0 529.1 89.6Q528.8 90.1 528.8 91.0L528.8 91.0Q528.8 91.9 529.1 92.4Q529.3 93.0 529.8 93.3Q530.3 93.7 530.9 93.7ZM539.0 95L537.3 95L537.3 87.0L540.5 87.0Q541.4 87.0 542.0 87.3Q542.7 87.6 543.0 88.2Q543.3 88.8 543.3 89.6Q543.3 90.4 543.0 91.0Q542.6 91.5 542.0 91.8L542.0 91.8Q542.0 91.9 541.9 91.9L541.9 91.9L543.6 95L541.8 95L540.3 92.1L539.0 92.1L539.0 95ZM539.0 88.4L539.0 90.8L540.2 90.8Q540.7 90.8 541.0 90.7Q541.3 90.5 541.5 90.3Q541.6 90.0 541.6 89.6L541.6 89.6Q541.6 89.2 541.5 88.9Q541.3 88.6 541.0 88.5Q540.7 88.4 540.2 88.4L540.2 88.4L539.0 88.4ZM551.4 95L546.1 95L546.1 87.0L551.4 87.0L551.4 88.4L547.7 88.4L547.7 90.3L551.1 90.3L551.1 91.6L547.7 91.6L547.7 93.6L551.4 93.6L551.4 95Z "/></g><mask id="satori_om-id-4"><rect x="616" y="44" width="124" height="53" fill="#fff"/></mask><mask id="satori_om-id-4-0"><rect x="630" y="44" width="97" height="34" fill="#fff"/></mask><g  ><path fill="#3b82f6" d="M640.9 73.3L640.9 73.3Q638.3 73.3 636.2 72.4Q634.1 71.5 632.9 69.8Q631.7 68.2 631.6 66.1L631.6 66.1L636.7 66.1Q636.8 67.0 637.3 67.7Q637.9 68.4 638.8 68.8Q639.8 69.1 641.0 69.1L641.0 69.1Q642.2 69.1 643.1 68.7Q644.0 68.3 644.6 67.5Q645.1 66.8 645.1 65.7L645.1 65.7Q645.1 64.7 644.6 63.9Q644.0 63.2 643.0 62.7Q641.9 62.3 640.5 62.3L640.5 62.3L638.2 62.3L638.2 58.5L640.5 58.5Q641.7 58.5 642.6 58.1Q643.5 57.7 644.1 56.9Q644.6 56.2 644.6 55.2L644.6 55.2Q644.6 54.2 644.1 53.5Q643.7 52.8 642.9 52.4Q642.1 52.0 641.0 52.0L641.0 52.0Q639.9 52.0 639.0 52.4Q638.1 52.8 637.6 53.5Q637.0 54.2 637.0 55.1L637.0 55.1L632.1 55.1Q632.2 53.0 633.3 51.4Q634.5 49.8 636.5 48.8Q638.5 47.9 641.0 47.9L641.0 47.9Q643.6 47.9 645.5 48.9Q647.4 49.8 648.4 51.4Q649.5 52.9 649.5 54.9L649.5 54.9Q649.5 56.9 648.2 58.3Q646.9 59.7 644.9 60.1L644.9 60.1L644.9 60.3Q646.7 60.5 647.9 61.3Q649.1 62.1 649.8 63.3Q650.4 64.5 650.4 66.1L650.4 66.1Q650.4 68.2 649.2 69.8Q648.0 71.5 645.8 72.4Q643.7 73.3 640.9 73.3Z M666.4 47.1L670.7 47.1L662.8 76.7L658.5 76.7L666.4 47.1Z M684.3 48.3L689.7 48.3L689.7 73L684.6 73L684.6 52.7L684.5 52.7L678.8 56.7L678.8 52.1L684.3 48.3ZM697.9 48.3L703.3 48.3L703.3 73L698.3 73L698.3 52.7L698.1 52.7L692.5 56.7L692.5 52.1L697.9 48.3ZM718.1 68.6L706.2 68.6L706.2 64.6L716.6 48.3L722.9 48.3L722.9 64.5L726.0 64.5L726.0 68.6L722.9 68.6L722.9 73L718.1 73L718.1 68.6ZM711.4 64.5L718.2 64.5L718.2 53.8L718.0 53.8L711.4 64.3L711.4 64.5Z "/></g><mask id="satori_om-id-4-1"><rect x="616" y="84" width="124" height="13" fill="#fff"/></mask><g  ><path fill="#666" d="M618.4 95L616.7 95L616.7 87.0L622.0 87.0L622.0 88.4L618.4 88.4L618.4 90.6L621.6 90.6L621.6 91.9L618.4 91.9L618.4 95ZM626.0 95L624.2 95L627.0 87.0L629.1 87.0L631.9 95L630.1 95L629.5 93.1L626.6 93.1L626.0 95ZM627.0 91.9L629.0 91.9L628.8 91.1Q628.6 90.4 628.3 89.5L628.3 89.5Q628.2 88.9 628.0 88.3L628.0 88.3Q627.9 88.9 627.7 89.5L627.7 89.5Q627.5 90.4 627.3 91.1L627.3 91.1L627.0 91.9ZM639.5 95L634.4 95L634.4 87.0L636.0 87.0L636.0 93.6L639.5 93.6L639.5 95ZM645.0 95.1L645.0 95.1Q644.1 95.1 643.4 94.8Q642.7 94.5 642.3 93.9Q641.9 93.4 641.8 92.5L641.8 92.5L643.4 92.5Q643.5 92.9 643.7 93.2Q643.9 93.5 644.2 93.6Q644.6 93.7 645.0 93.7L645.0 93.7Q645.5 93.7 645.8 93.6Q646.1 93.5 646.3 93.2Q646.5 93.0 646.5 92.7L646.5 92.7Q646.5 92.4 646.3 92.3Q646.2 92.1 645.9 91.9Q645.5 91.8 645.1 91.7L645.1 91.7L644.2 91.5Q643.2 91.2 642.6 90.7Q642.1 90.2 642.1 89.3L642.1 89.3Q642.1 88.6 642.4 88.0Q642.8 87.5 643.5 87.2Q644.2 86.9 645.1 86.9L645.1 86.9Q646.0 86.9 646.6 87.2Q647.3 87.5 647.6 88.0Q648.0 88.6 648.0 89.3L648.0 89.3L646.4 89.3Q646.4 88.8 646.0 88.5Q645.7 88.3 645.1 88.3L645.1 88.3Q644.6 88.3 644.3 88.4Q644.0 88.5 643.9 88.7Q643.7 88.9 643.7 89.2L643.7 89.2Q643.7 89.5 643.9 89.7Q644.1 89.9 644.4 90.0Q644.7 90.1 645.0 90.2L645.0 90.2L645.7 90.4Q646.2 90.5 646.7 90.7Q647.1 90.9 647.4 91.2Q647.8 91.4 648.0 91.8Q648.1 92.2 648.1 92.7L648.1 92.7Q648.1 93.4 647.8 94.0Q647.4 94.5 646.7 94.8Q646.0 95.1 645.0 95.1ZM656.2 95L650.8 95L650.8 87.0L656.2 87.0L656.2 88.4L652.5 88.4L652.5 90.3L655.9 90.3L655.9 91.6L652.5 91.6L652.5 93.6L656.2 93.6L656.2 95Z M664.8 95L663.1 95L663.1 87.0L664.9 87.0L667.5 91.0Q667.7 91.4 667.9 91.7Q668.0 92.1 668.3 92.5L668.3 92.5Q668.4 92.8 668.5 93.0L668.5 93.0Q668.4 92.8 668.4 92.6L668.4 92.6Q668.4 92.1 668.4 91.6Q668.4 91.2 668.4 90.8L668.4 90.8L668.4 87.0L670.0 87.0L670.0 95L668.2 95L665.9 91.3Q665.7 90.9 665.4 90.5Q665.2 90.1 665.0 89.7L665.0 89.7Q664.8 89.4 664.7 89.0L664.7 89.0Q664.7 89.3 664.7 89.7L664.7 89.7Q664.7 90.2 664.8 90.6Q664.8 91.0 664.8 91.3L664.8 91.3L664.8 95ZM678.4 95L673.0 95L673.0 87.0L678.3 87.0L678.3 88.4L674.6 88.4L674.6 90.3L678.1 90.3L678.1 91.6L674.6 91.6L674.6 93.6L678.4 93.6L678.4 95ZM684.7 95.1L684.7 95.1Q683.6 95.1 682.7 94.6Q681.9 94.1 681.4 93.2Q680.9 92.3 680.9 91.0L680.9 91.0Q680.9 89.7 681.4 88.8Q681.9 87.9 682.8 87.4Q683.6 86.9 684.7 86.9L684.7 86.9Q685.4 86.9 685.9 87.1Q686.5 87.3 687.0 87.6Q687.4 88.0 687.7 88.5Q688.0 89.0 688.1 89.6L688.1 89.6L686.4 89.6Q686.3 89.3 686.2 89.1Q686.0 88.8 685.8 88.7Q685.6 88.5 685.3 88.4Q685.0 88.3 684.7 88.3L684.7 88.3Q684.1 88.3 683.6 88.7Q683.1 89.0 682.9 89.6Q682.6 90.1 682.6 91.0Q682.6 91.8 682.9 92.4Q683.1 93.0 683.6 93.3Q684.1 93.7 684.7 93.7L684.7 93.7Q685.3 93.7 685.7 93.4Q686.1 93.2 686.4 92.8L686.4 92.8Q686.6 92.5 686.6 92.0L686.6 92.0L684.8 92.0L684.8 90.7L688.2 90.7L688.2 91.7Q688.2 92.8 687.7 93.5Q687.3 94.3 686.5 94.7Q685.7 95.1 684.7 95.1ZM692.3 95L690.5 95L693.2 87.0L695.3 87.0L698.1 95L696.3 95L695.7 93.1L692.9 93.1L692.3 95ZM693.3 91.9L695.3 91.9L695.0 91.1Q694.8 90.4 694.6 89.5L694.6 89.5Q694.4 88.9 694.3 88.3L694.3 88.3Q694.1 88.9 694.0 89.5L694.0 89.5Q693.7 90.4 693.5 91.1L693.5 91.1L693.3 91.9ZM702.8 88.4L700.3 88.4L700.3 87.0L706.9 87.0L706.9 88.4L704.4 88.4L704.4 95L702.8 95L702.8 88.4ZM709.5 87.0L711.1 87.0L711.1 95L709.5 95L709.5 87.0ZM718.6 95L716.4 95L713.6 87.0L715.4 87.0L716.7 90.9Q716.9 91.6 717.2 92.5L717.2 92.5Q717.3 93.0 717.5 93.7L717.5 93.7Q717.7 93.0 717.8 92.5L717.8 92.5Q718.0 91.6 718.2 90.9L718.2 90.9L719.5 87.0L721.3 87.0L718.6 95ZM729.1 95L723.8 95L723.8 87.0L729.1 87.0L729.1 88.4L725.4 88.4L725.4 90.3L728.9 90.3L728.9 91.6L725.4 91.6L725.4 93.6L729.1 93.6L729.1 95ZM734.9 95.1L734.9 95.1Q733.9 95.1 733.2 94.8Q732.5 94.5 732.1 93.9Q731.7 93.4 731.7 92.5L731.7 92.5L733.3 92.5Q733.3 92.9 733.5 93.2Q733.7 93.5 734.1 93.6Q734.4 93.7 734.9 93.7L734.9 93.7Q735.3 93.7 735.6 93.6Q736.0 93.5 736.2 93.2Q736.3 93.0 736.3 92.7L736.3 92.7Q736.3 92.4 736.2 92.3Q736.0 92.1 735.7 91.9Q735.4 91.8 735.0 91.7L735.0 91.7L734.1 91.5Q733.1 91.2 732.5 90.7Q731.9 90.2 731.9 89.3L731.9 89.3Q731.9 88.6 732.3 88.0Q732.7 87.5 733.4 87.2Q734.0 86.9 734.9 86.9L734.9 86.9Q735.8 86.9 736.5 87.2Q737.1 87.5 737.5 88.0Q737.9 88.6 737.9 89.3L737.9 89.3L736.3 89.3Q736.2 88.8 735.9 88.5Q735.5 88.3 734.9 88.3L734.9 88.3Q734.5 88.3 734.2 88.4Q733.9 88.5 733.7 88.7Q733.6 88.9 733.6 89.2L733.6 89.2Q733.6 89.5 733.8 89.7Q733.9 89.9 734.2 90.0Q734.5 90.1 734.9 90.2L734.9 90.2L735.6 90.4Q736.1 90.5 736.5 90.7Q737.0 90.9 737.3 91.2Q737.6 91.4 737.8 91.8Q738.0 92.2 738.0 92.7L738.0 92.7Q738.0 93.4 737.6 94.0Q737.3 94.5 736.6 94.8Q735.9 95.1 734.9 95.1Z "/></g></svg>