<!-- Generated by readme-aura https://github.com/collectioneur/readme-aura -->
<svg width="800" height="200" viewBox="0 0 800 200" xmlns="http://www.w3.org/2000/svg"><mask id="satori_om-id"><rect x="0" y="0" width="800" height="200" fill="#fff"/></mask><rect x="0" y="0" width="800" height="200" fill="#0a0a0a"/><defs><pattern id="satori_pattern_id-0_0" x="0" y="0" width="1" height="1" patternUnits="objectBoundingBox"><linearGradient id="satori_biid-0_0" x1="-0.08426966292134852" y1="0.1348314606741579" x2="1.0842696629213484" y2="0.8651685393258421" spreadMethod="pad"><stop offset="0%" stop-color="#1a0000"/><stop offset="60%" stop-color="#0a0a0a"/><stop offset="100%" stop-color="#0a0a0a"/></linearGradient><rect x="0" y="0" width="320" height="200" fill="url(#satori_biid-0_0)"/></pattern></defs><mask id="satori_om-id-0"><rect x="480" y="0" width="320" height="200" fill="#fff"/></mask><g opacity="0.8"><rect x="480" y="0" width="320" height="200" fill="url(#satori_pattern_id-0_0)"/></g><mask id="satori_om-id-1"><rect x="48" y="34" width="220" height="15" fill="#fff"/></mask><mask id="satori_ms-id-1-0-0" maskUnits="userSpaceOnUse"><rect x="0" y="0" width="800" height="200" fill="#fff"/><path x="48" y="37" width="10" height="10" fill="#000"  stroke-width="0" d="M53,37 h0 a5,5 0 0 1 5,5 v0 a5,5 0 0 1 -5,5 h0 a5,5 0 0 1 -5,-5 v0 a5,5 0 0 1 5,-5"/></mask><defs><filter id="satori_s-id-1-0-0" x="-360%" y="-360%" width="819.9999999999999%" height="819.9999999999999%"><feGaussianBlur stdDeviation="6" result="b"/><feFlood flood-color="#ef4444" in="SourceGraphic" result="f"/><feComposite in="f" in2="b" operator="in"/></filter></defs><g mask="url(#satori_ms-id-1-0-0)" filter="url(#satori_s-id-1-0-0)" opacity="1"><path x="48" y="37" width="10" height="10" fill="#fff" stroke="#fff" stroke-width="0" d="M53,37 h0 a5,5 0 0 1 5,5 v0 a5,5 0 0 1 -5,5 h0 a5,5 0 0 1 -5,-5 v0 a5,5 0 0 1 5,-5"/></g><mask id="satori_om-id-1-0"><rect x="48" y="37" width="10" height="10" fill="#fff"/></mask><path x="48" y="37" width="10" height="10" fill="#ef4444" d="M53,37 h0 a5,5 0 0 1 5,5 v0 a5,5 0 0 1 -5,5 h0 a5,5 0 0 1 -5,-5 v0 a5,5 0 0 1 5,-5"/><mask id="satori_om-id-1-1"><rect x="72" y="34" width="196" height="15" fill="#fff"/></mask><g  ><path fill="#ef4444" d="M74.6 46L72.8 46L72.8 37.3L75.5 37.3L77.0 41.3Q77.0 41.6 77.2 42.0Q77.3 42.4 77.4 43.0L77.4 43.0Q77.5 43.5 77.6 43.9L77.6 43.9Q77.7 43.5 77.8 43.0L77.8 43.0Q77.9 42.5 78.0 42.0Q78.2 41.6 78.2 41.3L78.2 41.3L79.6 37.3L82.4 37.3L82.4 46L80.6 46L80.6 41.9Q80.6 41.6 80.6 41.2Q80.6 40.7 80.6 40.2Q80.6 39.8 80.7 39.3L80.7 39.3Q80.7 39.0 80.7 38.8L80.7 38.8Q80.6 39.1 80.5 39.3L80.5 39.3Q80.4 39.8 80.3 40.3Q80.1 40.8 80.0 41.2Q79.9 41.6 79.8 41.9L79.8 41.9L78.3 46L76.8 46L75.4 41.9Q75.3 41.6 75.2 41.2Q75.0 40.8 74.9 40.3Q74.8 39.8 74.6 39.3L74.6 39.3Q74.6 39.1 74.5 38.9L74.5 38.9Q74.5 39.0 74.5 39.2L74.5 39.2Q74.5 39.7 74.5 40.2Q74.5 40.7 74.6 41.2Q74.6 41.6 74.6 41.9L74.6 41.9L74.6 46ZM92.8 46L87.0 46L87.0 37.3L92.8 37.3L92.8 38.8L88.8 38.8L88.8 40.9L92.5 40.9L92.5 42.3L88.8 42.3L88.8 44.5L92.8 44.5L92.8 46ZM100.3 46L100.3 46L97.3 46L97.3 37.3L100.4 37.3Q101.7 37.3 102.6 37.8Q103.6 38.3 104.1 39.3Q104.6 40.3 104.6 41.6L104.6 41.6Q104.6 43.0 104.1 44.0Q103.6 45.0 102.6 45.5Q101.7 46 100.3 46ZM99.0 38.8L99.0 44.5L100.2 44.5Q101.1 44.5 101.7 44.2Q102.2 43.9 102.5 43.2Q102.8 42.6 102.8 41.6L102.8 41.6Q102.8 40.7 102.5 40.0Q102.2 39.4 101.7 39.1Q101.1 38.8 100.3 38.8L100.3 38.8L99.0 38.8ZM108.9 37.3L110.7 37.3L110.7 46L108.9 46L108.9 37.3ZM119.1 46.1L119.1 46.1Q117.9 46.1 117.0 45.6Q116.1 45.1 115.6 44.1Q115.1 43.1 115.1 41.6L115.1 41.6Q115.1 40.2 115.6 39.2Q116.1 38.2 117.0 37.7Q118.0 37.2 119.1 37.2L119.1 37.2Q119.9 37.2 120.5 37.4Q121.1 37.6 121.6 38.0Q122.1 38.4 122.4 38.9Q122.8 39.5 122.9 40.3L122.9 40.3L121.1 40.3Q121.0 39.9 120.8 39.6Q120.7 39.3 120.4 39.1Q120.2 38.9 119.8 38.8Q119.5 38.7 119.1 38.7L119.1 38.7Q118.5 38.7 118.0 39.1Q117.4 39.4 117.2 40.1Q116.9 40.7 116.9 41.6L116.9 41.6Q116.9 42.6 117.2 43.2Q117.4 43.9 118.0 44.2Q118.5 44.5 119.1 44.5L119.1 44.5Q119.5 44.5 119.8 44.4Q120.2 44.3 120.4 44.1Q120.7 43.9 120.8 43.7Q121.0 43.4 121.1 43.0L121.1 43.0L122.9 43.0Q122.8 43.6 122.5 44.2Q122.2 44.7 121.7 45.2Q121.3 45.6 120.6 45.9Q119.9 46.1 119.1 46.1ZM128.6 46L126.7 46L129.7 37.3L132.0 37.3L135.1 46L133.1 46L132.4 44.0L129.3 44.0L128.6 46ZM129.7 42.6L131.9 42.6L131.7 41.8Q131.4 41.0 131.2 40L131.2 40Q131.0 39.4 130.8 38.7L130.8 38.7Q130.6 39.4 130.5 40.0L130.5 40.0Q130.2 41.0 130.0 41.8L130.0 41.8L129.7 42.6ZM144.7 46L139.1 46L139.1 37.3L140.9 37.3L140.9 44.5L144.7 44.5L144.7 46Z M156.2 46L154.3 46L157.2 37.3L159.6 37.3L162.6 46L160.7 46L160.0 44.0L156.9 44.0L156.2 46ZM157.3 42.6L159.5 42.6L159.3 41.8Q159 41.0 158.7 40L158.7 40Q158.6 39.4 158.4 38.7L158.4 38.7Q158.2 39.4 158.1 40.0L158.1 40.0Q157.8 41.0 157.6 41.8L157.6 41.8L157.3 42.6ZM166.7 37.3L168.5 37.3L168.5 46L166.7 46L166.7 37.3Z M180.7 46L178.9 46L178.9 37.3L182.3 37.3Q183.3 37.3 184.0 37.6Q184.7 38.0 185.1 38.6Q185.5 39.3 185.5 40.1Q185.5 41.0 185.1 41.6Q184.7 42.2 184.0 42.5L184.0 42.5Q184.0 42.6 183.9 42.6L183.9 42.6L185.8 46L183.8 46L182.1 42.9L180.7 42.9L180.7 46ZM180.7 38.7L180.7 41.4L182.0 41.4Q182.6 41.4 182.9 41.3Q183.3 41.1 183.4 40.8Q183.6 40.5 183.6 40.1L183.6 40.1Q183.6 39.7 183.4 39.4Q183.3 39.1 182.9 38.9Q182.5 38.7 182.0 38.7L182.0 38.7L180.7 38.7ZM195.7 46L189.8 46L189.8 37.3L195.7 37.3L195.7 38.8L191.6 38.8L191.6 40.9L195.3 40.9L195.3 42.3L191.6 42.3L191.6 44.5L195.7 44.5L195.7 46ZM203.3 46.1L203.3 46.1Q202.2 46.1 201.5 45.8Q200.7 45.5 200.3 44.9Q199.8 44.2 199.8 43.3L199.8 43.3L201.5 43.3Q201.6 43.7 201.8 44.0Q202.0 44.3 202.4 44.5Q202.8 44.6 203.3 44.6L203.3 44.6Q203.8 44.6 204.1 44.5Q204.5 44.3 204.7 44.1Q204.9 43.8 204.9 43.5L204.9 43.5Q204.9 43.2 204.7 43.0Q204.5 42.8 204.2 42.7Q203.8 42.5 203.4 42.4L203.4 42.4L202.4 42.2Q201.3 41.9 200.7 41.3Q200.0 40.7 200.0 39.8L200.0 39.8Q200.0 39.0 200.5 38.4Q200.9 37.8 201.6 37.5Q202.4 37.2 203.3 37.2L203.3 37.2Q204.3 37.2 205.0 37.5Q205.7 37.8 206.1 38.4Q206.5 39.0 206.5 39.8L206.5 39.8L204.8 39.8Q204.8 39.2 204.4 38.9Q204.0 38.7 203.3 38.7L203.3 38.7Q202.9 38.7 202.5 38.8Q202.2 38.9 202.0 39.1Q201.9 39.4 201.9 39.7L201.9 39.7Q201.9 40.0 202.1 40.2Q202.3 40.4 202.6 40.5Q202.9 40.7 203.3 40.8L203.3 40.8L204.1 41.0Q204.6 41.1 205.1 41.3Q205.6 41.5 205.9 41.8Q206.3 42.1 206.5 42.5Q206.7 43.0 206.7 43.5L206.7 43.5Q206.7 44.3 206.3 44.9Q205.9 45.5 205.1 45.8Q204.4 46.1 203.3 46.1ZM216.8 46L211.0 46L211.0 37.3L216.8 37.3L216.8 38.8L212.7 38.8L212.7 40.9L216.5 40.9L216.5 42.3L212.7 42.3L212.7 44.5L216.8 44.5L216.8 46ZM222.7 46L220.7 46L223.7 37.3L226.1 37.3L229.1 46L227.1 46L226.5 44.0L223.4 44.0L222.7 46ZM223.8 42.6L226.0 42.6L225.7 41.8Q225.5 41.0 225.2 40L225.2 40Q225.1 39.4 224.9 38.7L224.9 38.7Q224.7 39.4 224.5 40.0L224.5 40.0Q224.3 41.0 224.1 41.8L224.1 41.8L223.8 42.6ZM235.0 46L233.2 46L233.2 37.3L236.6 37.3Q237.6 37.3 238.3 37.6Q239.0 38.0 239.4 38.6Q239.7 39.3 239.7 40.1Q239.7 41.0 239.4 41.6Q239.0 42.2 238.3 42.5L238.3 42.5Q238.2 42.6 238.2 42.6L238.2 42.6L240.0 46L238.1 46L236.4 42.9L235.0 42.9L235.0 46ZM235.0 38.7L235.0 41.4L236.3 41.4Q236.8 41.4 237.2 41.3Q237.5 41.1 237.7 40.8Q237.9 40.5 237.9 40.1L237.9 40.1Q237.9 39.7 237.7 39.4Q237.5 39.1 237.2 38.9Q236.8 38.7 236.3 38.7L236.3 38.7L235.0 38.7ZM247.9 46.1L247.9 46.1Q246.7 46.1 245.8 45.6Q244.9 45.1 244.4 44.1Q243.8 43.1 243.8 41.6L243.8 41.6Q243.8 40.2 244.4 39.2Q244.9 38.2 245.8 37.7Q246.8 37.2 247.9 37.2L247.9 37.2Q248.6 37.2 249.3 37.4Q249.9 37.6 250.4 38.0Q250.9 38.4 251.2 38.9Q251.6 39.5 251.7 40.3L251.7 40.3L249.8 40.3Q249.8 39.9 249.6 39.6Q249.5 39.3 249.2 39.1Q249.0 38.9 248.6 38.8Q248.3 38.7 247.9 38.7L247.9 38.7Q247.3 38.7 246.7 39.1Q246.2 39.4 245.9 40.1Q245.7 40.7 245.7 41.6L245.7 41.6Q245.7 42.6 245.9 43.2Q246.2 43.9 246.7 44.2Q247.3 44.5 247.9 44.5L247.9 44.5Q248.3 44.5 248.6 44.4Q248.9 44.3 249.2 44.1Q249.5 43.9 249.6 43.7Q249.8 43.4 249.8 43.0L249.8 43.0L251.7 43.0Q251.6 43.6 251.3 44.2Q251.0 44.7 250.5 45.2Q250.0 45.6 249.4 45.9Q248.7 46.1 247.9 46.1ZM257.7 46L256.0 46L256.0 37.3L257.7 37.3L257.7 40.8L261.6 40.8L261.6 37.3L263.3 37.3L263.3 46L261.6 46L261.6 42.3L257.7 42.3L257.7 46Z "/></g><mask id="satori_om-id-2"><rect x="48" y="59" width="353" height="52" fill="#fff"/></mask><g  ><path fill="#ffffff" d="M68.0 104.5L68.0 104.5Q62.9 104.5 59.0 102.2Q55.0 99.9 52.7 95.6Q50.4 91.3 50.4 85.1L50.4 85.1Q50.4 78.9 52.7 74.6Q55.0 70.2 59.0 67.9Q63.0 65.7 68.0 65.7L68.0 65.7Q71.2 65.7 74.0 66.6Q76.7 67.5 78.9 69.2Q81.1 70.9 82.4 73.4Q83.8 75.9 84.2 79.1L84.2 79.1L76.4 79.1Q76.1 77.5 75.4 76.3Q74.7 75.1 73.6 74.3Q72.5 73.4 71.1 73.0Q69.7 72.5 68.1 72.5L68.1 72.5Q65.2 72.5 62.9 74.0Q60.7 75.5 59.5 78.3Q58.3 81.1 58.3 85.1L58.3 85.1Q58.3 89.2 59.5 92.0Q60.7 94.8 63.0 96.2Q65.2 97.6 68.1 97.6L68.1 97.6Q69.7 97.6 71.1 97.2Q72.5 96.7 73.6 95.9Q74.7 95.0 75.4 93.8Q76.1 92.6 76.4 91.1L76.4 91.1L84.3 91.1Q84.0 93.7 82.7 96.1Q81.4 98.5 79.4 100.4Q77.3 102.3 74.4 103.4Q71.5 104.5 68.0 104.5ZM96.6 104.6L96.6 104.6Q93.9 104.6 91.8 103.6Q89.7 102.7 88.4 100.8Q87.2 98.9 87.2 96.1L87.2 96.1Q87.2 93.7 88.1 92.1Q88.9 90.5 90.5 89.5Q92.0 88.6 93.9 88.1Q95.8 87.5 97.9 87.3L97.9 87.3Q100.4 87.1 101.9 86.9Q103.4 86.7 104.1 86.2Q104.8 85.7 104.8 84.8L104.8 84.8L104.8 84.7Q104.8 83.5 104.3 82.6Q103.8 81.8 102.8 81.3Q101.8 80.9 100.3 80.9L100.3 80.9Q98.9 80.9 97.8 81.3Q96.7 81.8 96.0 82.5Q95.3 83.3 95.0 84.2L95.0 84.2L88.0 83.0Q88.7 80.5 90.4 78.8Q92.1 77.1 94.7 76.2Q97.2 75.3 100.4 75.3L100.4 75.3Q102.7 75.3 104.8 75.8Q107.0 76.3 108.7 77.5Q110.4 78.6 111.4 80.5Q112.4 82.3 112.4 84.9L112.4 84.9L112.4 104L105.2 104L105.2 100.1L104.9 100.1Q104.3 101.4 103.1 102.4Q102.0 103.4 100.4 104.0Q98.7 104.6 96.6 104.6ZM98.8 99.2L98.8 99.2Q100.6 99.2 102.0 98.5Q103.3 97.8 104.1 96.6Q104.8 95.3 104.8 93.8L104.8 93.8L104.8 90.8Q104.5 91.0 103.8 91.2Q103.1 91.4 102.3 91.6Q101.5 91.7 100.7 91.9Q99.8 92.0 99.2 92.1L99.2 92.1Q97.8 92.3 96.7 92.7Q95.7 93.2 95.1 93.9Q94.5 94.7 94.5 95.8L94.5 95.8Q94.5 96.9 95.1 97.7Q95.6 98.4 96.6 98.8Q97.6 99.2 98.8 99.2ZM125.5 87.6L125.5 87.6L125.5 104L117.9 104L117.9 75.6L125.1 75.6L125.2 81.5Q126.3 78.8 128.2 77.2L128.2 77.2Q130.4 75.3 134.0 75.3L134.0 75.3Q137.0 75.3 139.2 76.5Q141.4 77.8 142.6 80.2Q143.8 82.6 143.8 85.9L143.8 85.9L143.8 104L136.2 104L136.2 87.3Q136.2 84.6 134.8 83.1Q133.4 81.6 131.0 81.6L131.0 81.6Q129.4 81.6 128.2 82.3Q126.9 83.0 126.2 84.3Q125.5 85.7 125.5 87.6ZM162.0 104.6L162.0 104.6Q157.7 104.6 154.6 102.7Q151.5 100.9 149.8 97.6Q148.1 94.3 148.1 89.9L148.1 89.9Q148.1 85.5 149.8 82.2Q151.5 78.9 154.6 77.1Q157.7 75.3 162.0 75.3L162.0 75.3Q164.5 75.3 166.6 75.9Q168.8 76.6 170.4 77.8Q172.1 79.0 173.1 80.8Q174.2 82.5 174.6 84.7L174.6 84.7L167.5 86.0Q167.3 84.9 166.8 84.0Q166.3 83.2 165.6 82.5Q164.9 81.9 164.0 81.6Q163.1 81.3 162.1 81.3L162.1 81.3Q160.0 81.3 158.6 82.3Q157.3 83.4 156.6 85.4Q155.9 87.3 155.9 89.9L155.9 89.9Q155.9 92.4 156.6 94.4Q157.3 96.3 158.6 97.4Q160.0 98.6 162.1 98.6L162.1 98.6Q163.1 98.6 164.1 98.2Q165.0 97.9 165.7 97.2Q166.4 96.6 166.9 95.7Q167.4 94.8 167.6 93.6L167.6 93.6L174.6 94.9Q174.2 97.2 173.2 98.9Q172.1 100.7 170.5 102.0Q168.8 103.2 166.7 103.9Q164.5 104.6 162.0 104.6ZM191.7 104.6L191.7 104.6Q187.4 104.6 184.2 102.8Q181.1 101.0 179.4 97.7Q177.7 94.5 177.7 90.0L177.7 90.0Q177.7 85.6 179.4 82.3Q181.0 79.0 184.1 77.1Q187.2 75.3 191.3 75.3L191.3 75.3Q194.1 75.3 196.5 76.1Q198.9 77.0 200.8 78.8Q202.6 80.6 203.6 83.3Q204.6 86.0 204.6 89.7L204.6 89.7L204.6 91.8L185.2 91.8Q185.3 93.9 186.1 95.5L186.1 95.5Q186.9 97.1 188.4 98.0Q189.8 98.8 191.8 98.8L191.8 98.8Q193.2 98.8 194.3 98.4Q195.4 98.1 196.1 97.3Q196.9 96.6 197.3 95.5L197.3 95.5L204.2 96.8Q203.5 99.1 201.8 100.9Q200.1 102.6 197.6 103.6Q195.0 104.6 191.7 104.6ZM185.3 87.0L185.3 87.0L197.3 87.0Q197.2 85.6 196.7 84.4L196.7 84.4Q196.0 82.8 194.7 81.9Q193.3 81.0 191.4 81.0L191.4 81.0Q189.4 81.0 188.0 81.9Q186.6 82.8 185.9 84.4L185.9 84.4Q185.4 85.6 185.3 87.0ZM216.5 104L208.9 104L208.9 75.6L216.2 75.6L216.2 80.6L216.5 80.6Q217.3 77.9 219.1 76.6Q221.0 75.2 223.4 75.2L223.4 75.2Q224.0 75.2 224.6 75.3Q225.3 75.4 225.8 75.5L225.8 75.5L225.8 82.3Q225.3 82.1 224.4 82.0Q223.4 81.9 222.5 81.9L222.5 81.9Q220.8 81.9 219.4 82.7Q218.0 83.4 217.2 84.7Q216.5 86.1 216.5 87.9L216.5 87.9L216.5 104ZM243.1 104.6L243.1 104.6Q238.5 104.6 235.2 103.2Q231.8 101.8 229.9 99.0Q228.0 96.3 227.9 92.3L227.9 92.3L235.5 92.3Q235.6 94.2 236.6 95.5Q237.6 96.7 239.3 97.4Q240.9 98.0 243.0 98.0L243.0 98.0Q245.1 98.0 246.6 97.4Q248.1 96.8 249.0 95.7Q249.9 94.6 249.9 93.2L249.9 93.2Q249.9 91.9 249.1 91.0Q248.3 90.1 246.9 89.5Q245.4 88.9 243.3 88.4L243.3 88.4L239.2 87.3Q234.4 86.2 231.7 83.7Q229.0 81.2 229.0 77.1L229.0 77.1Q229.0 73.6 230.8 71.1Q232.6 68.5 235.8 67.1Q239.1 65.7 243.2 65.7L243.2 65.7Q247.4 65.7 250.5 67.1Q253.6 68.5 255.4 71.1Q257.1 73.6 257.2 77.0L257.2 77.0L249.7 77.0Q249.5 74.7 247.7 73.4Q246.0 72.2 243.1 72.2L243.1 72.2Q241.1 72.2 239.7 72.7Q238.3 73.3 237.6 74.3Q236.9 75.3 236.9 76.6L236.9 76.6Q236.9 77.9 237.7 78.9Q238.6 79.8 240.0 80.4Q241.4 80.9 242.9 81.3L242.9 81.3L246.4 82.2Q248.8 82.7 250.8 83.6Q252.9 84.5 254.4 85.9Q256.0 87.2 256.8 89.0Q257.7 90.8 257.7 93.2L257.7 93.2Q257.7 96.7 255.9 99.2Q254.2 101.8 250.9 103.2Q247.7 104.6 243.1 104.6ZM274.8 104.6L274.8 104.6Q270.5 104.6 267.4 102.7Q264.3 100.9 262.6 97.6Q260.9 94.3 260.9 89.9L260.9 89.9Q260.9 85.5 262.6 82.2Q264.3 78.9 267.4 77.1Q270.5 75.3 274.8 75.3L274.8 75.3Q277.3 75.3 279.4 75.9Q281.6 76.6 283.2 77.8Q284.9 79.0 285.9 80.8Q287.0 82.5 287.4 84.7L287.4 84.7L280.3 86.0Q280.1 84.9 279.6 84.0Q279.1 83.2 278.4 82.5Q277.7 81.9 276.8 81.6Q275.9 81.3 274.8 81.3L274.8 81.3Q272.8 81.3 271.4 82.3Q270.0 83.4 269.4 85.4Q268.7 87.3 268.7 89.9L268.7 89.9Q268.7 92.4 269.4 94.4Q270.0 96.3 271.4 97.4Q272.8 98.6 274.8 98.6L274.8 98.6Q275.9 98.6 276.9 98.2Q277.8 97.9 278.5 97.2Q279.2 96.6 279.7 95.7Q280.2 94.8 280.4 93.6L280.4 93.6L287.4 94.9Q287.0 97.2 286.0 98.9Q284.9 100.7 283.3 102.0Q281.6 103.2 279.5 103.9Q277.3 104.6 274.8 104.6ZM299.6 104.6L299.6 104.6Q296.9 104.6 294.8 103.6Q292.6 102.7 291.4 100.8Q290.1 98.9 290.1 96.1L290.1 96.1Q290.1 93.7 291.0 92.1Q291.9 90.5 293.4 89.5Q294.9 88.6 296.8 88.1Q298.8 87.5 300.9 87.3L300.9 87.3Q303.3 87.1 304.8 86.9Q306.3 86.7 307.0 86.2Q307.7 85.7 307.7 84.8L307.7 84.8L307.7 84.7Q307.7 83.5 307.2 82.6Q306.7 81.8 305.7 81.3Q304.7 80.9 303.3 80.9L303.3 80.9Q301.8 80.9 300.7 81.3Q299.6 81.8 299.0 82.5Q298.3 83.3 297.9 84.2L297.9 84.2L291.0 83.0Q291.7 80.5 293.4 78.8Q295.1 77.1 297.6 76.2Q300.2 75.3 303.3 75.3L303.3 75.3Q305.6 75.3 307.8 75.8Q309.9 76.3 311.6 77.5Q313.4 78.6 314.4 80.5Q315.4 82.3 315.4 84.9L315.4 84.9L315.4 104L308.2 104L308.2 100.1L307.9 100.1Q307.2 101.4 306.1 102.4Q304.9 103.4 303.3 104.0Q301.7 104.6 299.6 104.6ZM301.8 99.2L301.8 99.2Q303.6 99.2 304.9 98.5Q306.3 97.8 307.0 96.6Q307.8 95.3 307.8 93.8L307.8 93.8L307.8 90.8Q307.5 91.0 306.8 91.2Q306.1 91.4 305.3 91.6Q304.4 91.7 303.6 91.9Q302.8 92.0 302.2 92.1L302.2 92.1Q300.8 92.3 299.7 92.7Q298.6 93.2 298.0 93.9Q297.5 94.7 297.5 95.8L297.5 95.8Q297.5 96.9 298.0 97.7Q298.6 98.4 299.5 98.8Q300.5 99.2 301.8 99.2ZM328.5 87.6L328.5 87.6L328.5 104L320.9 104L320.9 75.6L328.0 75.6L328.1 81.5Q329.2 78.8 331.1 77.2L331.1 77.2Q333.4 75.3 337.0 75.3L337.0 75.3Q339.9 75.3 342.1 76.5Q344.3 77.8 345.5 80.2Q346.7 82.6 346.7 85.9L346.7 85.9L346.7 104L339.1 104L339.1 87.3Q339.1 84.6 337.8 83.1Q336.4 81.6 334.0 81.6L334.0 81.6Q332.4 81.6 331.1 82.3Q329.9 83.0 329.2 84.3Q328.5 85.7 328.5 87.6Z "/></g><mask id="satori_om-id-2-1"><rect x="349" y="59" width="52" height="52" fill="#fff"/></mask><g  ><path fill="#ef4444" d="M358.8 104L350.2 104L363.2 66.2L373.3 66.2L386.6 104L378.0 104L375.1 95.2L361.6 95.2L358.8 104ZM363.5 89.1L373.0 89.1L371.9 85.7Q370.8 82.2 369.7 78L369.7 78Q369.0 75.3 368.2 72.3L368.2 72.3Q367.4 75.3 366.7 78.1L366.7 78.1Q365.7 82.3 364.6 85.7L364.6 85.7L363.5 89.1ZM390.3 66.2L398.0 66.2L398.0 104L390.3 104L390.3 66.2Z "/></g><mask id="satori_om-id-3"><rect x="48" y="121" width="480" height="46" fill="#fff"/></mask><g  ><path fill="#888" d="M53.3 138L49.3 138L49.3 127.1L53.2 127.1Q54.3 127.1 55.1 127.5Q55.8 127.9 56.2 128.5Q56.5 129.2 56.5 130.0L56.5 130.0Q56.5 130.7 56.3 131.1Q56.0 131.6 55.6 131.9Q55.2 132.1 54.8 132.3L54.8 132.3L54.8 132.4Q55.3 132.4 55.8 132.7Q56.3 133.0 56.6 133.6Q57.0 134.2 57.0 135.1L57.0 135.1Q57.0 135.9 56.6 136.6Q56.2 137.2 55.4 137.6Q54.6 138 53.3 138L53.3 138ZM50.7 133.0L50.7 136.8L53.3 136.8Q54.5 136.8 55.1 136.3Q55.6 135.8 55.6 135.1L55.6 135.1Q55.6 134.5 55.3 134.1Q55.1 133.6 54.6 133.3Q54.0 133.0 53.3 133.0L53.3 133.0L50.7 133.0ZM50.7 128.3L50.7 131.9L53.1 131.9Q53.7 131.9 54.2 131.6Q54.7 131.4 54.9 131.0Q55.2 130.6 55.2 130.0L55.2 130.0Q55.2 129.3 54.7 128.8Q54.2 128.3 53.2 128.3L53.2 128.3L50.7 128.3ZM60.3 138L59.0 138L59.0 129.8L60.2 129.8L60.2 131.1L60.3 131.1Q60.6 130.4 61.1 130.1Q61.7 129.7 62.5 129.7L62.5 129.7Q62.6 129.7 62.8 129.7Q63.0 129.7 63.1 129.7L63.1 129.7L63.1 131.0Q63.1 131.0 62.8 131.0Q62.6 131.0 62.3 131.0L62.3 131.0Q61.7 131.0 61.3 131.2Q60.8 131.5 60.6 131.9Q60.3 132.3 60.3 132.9L60.3 132.9L60.3 138ZM68.1 138.2L68.1 138.2Q66.9 138.2 66.0 137.6Q65.2 137.1 64.7 136.2Q64.2 135.2 64.2 134.0Q64.2 132.7 64.7 131.8Q65.1 130.8 66.0 130.3Q66.8 129.7 67.9 129.7L67.9 129.7Q68.6 129.7 69.2 129.9Q69.8 130.1 70.3 130.6Q70.9 131.1 71.2 131.9Q71.5 132.7 71.5 133.8L71.5 133.8L71.5 134.4L65.6 134.4Q65.6 135.1 65.9 135.7L65.9 135.7Q66.2 136.4 66.8 136.7Q67.3 137.0 68.1 137.0L68.1 137.0Q68.6 137.0 68.9 136.9Q69.3 136.7 69.6 136.4Q69.9 136.2 70.1 135.7L70.1 135.7L71.3 136.1Q71.2 136.7 70.7 137.2Q70.2 137.6 69.6 137.9Q68.9 138.2 68.1 138.2ZM65.6 133.2L65.6 133.2L70.1 133.2Q70.1 132.7 69.9 132.2L69.9 132.2Q69.6 131.6 69.1 131.2Q68.6 130.9 67.9 130.9Q67.2 130.9 66.6 131.2Q66.1 131.6 65.8 132.2L65.8 132.2Q65.6 132.7 65.6 133.2ZM75.7 138.2L75.7 138.2Q74.9 138.2 74.2 137.9Q73.6 137.6 73.2 137.0Q72.9 136.5 72.9 135.7L72.9 135.7Q72.9 135.0 73.1 134.5Q73.4 134.1 73.9 133.8Q74.4 133.6 74.9 133.5Q75.5 133.3 76.1 133.3L76.1 133.3Q76.8 133.2 77.2 133.1Q77.7 133.1 77.9 132.9Q78.2 132.8 78.2 132.5L78.2 132.5L78.2 132.5Q78.2 132.0 78.0 131.6Q77.8 131.2 77.4 131.1Q77.0 130.9 76.4 130.9L76.4 130.9Q75.9 130.9 75.4 131.0Q75.0 131.2 74.8 131.5Q74.5 131.8 74.4 132.1L74.4 132.1L73.1 131.6Q73.4 130.9 73.9 130.5Q74.5 130.1 75.1 129.9Q75.8 129.7 76.4 129.7L76.4 129.7Q76.8 129.7 77.3 129.8Q77.9 129.9 78.3 130.2Q78.8 130.5 79.2 131.1Q79.5 131.6 79.5 132.6L79.5 132.6L79.5 138L78.2 138L78.2 136.9L78.1 136.9Q77.9 137.2 77.6 137.5Q77.3 137.8 76.8 138.0Q76.4 138.2 75.7 138.2ZM75.9 137.0L75.9 137.0Q76.6 137.0 77.1 136.7Q77.6 136.5 77.9 136.0Q78.2 135.5 78.2 135.0L78.2 135.0L78.2 133.9Q78.1 134.0 77.8 134.1Q77.5 134.2 77.2 134.2Q76.8 134.3 76.5 134.3Q76.2 134.4 76.0 134.4L76.0 134.4Q75.5 134.4 75.1 134.6Q74.7 134.7 74.4 135.0Q74.2 135.3 74.2 135.7L74.2 135.7Q74.2 136.2 74.4 136.4Q74.6 136.7 75.0 136.9Q75.4 137.0 75.9 137.0ZM84.6 138.2L84.6 138.2Q83.7 138.2 83.1 137.9Q82.4 137.7 82.0 137.2Q81.6 136.7 81.4 136.0L81.4 136.0L82.7 135.7Q82.8 136.4 83.3 136.7Q83.8 137.0 84.6 137.0L84.6 137.0Q85.4 137.0 85.9 136.7Q86.4 136.3 86.4 135.8L86.4 135.8Q86.4 135.4 86.1 135.1Q85.8 134.8 85.2 134.7L85.2 134.7L83.9 134.3Q82.8 134.1 82.2 133.5Q81.7 133.0 81.7 132.1L81.7 132.1Q81.7 131.4 82.1 130.9Q82.5 130.3 83.1 130.0Q83.8 129.7 84.7 129.7L84.7 129.7Q85.5 129.7 86.1 130.0Q86.7 130.2 87.1 130.7Q87.5 131.1 87.6 131.7L87.6 131.7L86.5 132.0Q86.3 131.5 85.9 131.2Q85.5 130.8 84.7 130.8L84.7 130.8Q84.0 130.8 83.5 131.2Q83.0 131.5 83.0 132.0L83.0 132.0Q83.0 132.5 83.3 132.7Q83.7 133.0 84.4 133.2L84.4 133.2L85.6 133.5Q86.7 133.7 87.3 134.3Q87.8 134.9 87.8 135.7L87.8 135.7Q87.8 136.4 87.4 137.0Q87.0 137.5 86.3 137.9Q85.5 138.2 84.6 138.2ZM91.2 129.8L92.9 129.8L92.9 130.9L91.2 130.9L91.2 135.9Q91.2 136.4 91.5 136.7Q91.7 136.9 92.2 136.9L92.2 136.9Q92.3 136.9 92.5 136.9Q92.7 136.9 92.9 136.8L92.9 136.8L93.2 138.0Q92.9 138.0 92.7 138.1Q92.4 138.1 92.2 138.1L92.2 138.1Q91.1 138.1 90.5 137.5Q89.9 137.0 89.9 136.0L89.9 136.0L89.9 130.9L88.7 130.9L88.7 129.8L89.9 129.8L89.9 127.9L91.2 127.9L91.2 129.8Z M102.5 138.2L102.5 138.2Q101.4 138.2 100.5 137.6Q99.7 137.1 99.2 136.2Q98.8 135.2 98.8 134.0L98.8 134.0Q98.8 132.7 99.2 131.7Q99.7 130.8 100.5 130.2Q101.4 129.7 102.5 129.7L102.5 129.7Q103.1 129.7 103.6 129.9Q104.1 130.0 104.6 130.3Q105.0 130.6 105.3 131.0Q105.6 131.4 105.8 132.0L105.8 132.0L104.5 132.3Q104.5 132.0 104.3 131.8Q104.1 131.5 103.8 131.3Q103.6 131.1 103.2 131.0Q102.9 130.9 102.5 130.9L102.5 130.9Q101.7 130.9 101.1 131.3Q100.6 131.7 100.4 132.4Q100.1 133.1 100.1 134.0L100.1 134.0Q100.1 134.8 100.4 135.5Q100.6 136.1 101.1 136.6Q101.7 137.0 102.5 137.0L102.5 137.0Q102.9 137.0 103.2 136.9Q103.6 136.8 103.9 136.6Q104.1 136.4 104.3 136.1Q104.5 135.8 104.6 135.5L104.6 135.5L105.8 135.8Q105.7 136.4 105.4 136.8Q105.0 137.3 104.6 137.6Q104.2 137.9 103.6 138.0Q103.1 138.2 102.5 138.2ZM110.0 138.2L110.0 138.2Q109.2 138.2 108.6 137.9Q108.0 137.6 107.6 137.0Q107.2 136.5 107.2 135.7L107.2 135.7Q107.2 135.0 107.5 134.5Q107.8 134.1 108.3 133.8Q108.7 133.6 109.3 133.5Q109.8 133.3 110.4 133.3L110.4 133.3Q111.1 133.2 111.6 133.1Q112.1 133.1 112.3 132.9Q112.5 132.8 112.5 132.5L112.5 132.5L112.5 132.5Q112.5 132.0 112.3 131.6Q112.1 131.2 111.8 131.1Q111.4 130.9 110.8 130.9L110.8 130.9Q110.2 130.9 109.8 131.0Q109.4 131.2 109.1 131.5Q108.9 131.8 108.7 132.1L108.7 132.1L107.5 131.6Q107.8 130.9 108.3 130.5Q108.8 130.1 109.5 129.9Q110.1 129.7 110.8 129.7L110.8 129.7Q111.2 129.7 111.7 129.8Q112.2 129.9 112.7 130.2Q113.2 130.5 113.5 131.1Q113.8 131.6 113.8 132.6L113.8 132.6L113.8 138L112.5 138L112.5 136.9L112.5 136.9Q112.3 137.2 112.0 137.5Q111.7 137.8 111.2 138.0Q110.7 138.2 110.0 138.2ZM110.2 137.0L110.2 137.0Q111.0 137.0 111.5 136.7Q112.0 136.5 112.3 136.0Q112.5 135.5 112.5 135.0L112.5 135.0L112.5 133.9Q112.4 134.0 112.2 134.1Q111.9 134.2 111.5 134.2Q111.2 134.3 110.9 134.3Q110.5 134.4 110.4 134.4L110.4 134.4Q109.9 134.4 109.5 134.6Q109.1 134.7 108.8 135.0Q108.6 135.3 108.6 135.7L108.6 135.7Q108.6 136.2 108.8 136.4Q109.0 136.7 109.4 136.9Q109.8 137.0 110.2 137.0ZM117.5 133.1L117.5 133.1L117.5 138L116.1 138L116.1 129.8L117.4 129.8L117.4 131.3Q117.8 130.6 118.3 130.2L118.3 130.2Q119.0 129.7 119.9 129.7L119.9 129.7Q120.8 129.7 121.4 130.0Q122.0 130.4 122.3 131.1Q122.7 131.8 122.7 132.8L122.7 132.8L122.7 138L121.4 138L121.4 132.9Q121.4 132.0 120.9 131.4Q120.4 130.9 119.5 130.9L119.5 130.9Q118.9 130.9 118.5 131.2Q118.0 131.4 117.7 131.9Q117.5 132.4 117.5 133.1ZM128.3 138.2L128.3 138.2Q127.2 138.2 126.4 137.6Q125.6 137.1 125.1 136.2Q124.6 135.2 124.6 134.0L124.6 134.0Q124.6 132.7 125.1 131.7Q125.6 130.8 126.4 130.2Q127.2 129.7 128.3 129.7L128.3 129.7Q128.9 129.7 129.5 129.9Q130.0 130.0 130.4 130.3Q130.9 130.6 131.2 131.0Q131.5 131.4 131.7 132.0L131.7 132.0L130.4 132.3Q130.3 132.0 130.1 131.8Q129.9 131.5 129.7 131.3Q129.4 131.1 129.1 131.0Q128.7 130.9 128.3 130.9L128.3 130.9Q127.5 130.9 127.0 131.3Q126.5 131.7 126.2 132.4Q126.0 133.1 126.0 134.0L126.0 134.0Q126.0 134.8 126.2 135.5Q126.5 136.1 127.0 136.6Q127.5 137.0 128.3 137.0L128.3 137.0Q128.8 137.0 129.1 136.9Q129.4 136.8 129.7 136.6Q130.0 136.4 130.2 136.1Q130.3 135.8 130.4 135.5L130.4 135.5L131.7 135.8Q131.5 136.4 131.2 136.8Q130.9 137.3 130.5 137.6Q130.0 137.9 129.5 138.0Q128.9 138.2 128.3 138.2ZM137.0 138.2L137.0 138.2Q135.8 138.2 135.0 137.6Q134.1 137.1 133.7 136.2Q133.2 135.2 133.2 134.0Q133.2 132.7 133.6 131.8Q134.1 130.8 134.9 130.3Q135.8 129.7 136.9 129.7L136.9 129.7Q137.5 129.7 138.2 129.9Q138.8 130.1 139.3 130.6Q139.8 131.1 140.1 131.9Q140.4 132.7 140.4 133.8L140.4 133.8L140.4 134.4L134.5 134.4Q134.5 135.1 134.8 135.7L134.8 135.7Q135.1 136.4 135.7 136.7Q136.3 137.0 137.0 137.0L137.0 137.0Q137.5 137.0 137.9 136.9Q138.3 136.7 138.6 136.4Q138.9 136.2 139.0 135.7L139.0 135.7L140.3 136.1Q140.1 136.7 139.7 137.2Q139.2 137.6 138.5 137.9Q137.9 138.2 137.0 138.2ZM134.5 133.2L134.5 133.2L139.1 133.2Q139.0 132.7 138.9 132.2L138.9 132.2Q138.6 131.6 138.1 131.2Q137.6 130.9 136.9 130.9Q136.1 130.9 135.6 131.2Q135.1 131.6 134.8 132.2L134.8 132.2Q134.6 132.7 134.5 133.2ZM143.6 138L142.3 138L142.3 129.8L143.6 129.8L143.6 131.1L143.7 131.1Q143.9 130.4 144.5 130.1Q145.1 129.7 145.8 129.7L145.8 129.7Q146.0 129.7 146.2 129.7Q146.4 129.7 146.5 129.7L146.5 129.7L146.5 131.0Q146.4 131.0 146.2 131.0Q146.0 131.0 145.7 131.0L145.7 131.0Q145.1 131.0 144.6 131.2Q144.2 131.5 143.9 131.9Q143.6 132.3 143.6 132.9L143.6 132.9L143.6 138Z M153.5 141.1L152.2 141.1L152.2 129.8L153.4 129.8L153.4 131.1L153.6 131.1Q153.7 130.9 154.0 130.6Q154.2 130.2 154.7 130.0Q155.2 129.7 156.0 129.7L156.0 129.7Q157.0 129.7 157.8 130.2Q158.5 130.7 159.0 131.7Q159.4 132.6 159.4 133.9L159.4 133.9Q159.4 135.2 159.0 136.2Q158.5 137.1 157.8 137.7Q157.0 138.2 156.0 138.2L156.0 138.2Q155.2 138.2 154.7 137.9Q154.2 137.6 154.0 137.3Q153.7 137.0 153.6 136.7L153.6 136.7L153.5 136.7L153.5 141.1ZM155.8 137.0L155.8 137.0Q156.5 137.0 157.0 136.6Q157.6 136.2 157.8 135.5Q158.1 134.8 158.1 133.9L158.1 133.9Q158.1 133.1 157.8 132.4Q157.6 131.7 157.1 131.3Q156.5 130.9 155.8 130.9L155.8 130.9Q155.0 130.9 154.5 131.3Q154.0 131.6 153.7 132.3Q153.5 133.0 153.5 133.9L153.5 133.9Q153.5 134.8 153.7 135.5Q154.0 136.2 154.5 136.6Q155.0 137.0 155.8 137.0ZM162.7 138L161.3 138L161.3 129.8L162.6 129.8L162.6 131.1L162.7 131.1Q162.9 130.4 163.5 130.1Q164.1 129.7 164.8 129.7L164.8 129.7Q165.0 129.7 165.2 129.7Q165.4 129.7 165.5 129.7L165.5 129.7L165.5 131.0Q165.4 131.0 165.2 131.0Q165.0 131.0 164.7 131.0L164.7 131.0Q164.1 131.0 163.7 131.2Q163.2 131.5 162.9 131.9Q162.7 132.3 162.7 132.9L162.7 132.9L162.7 138ZM170.4 138.2L170.4 138.2Q169.2 138.2 168.4 137.6Q167.5 137.1 167.1 136.2Q166.6 135.2 166.6 134.0Q166.6 132.7 167.0 131.8Q167.5 130.8 168.3 130.3Q169.2 129.7 170.3 129.7L170.3 129.7Q170.9 129.7 171.6 129.9Q172.2 130.1 172.7 130.6Q173.2 131.1 173.5 131.9Q173.8 132.7 173.8 133.8L173.8 133.8L173.8 134.4L167.9 134.4Q168.0 135.1 168.2 135.7L168.2 135.7Q168.6 136.4 169.1 136.7Q169.7 137.0 170.4 137.0L170.4 137.0Q170.9 137.0 171.3 136.9Q171.7 136.7 172.0 136.4Q172.3 136.2 172.4 135.7L172.4 135.7L173.7 136.1Q173.5 136.7 173.1 137.2Q172.6 137.6 171.9 137.9Q171.3 138.2 170.4 138.2ZM167.9 133.2L167.9 133.2L172.5 133.2Q172.5 132.7 172.3 132.2L172.3 132.2Q172.0 131.6 171.5 131.2Q171.0 130.9 170.3 130.9Q169.5 130.9 169.0 131.2Q168.5 131.6 168.2 132.2L168.2 132.2Q168.0 132.7 167.9 133.2ZM178.8 138.2L178.8 138.2Q177.8 138.2 177.0 137.7Q176.2 137.1 175.8 136.2Q175.3 135.2 175.3 133.9L175.3 133.9Q175.3 132.6 175.8 131.7Q176.2 130.7 177.0 130.2Q177.8 129.7 178.8 129.7L178.8 129.7Q179.6 129.7 180.1 130.0Q180.5 130.2 180.8 130.6Q181.1 130.9 181.2 131.1L181.2 131.1L181.3 131.1L181.3 127.1L182.6 127.1L182.6 138L181.3 138L181.3 136.7L181.2 136.7Q181.1 137.0 180.8 137.3Q180.5 137.6 180.1 137.9Q179.6 138.2 178.8 138.2ZM179.0 137.0L179.0 137.0Q179.7 137.0 180.3 136.6Q180.8 136.2 181.0 135.5Q181.3 134.8 181.3 133.9L181.3 133.9Q181.3 133.0 181.0 132.3Q180.8 131.6 180.3 131.3Q179.8 130.9 179.0 130.9L179.0 130.9Q178.2 130.9 177.7 131.3Q177.2 131.7 176.9 132.4Q176.7 133.1 176.7 133.9L176.7 133.9Q176.7 134.8 176.9 135.5Q177.2 136.2 177.7 136.6Q178.2 137.0 179.0 137.0ZM186.2 138L184.9 138L184.9 129.8L186.2 129.8L186.2 138ZM185.6 128.5L185.6 128.5Q185.2 128.5 184.9 128.2Q184.7 128.0 184.7 127.6L184.7 127.6Q184.7 127.2 184.9 127.0Q185.2 126.7 185.6 126.7L185.6 126.7Q186.0 126.7 186.2 127.0Q186.5 127.2 186.5 127.6L186.5 127.6Q186.5 128.0 186.2 128.2Q186.0 128.5 185.6 128.5ZM191.9 138.2L191.9 138.2Q190.8 138.2 189.9 137.6Q189.1 137.1 188.6 136.2Q188.2 135.2 188.2 134.0L188.2 134.0Q188.2 132.7 188.6 131.7Q189.1 130.8 189.9 130.2Q190.8 129.7 191.9 129.7L191.9 129.7Q192.5 129.7 193.0 129.9Q193.5 130.0 194.0 130.3Q194.4 130.6 194.7 131.0Q195.0 131.4 195.2 132.0L195.2 132.0L193.9 132.3Q193.8 132.0 193.7 131.8Q193.5 131.5 193.2 131.3Q193.0 131.1 192.6 131.0Q192.3 130.9 191.9 130.9L191.9 130.9Q191.1 130.9 190.5 131.3Q190.0 131.7 189.8 132.4Q189.5 133.1 189.5 134.0L189.5 134.0Q189.5 134.8 189.8 135.5Q190.0 136.1 190.5 136.6Q191.1 137.0 191.9 137.0L191.9 137.0Q192.3 137.0 192.6 136.9Q193.0 136.8 193.2 136.6Q193.5 136.4 193.7 136.1Q193.9 135.8 194.0 135.5L194.0 135.5L195.2 135.8Q195.1 136.4 194.8 136.8Q194.4 137.3 194.0 137.6Q193.6 137.9 193.0 138.0Q192.5 138.2 191.9 138.2ZM198.7 129.8L200.3 129.8L200.3 130.9L198.7 130.9L198.7 135.9Q198.7 136.4 198.9 136.7Q199.1 136.9 199.6 136.9L199.6 136.9Q199.8 136.9 199.9 136.9Q200.1 136.9 200.3 136.8L200.3 136.8L200.6 138.0Q200.4 138.0 200.1 138.1Q199.8 138.1 199.6 138.1L199.6 138.1Q198.5 138.1 197.9 137.5Q197.3 137.0 197.3 136.0L197.3 136.0L197.3 130.9L196.1 130.9L196.1 129.8L197.3 129.8L197.3 127.9L198.7 127.9L198.7 129.8ZM203.3 138L202.0 138L202.0 129.8L203.3 129.8L203.3 138ZM202.7 128.5L202.7 128.5Q202.3 128.5 202.0 128.2Q201.8 128.0 201.8 127.6L201.8 127.6Q201.8 127.2 202.0 127.0Q202.3 126.7 202.7 126.7L202.7 126.7Q203.1 126.7 203.3 127.0Q203.6 127.2 203.6 127.6L203.6 127.6Q203.6 128.0 203.3 128.2Q203.1 128.5 202.7 128.5ZM209.0 138.2L209.0 138.2Q207.9 138.2 207.0 137.6Q206.2 137.1 205.7 136.2Q205.3 135.2 205.3 134.0L205.3 134.0Q205.3 132.7 205.7 131.7Q206.2 130.8 207.0 130.2Q207.9 129.7 209.0 129.7L209.0 129.7Q210.1 129.7 211.0 130.2Q211.8 130.8 212.3 131.7Q212.7 132.7 212.7 134.0L212.7 134.0Q212.7 135.2 212.3 136.2Q211.8 137.1 211.0 137.6Q210.1 138.2 209.0 138.2ZM209.0 137.0L209.0 137.0Q209.8 137.0 210.4 136.6Q210.9 136.1 211.1 135.5Q211.4 134.8 211.4 134.0L211.4 134.0Q211.4 133.1 211.1 132.4Q210.9 131.7 210.4 131.3Q209.8 130.9 209.0 130.9L209.0 130.9Q208.2 130.9 207.6 131.3Q207.1 131.7 206.9 132.4Q206.6 133.1 206.6 134.0L206.6 134.0Q206.6 134.8 206.9 135.5Q207.1 136.1 207.6 136.6Q208.2 137.0 209.0 137.0ZM216.0 133.1L216.0 133.1L216.0 138L214.7 138L214.7 129.8L215.9 129.8L215.9 131.3Q216.3 130.6 216.8 130.2L216.8 130.2Q217.5 129.7 218.4 129.7L218.4 129.7Q219.3 129.7 219.9 130.0Q220.5 130.4 220.9 131.1Q221.2 131.8 221.2 132.8L221.2 132.8L221.2 138L219.9 138L219.9 132.9Q219.9 132.0 219.4 131.4Q218.9 130.9 218.0 130.9L218.0 130.9Q217.5 130.9 217.0 131.2Q216.5 131.4 216.2 131.9Q216.0 132.4 216.0 133.1Z M230.3 138L229.0 138L226.5 129.8L227.9 129.8L228.9 133.4Q229.1 134.1 229.3 135.0L229.3 135.0Q229.5 135.7 229.7 136.6L229.7 136.6Q229.9 135.8 230.0 135.1L230.0 135.1Q230.3 134.2 230.5 133.4L230.5 133.4L231.4 129.8L232.9 129.8L233.8 133.4Q234.0 134.1 234.3 135.1L234.3 135.1Q234.4 135.8 234.6 136.6L234.6 136.6Q234.8 135.8 234.9 135.1L234.9 135.1Q235.2 134.2 235.4 133.4L235.4 133.4L236.4 129.8L237.8 129.8L235.3 138L234.0 138L232.9 134.3Q232.7 133.7 232.6 133.1Q232.4 132.6 232.3 131.9L232.3 131.9Q232.2 131.6 232.1 131.3L232.1 131.3Q232.1 131.6 232.0 131.9L232.0 131.9Q231.8 132.6 231.7 133.2Q231.5 133.7 231.4 134.3L231.4 134.3L230.3 138ZM240.8 138L239.4 138L239.4 129.8L240.8 129.8L240.8 138ZM240.1 128.5L240.1 128.5Q239.7 128.5 239.5 128.2Q239.2 128.0 239.2 127.6L239.2 127.6Q239.2 127.2 239.5 127.0Q239.7 126.7 240.1 126.7L240.1 126.7Q240.5 126.7 240.8 127.0Q241.0 127.2 241.0 127.6L241.0 127.6Q241.0 128.0 240.8 128.2Q240.5 128.5 240.1 128.5ZM244.6 129.8L246.3 129.8L246.3 130.9L244.6 130.9L244.6 135.9Q244.6 136.4 244.8 136.7Q245.1 136.9 245.6 136.9L245.6 136.9Q245.7 136.9 245.9 136.9Q246.1 136.9 246.2 136.8L246.2 136.8L246.5 138.0Q246.3 138.0 246.1 138.1Q245.8 138.1 245.5 138.1L245.5 138.1Q244.5 138.1 243.9 137.5Q243.3 137.0 243.3 136.0L243.3 136.0L243.3 130.9L242.1 130.9L242.1 129.8L243.3 129.8L243.3 127.9L244.6 127.9L244.6 129.8ZM249.3 133.1L249.3 133.1L249.3 138L248.0 138L248.0 127.1L249.3 127.1L249.3 131.2Q249.6 130.5 250.1 130.2L250.1 130.2Q250.8 129.7 251.8 129.7L251.8 129.7Q252.6 129.7 253.2 130.0Q253.8 130.4 254.2 131.1Q254.5 131.8 254.5 132.8L254.5 132.8L254.5 138L253.2 138L253.2 132.9Q253.2 132.0 252.7 131.4Q252.2 130.9 251.4 130.9L251.4 130.9Q250.8 130.9 250.3 131.2Q249.8 131.4 249.6 131.9Q249.3 132.4 249.3 133.1Z M262.7 138L261.3 138L261.3 127.1L265.1 127.1Q266.3 127.1 267.2 127.5Q268.0 128.0 268.4 128.7Q268.8 129.5 268.8 130.5Q268.8 131.4 268.4 132.2Q268.0 132.9 267.2 133.3L267.2 133.3Q267.0 133.4 266.8 133.5L266.8 133.5L269.2 138L267.6 138L265.3 133.8Q265.2 133.8 265.1 133.8L265.1 133.8L262.7 133.8L262.7 138ZM262.7 128.3L262.7 132.5L265.0 132.5Q265.9 132.5 266.4 132.3Q266.9 132.0 267.1 131.6Q267.4 131.1 267.4 130.5L267.4 130.5Q267.4 129.8 267.1 129.3Q266.9 128.8 266.4 128.6Q265.9 128.3 265.0 128.3L265.0 128.3L262.7 128.3ZM273.1 138.2L273.1 138.2Q272.3 138.2 271.7 137.9Q271.1 137.6 270.7 137.0Q270.3 136.5 270.3 135.7L270.3 135.7Q270.3 135.0 270.6 134.5Q270.9 134.1 271.3 133.8Q271.8 133.6 272.4 133.5Q272.9 133.3 273.5 133.3L273.5 133.3Q274.2 133.2 274.7 133.1Q275.2 133.1 275.4 132.9Q275.6 132.8 275.6 132.5L275.6 132.5L275.6 132.5Q275.6 132.0 275.4 131.6Q275.2 131.2 274.8 131.1Q274.5 130.9 273.9 130.9L273.9 130.9Q273.3 130.9 272.9 131.0Q272.5 131.2 272.2 131.5Q271.9 131.8 271.8 132.1L271.8 132.1L270.5 131.6Q270.9 130.9 271.4 130.5Q271.9 130.1 272.6 129.9Q273.2 129.7 273.9 129.7L273.9 129.7Q274.3 129.7 274.8 129.8Q275.3 129.9 275.8 130.2Q276.3 130.5 276.6 131.1Q276.9 131.6 276.9 132.6L276.9 132.6L276.9 138L275.6 138L275.6 136.9L275.5 136.9Q275.4 137.2 275.1 137.5Q274.8 137.8 274.3 138.0Q273.8 138.2 273.1 138.2ZM273.3 137.0L273.3 137.0Q274.1 137.0 274.6 136.7Q275.1 136.5 275.3 136.0Q275.6 135.5 275.6 135.0L275.6 135.0L275.6 133.9Q275.5 134.0 275.2 134.1Q275.0 134.2 274.6 134.2Q274.3 134.3 274.0 134.3Q273.6 134.4 273.4 134.4L273.4 134.4Q273.0 134.4 272.6 134.6Q272.1 134.7 271.9 135.0Q271.6 135.3 271.6 135.7L271.6 135.7Q271.6 136.2 271.9 136.4Q272.1 136.7 272.5 136.9Q272.8 137.0 273.3 137.0ZM280.6 133.1L280.6 133.1L280.6 138L279.2 138L279.2 129.8L280.5 129.8L280.5 131.3Q280.9 130.6 281.4 130.2L281.4 130.2Q282.1 129.7 283.0 129.7L283.0 129.7Q283.8 129.7 284.5 130.0Q285.1 130.4 285.4 131.1Q285.8 131.8 285.8 132.8L285.8 132.8L285.8 138L284.5 138L284.5 132.9Q284.5 132.0 284.0 131.4Q283.5 130.9 282.6 130.9L282.6 130.9Q282.0 130.9 281.6 131.2Q281.1 131.4 280.8 131.9Q280.6 132.4 280.6 133.1ZM291.2 138.2L291.2 138.2Q290.1 138.2 289.4 137.7Q288.6 137.1 288.1 136.2Q287.7 135.2 287.7 133.9L287.7 133.9Q287.7 132.6 288.1 131.7Q288.6 130.7 289.4 130.2Q290.2 129.7 291.2 129.7L291.2 129.7Q292.0 129.7 292.4 130.0Q292.9 130.2 293.2 130.6Q293.4 130.9 293.5 131.1L293.5 131.1L293.6 131.1L293.6 127.1L295.0 127.1L295.0 138L293.7 138L293.7 136.7L293.5 136.7Q293.4 137.0 293.2 137.3Q292.9 137.6 292.4 137.9Q291.9 138.2 291.2 138.2ZM291.4 137.0L291.4 137.0Q292.1 137.0 292.6 136.6Q293.1 136.2 293.4 135.5Q293.7 134.8 293.7 133.9L293.7 133.9Q293.7 133.0 293.4 132.3Q293.1 131.6 292.6 131.3Q292.1 130.9 291.4 130.9L291.4 130.9Q290.6 130.9 290.1 131.3Q289.6 131.7 289.3 132.4Q289.0 133.1 289.0 133.9L289.0 133.9Q289.0 134.8 289.3 135.5Q289.6 136.2 290.1 136.6Q290.6 137.0 291.4 137.0ZM300.6 138.2L300.6 138.2Q299.5 138.2 298.7 137.6Q297.8 137.1 297.4 136.2Q296.9 135.2 296.9 134.0L296.9 134.0Q296.9 132.7 297.4 131.7Q297.8 130.8 298.7 130.2Q299.5 129.7 300.6 129.7L300.6 129.7Q301.7 129.7 302.6 130.2Q303.4 130.8 303.9 131.7Q304.4 132.7 304.4 134.0L304.4 134.0Q304.4 135.2 303.9 136.2Q303.4 137.1 302.6 137.6Q301.7 138.2 300.6 138.2ZM300.6 137.0L300.6 137.0Q301.4 137.0 302.0 136.6Q302.5 136.1 302.8 135.5Q303.0 134.8 303.0 134.0L303.0 134.0Q303.0 133.1 302.8 132.4Q302.5 131.7 302.0 131.3Q301.4 130.9 300.6 130.9L300.6 130.9Q299.8 130.9 299.3 131.3Q298.7 131.7 298.5 132.4Q298.2 133.1 298.2 134.0L298.2 134.0Q298.2 134.8 298.5 135.5Q298.7 136.1 299.3 136.6Q299.8 137.0 300.6 137.0ZM307.6 138L306.3 138L306.3 129.8L307.6 129.8L307.6 131.3Q307.7 130.9 308.0 130.5L308.0 130.5Q308.4 130.1 308.8 129.9Q309.3 129.7 309.9 129.7L309.9 129.7Q310.7 129.7 311.3 130.2L311.3 130.2Q311.8 130.7 311.9 131.3L311.9 131.3Q312.1 130.9 312.4 130.6L312.4 130.6Q312.8 130.1 313.3 129.9Q313.9 129.7 314.5 129.7L314.5 129.7Q315.2 129.7 315.8 130.0Q316.4 130.3 316.8 130.9Q317.1 131.5 317.1 132.5L317.1 132.5L317.1 138L315.8 138L315.8 132.5Q315.8 131.6 315.3 131.2Q314.8 130.9 314.1 130.9L314.1 130.9Q313.6 130.9 313.2 131.1Q312.8 131.3 312.6 131.7Q312.3 132.1 312.3 132.7L312.3 132.7L312.3 138L311.0 138L311.0 132.4Q311.0 131.7 310.6 131.3Q310.1 130.9 309.4 130.9L309.4 130.9Q308.9 130.9 308.5 131.1Q308.1 131.3 307.8 131.8Q307.6 132.2 307.6 132.8L307.6 132.8L307.6 138Z M325.7 138L324.3 138L324.3 127.1L330.9 127.1L330.9 128.3L325.7 128.3L325.7 132.1L330.4 132.1L330.4 133.3L325.7 133.3L325.7 138ZM336.3 138.2L336.3 138.2Q335.2 138.2 334.4 137.6Q333.6 137.1 333.1 136.2Q332.6 135.2 332.6 134.0L332.6 134.0Q332.6 132.7 333.1 131.7Q333.6 130.8 334.4 130.2Q335.2 129.7 336.3 129.7L336.3 129.7Q337.5 129.7 338.3 130.2Q339.1 130.8 339.6 131.7Q340.1 132.7 340.1 134.0L340.1 134.0Q340.1 135.2 339.6 136.2Q339.1 137.1 338.3 137.6Q337.5 138.2 336.3 138.2ZM336.3 137.0L336.3 137.0Q337.2 137.0 337.7 136.6Q338.2 136.1 338.5 135.5Q338.8 134.8 338.8 134.0L338.8 134.0Q338.8 133.1 338.5 132.4Q338.2 131.7 337.7 131.3Q337.2 130.9 336.3 130.9L336.3 130.9Q335.5 130.9 335.0 131.3Q334.5 131.7 334.2 132.4Q334.0 133.1 334.0 134.0L334.0 134.0Q334.0 134.8 334.2 135.5Q334.5 136.1 335.0 136.6Q335.5 137.0 336.3 137.0ZM343.3 138L342.0 138L342.0 129.8L343.3 129.8L343.3 131.1L343.4 131.1Q343.6 130.4 344.2 130.1Q344.8 129.7 345.5 129.7L345.5 129.7Q345.6 129.7 345.8 129.7Q346.0 129.7 346.2 129.7L346.2 129.7L346.2 131.0Q346.1 131.0 345.9 131.0Q345.6 131.0 345.4 131.0L345.4 131.0Q344.8 131.0 344.3 131.2Q343.9 131.5 343.6 131.9Q343.3 132.3 343.3 132.9L343.3 132.9L343.3 138ZM351.1 138.2L351.1 138.2Q349.9 138.2 349.0 137.6Q348.2 137.1 347.7 136.2Q347.3 135.2 347.3 134.0Q347.3 132.7 347.7 131.8Q348.2 130.8 349.0 130.3Q349.8 129.7 350.9 129.7L350.9 129.7Q351.6 129.7 352.2 129.9Q352.9 130.1 353.4 130.6Q353.9 131.1 354.2 131.9Q354.5 132.7 354.5 133.8L354.5 133.8L354.5 134.4L348.6 134.4Q348.6 135.1 348.9 135.7L348.9 135.7Q349.2 136.4 349.8 136.7Q350.4 137.0 351.1 137.0L351.1 137.0Q351.6 137.0 352.0 136.9Q352.4 136.7 352.7 136.4Q352.9 136.2 353.1 135.7L353.1 135.7L354.4 136.1Q354.2 136.7 353.7 137.2Q353.3 137.6 352.6 137.9Q351.9 138.2 351.1 138.2ZM348.6 133.2L348.6 133.2L353.2 133.2Q353.1 132.7 352.9 132.2L352.9 132.2Q352.7 131.6 352.2 131.2Q351.7 130.9 350.9 130.9Q350.2 130.9 349.7 131.2Q349.1 131.6 348.9 132.2L348.9 132.2Q348.6 132.7 348.6 133.2ZM359.2 138.2L359.2 138.2Q358.3 138.2 357.7 137.9Q357.0 137.7 356.6 137.2Q356.2 136.7 356.0 136.0L356.0 136.0L357.3 135.7Q357.5 136.4 357.9 136.7Q358.4 137.0 359.2 137.0L359.2 137.0Q360.0 137.0 360.5 136.7Q361.0 136.3 361.0 135.8L361.0 135.8Q361.0 135.4 360.7 135.1Q360.4 134.8 359.8 134.7L359.8 134.7L358.5 134.3Q357.4 134.1 356.8 133.5Q356.3 133.0 356.3 132.1L356.3 132.1Q356.3 131.4 356.7 130.9Q357.1 130.3 357.8 130.0Q358.4 129.7 359.3 129.7L359.3 129.7Q360.2 129.7 360.7 130.0Q361.3 130.2 361.7 130.7Q362.1 131.1 362.3 131.7L362.3 131.7L361.1 132.0Q360.9 131.5 360.5 131.2Q360.1 130.8 359.3 130.8L359.3 130.8Q358.6 130.8 358.1 131.2Q357.6 131.5 357.6 132.0L357.6 132.0Q357.6 132.5 357.9 132.7Q358.3 133.0 359.0 133.2L359.0 133.2L360.2 133.5Q361.3 133.7 361.9 134.3Q362.4 134.9 362.4 135.7L362.4 135.7Q362.4 136.4 362.0 137.0Q361.6 137.5 360.9 137.9Q360.1 138.2 359.2 138.2ZM365.9 129.8L367.5 129.8L367.5 130.9L365.9 130.9L365.9 135.9Q365.9 136.4 366.1 136.7Q366.3 136.9 366.8 136.9L366.8 136.9Q366.9 136.9 367.1 136.9Q367.3 136.9 367.5 136.8L367.5 136.8L367.8 138.0Q367.6 138.0 367.3 138.1Q367.0 138.1 366.8 138.1L366.8 138.1Q365.7 138.1 365.1 137.5Q364.5 137.0 364.5 136.0L364.5 136.0L364.5 130.9L363.3 130.9L363.3 129.8L364.5 129.8L364.5 127.9L365.9 127.9L365.9 129.8Z M377.6 137.3L376.3 137.3L376.3 134.3L373.4 134.3L373.4 133.1L376.3 133.1L376.3 130.2L377.6 130.2L377.6 133.1L380.5 133.1L380.5 134.3L377.6 134.3L377.6 137.3Z M390.8 138.2L390.8 138.2Q389.6 138.2 388.8 137.8Q387.9 137.4 387.4 136.7Q386.9 136.1 386.8 135.1L386.8 135.1L388.3 135.1Q388.3 135.8 388.7 136.2Q389.1 136.6 389.6 136.8Q390.2 136.9 390.8 136.9L390.8 136.9Q391.6 136.9 392.1 136.7Q392.7 136.5 393.1 136.0Q393.4 135.6 393.4 135.0L393.4 135.0Q393.4 134.5 393.1 134.1Q392.8 133.8 392.3 133.6Q391.8 133.4 391.3 133.2L391.3 133.2L389.9 132.9Q388.6 132.5 387.9 131.8Q387.2 131.1 387.2 130.0L387.2 130.0Q387.2 129.1 387.7 128.4Q388.2 127.7 389.0 127.3Q389.9 126.9 390.9 126.9L390.9 126.9Q392.0 126.9 392.8 127.3Q393.6 127.7 394.1 128.4Q394.6 129.0 394.6 129.8L394.6 129.8L393.3 129.8Q393.2 129.0 392.5 128.6Q391.8 128.2 390.9 128.2L390.9 128.2Q390.2 128.2 389.6 128.4Q389.1 128.6 388.8 129.0Q388.5 129.4 388.5 129.9L388.5 129.9Q388.5 130.5 388.9 130.9Q389.2 131.2 389.7 131.4Q390.2 131.6 390.6 131.7L390.6 131.7L391.7 132.0Q392.1 132.1 392.7 132.3Q393.2 132.5 393.7 132.9Q394.2 133.2 394.5 133.7Q394.8 134.3 394.8 135.0L394.8 135.0Q394.8 135.9 394.3 136.6Q393.8 137.4 393.0 137.8Q392.1 138.2 390.8 138.2ZM398.3 138L396.9 138L396.9 127.1L398.3 127.1L398.3 131.8L404.1 131.8L404.1 127.1L405.5 127.1L405.5 138L404.1 138L404.1 133.0L398.3 133.0L398.3 138ZM408.6 138L407.2 138L411.1 127.1L412.7 127.1L416.7 138L415.3 138L414.2 135.0L409.7 135.0L408.6 138ZM410.1 133.7L413.8 133.7L413.0 131.5Q412.7 130.9 412.5 130.0L412.5 130.0Q412.2 129.3 411.9 128.2L411.9 128.2Q411.6 129.3 411.4 130.1L411.4 130.1Q411.1 131.0 410.9 131.5L410.9 131.5L410.1 133.7ZM419.8 138L418.4 138L418.4 127.1L422.2 127.1Q423.4 127.1 424.3 127.6Q425.1 128.0 425.5 128.8Q425.9 129.6 425.9 130.6Q425.9 131.5 425.5 132.3Q425.1 133.1 424.3 133.6Q423.5 134.1 422.2 134.1L422.2 134.1L419.8 134.1L419.8 138ZM419.8 128.3L419.8 132.8L422.1 132.8Q423.0 132.8 423.5 132.5Q424.0 132.2 424.3 131.7Q424.5 131.2 424.5 130.6Q424.5 129.9 424.3 129.4Q424.0 128.9 423.5 128.6Q423.0 128.3 422.1 128.3L422.1 128.3L419.8 128.3Z M435.6 138.2L435.6 138.2Q434.4 138.2 433.6 137.6Q432.7 137.1 432.2 136.2Q431.8 135.2 431.8 134.0Q431.8 132.7 432.2 131.8Q432.7 130.8 433.5 130.3Q434.3 129.7 435.4 129.7L435.4 129.7Q436.1 129.7 436.7 129.9Q437.4 130.1 437.9 130.6Q438.4 131.1 438.7 131.9Q439.0 132.7 439.0 133.8L439.0 133.8L439.0 134.4L433.1 134.4Q433.1 135.1 433.4 135.7L433.4 135.7Q433.7 136.4 434.3 136.7Q434.9 137.0 435.6 137.0L435.6 137.0Q436.1 137.0 436.5 136.9Q436.9 136.7 437.2 136.4Q437.5 136.2 437.6 135.7L437.6 135.7L438.9 136.1Q438.7 136.7 438.2 137.2Q437.8 137.6 437.1 137.9Q436.4 138.2 435.6 138.2ZM433.1 133.2L433.1 133.2L437.7 133.2Q437.6 132.7 437.4 132.2L437.4 132.2Q437.2 131.6 436.7 131.2Q436.2 130.9 435.4 130.9Q434.7 130.9 434.2 131.2Q433.7 131.6 433.4 132.2L433.4 132.2Q433.1 132.7 433.1 133.2ZM441.7 138L440.2 138L443.1 133.8L440.4 129.8L441.9 129.8L442.9 131.4Q443.3 132.0 443.6 132.6L443.6 132.6Q443.8 132.8 443.9 133.0L443.9 133.0Q444.0 132.8 444.1 132.6L444.1 132.6Q444.4 132.0 444.8 131.4L444.8 131.4L445.8 129.8L447.3 129.8L444.6 133.9L447.5 138L445.9 138L444.7 136.2Q444.3 135.6 444.1 135.0L444.1 135.0Q443.9 134.8 443.8 134.6L443.8 134.6Q443.7 134.8 443.6 135.0L443.6 135.0Q443.4 135.6 443.0 136.2L443.0 136.2L441.7 138ZM450.4 141.1L449.1 141.1L449.1 129.8L450.4 129.8L450.4 131.1L450.5 131.1Q450.7 130.9 450.9 130.6Q451.1 130.2 451.6 130.0Q452.1 129.7 452.9 129.7L452.9 129.7Q453.9 129.7 454.7 130.2Q455.5 130.7 455.9 131.7Q456.4 132.6 456.4 133.9L456.4 133.9Q456.4 135.2 455.9 136.2Q455.5 137.1 454.7 137.7Q453.9 138.2 452.9 138.2L452.9 138.2Q452.1 138.2 451.6 137.9Q451.2 137.6 450.9 137.3Q450.7 137.0 450.5 136.7L450.5 136.7L450.4 136.7L450.4 141.1ZM452.7 137.0L452.7 137.0Q453.5 137.0 454.0 136.6Q454.5 136.2 454.8 135.5Q455.0 134.8 455.0 133.9L455.0 133.9Q455.0 133.1 454.8 132.4Q454.5 131.7 454.0 131.3Q453.5 130.9 452.7 130.9L452.7 130.9Q451.9 130.9 451.4 131.3Q450.9 131.6 450.7 132.3Q450.4 133.0 450.4 133.9L450.4 133.9Q450.4 134.8 450.7 135.5Q450.9 136.2 451.4 136.6Q452.0 137.0 452.7 137.0ZM458.3 127.1L459.6 127.1L459.6 138L458.3 138L458.3 127.1ZM464.2 138.2L464.2 138.2Q463.4 138.2 462.8 137.9Q462.2 137.6 461.8 137.0Q461.4 136.5 461.4 135.7L461.4 135.7Q461.4 135.0 461.7 134.5Q462.0 134.1 462.4 133.8Q462.9 133.6 463.5 133.5Q464.0 133.3 464.6 133.3L464.6 133.3Q465.3 133.2 465.8 133.1Q466.3 133.1 466.5 132.9Q466.7 132.8 466.7 132.5L466.7 132.5L466.7 132.5Q466.7 132.0 466.5 131.6Q466.3 131.2 465.9 131.1Q465.6 130.9 465.0 130.9L465.0 130.9Q464.4 130.9 464.0 131.0Q463.6 131.2 463.3 131.5Q463.0 131.8 462.9 132.1L462.9 132.1L461.6 131.6Q462.0 130.9 462.5 130.5Q463.0 130.1 463.7 129.9Q464.3 129.7 464.9 129.7L464.9 129.7Q465.4 129.7 465.9 129.8Q466.4 129.9 466.9 130.2Q467.4 130.5 467.7 131.1Q468.0 131.6 468.0 132.6L468.0 132.6L468.0 138L466.7 138L466.7 136.9L466.6 136.9Q466.5 137.2 466.2 137.5Q465.9 137.8 465.4 138.0Q464.9 138.2 464.2 138.2ZM464.4 137.0L464.4 137.0Q465.2 137.0 465.7 136.7Q466.2 136.5 466.4 136.0Q466.7 135.5 466.7 135.0L466.7 135.0L466.7 133.9Q466.6 134.0 466.3 134.1Q466.1 134.2 465.7 134.2Q465.4 134.3 465.1 134.3Q464.7 134.4 464.5 134.4L464.5 134.4Q464.1 134.4 463.6 134.6Q463.2 134.7 463.0 135.0Q462.7 135.3 462.7 135.7L462.7 135.7Q462.7 136.2 463.0 136.4Q463.2 136.7 463.6 136.9Q463.9 137.0 464.4 137.0ZM471.6 138L470.3 138L470.3 129.8L471.6 129.8L471.6 138ZM471.0 128.5L471.0 128.5Q470.6 128.5 470.4 128.2Q470.1 128.0 470.1 127.6L470.1 127.6Q470.1 127.2 470.4 127.0Q470.6 126.7 471.0 126.7L471.0 126.7Q471.4 126.7 471.6 127.0Q471.9 127.2 471.9 127.6L471.9 127.6Q471.9 128.0 471.6 128.2Q471.4 128.5 471.0 128.5ZM475.3 133.1L475.3 133.1L475.3 138L474.0 138L474.0 129.8L475.2 129.8L475.2 131.3Q475.6 130.6 476.1 130.2L476.1 130.2Q476.8 129.7 477.7 129.7L477.7 129.7Q478.6 129.7 479.2 130.0Q479.8 130.4 480.2 131.1Q480.5 131.8 480.5 132.8L480.5 132.8L480.5 138L479.2 138L479.2 132.9Q479.2 132.0 478.7 131.4Q478.2 130.9 477.3 130.9L477.3 130.9Q476.8 130.9 476.3 131.2Q475.8 131.4 475.6 131.9Q475.3 132.4 475.3 133.1ZM485.1 138.2L485.1 138.2Q484.3 138.2 483.7 137.9Q483.1 137.6 482.7 137.0Q482.3 136.5 482.3 135.7L482.3 135.7Q482.3 135.0 482.6 134.5Q482.9 134.1 483.3 133.8Q483.8 133.6 484.4 133.5Q484.9 133.3 485.5 133.3L485.5 133.3Q486.2 133.2 486.7 133.1Q487.2 133.1 487.4 132.9Q487.6 132.8 487.6 132.5L487.6 132.5L487.6 132.5Q487.6 132.0 487.4 131.6Q487.2 131.2 486.9 131.1Q486.5 130.9 485.9 130.9L485.9 130.9Q485.3 130.9 484.9 131.0Q484.5 131.2 484.2 131.5Q484.0 131.8 483.8 132.1L483.8 132.1L482.6 131.6Q482.9 130.9 483.4 130.5Q483.9 130.1 484.6 129.9Q485.2 129.7 485.9 129.7L485.9 129.7Q486.3 129.7 486.8 129.8Q487.3 129.9 487.8 130.2Q488.3 130.5 488.6 131.1Q488.9 131.6 488.9 132.6L488.9 132.6L488.9 138L487.6 138L487.6 136.9L487.6 136.9Q487.4 137.2 487.1 137.5Q486.8 137.8 486.3 138.0Q485.8 138.2 485.1 138.2ZM485.3 137.0L485.3 137.0Q486.1 137.0 486.6 136.7Q487.1 136.5 487.4 136.0Q487.6 135.5 487.6 135.0L487.6 135.0L487.6 133.9Q487.5 134.0 487.3 134.1Q487.0 134.2 486.6 134.2Q486.3 134.3 486.0 134.3Q485.6 134.4 485.5 134.4L485.5 134.4Q485.0 134.4 484.6 134.6Q484.2 134.7 483.9 135.0Q483.7 135.3 483.7 135.7L483.7 135.7Q483.7 136.2 483.9 136.4Q484.1 136.7 484.5 136.9Q484.9 137.0 485.3 137.0ZM495.1 138.2L495.1 138.2Q494.3 138.2 493.8 137.9Q493.3 137.6 493.1 137.3Q492.8 137.0 492.7 136.7L492.7 136.7L492.5 136.7L492.5 138L491.2 138L491.2 127.1L492.6 127.1L492.6 131.1L492.7 131.1Q492.8 130.9 493.1 130.6Q493.3 130.2 493.8 130.0Q494.2 129.7 495.0 129.7L495.0 129.7Q496.1 129.7 496.8 130.2Q497.6 130.7 498.1 131.7Q498.5 132.6 498.5 133.9L498.5 133.9Q498.5 135.2 498.1 136.2Q497.6 137.1 496.9 137.7Q496.1 138.2 495.1 138.2ZM494.9 137.0L494.9 137.0Q495.6 137.0 496.1 136.6Q496.7 136.2 496.9 135.5Q497.2 134.8 497.2 133.9L497.2 133.9Q497.2 133.1 496.9 132.4Q496.7 131.7 496.1 131.3Q495.6 130.9 494.9 130.9L494.9 130.9Q494.1 130.9 493.6 131.3Q493.1 131.6 492.8 132.3Q492.6 133.0 492.6 133.9L492.6 133.9Q492.6 134.8 492.8 135.5Q493.1 136.2 493.6 136.6Q494.1 137.0 494.9 137.0ZM501.8 138L500.4 138L500.4 129.8L501.8 129.8L501.8 138ZM501.1 128.5L501.1 128.5Q500.7 128.5 500.5 128.2Q500.2 128.0 500.2 127.6L500.2 127.6Q500.2 127.2 500.5 127.0Q500.7 126.7 501.1 126.7L501.1 126.7Q501.5 126.7 501.8 127.0Q502.0 127.2 502.0 127.6L502.0 127.6Q502.0 128.0 501.8 128.2Q501.5 128.5 501.1 128.5ZM504.1 127.1L505.4 127.1L505.4 138L504.1 138L504.1 127.1ZM509.0 138L507.7 138L507.7 129.8L509.0 129.8L509.0 138ZM508.4 128.5L508.4 128.5Q508.0 128.5 507.7 128.2Q507.5 128.0 507.5 127.6L507.5 127.6Q507.5 127.2 507.7 127.0Q508.0 126.7 508.4 126.7L508.4 126.7Q508.7 126.7 509.0 127.0Q509.3 127.2 509.3 127.6L509.3 127.6Q509.3 128.0 509.0 128.2Q508.7 128.5 508.4 128.5ZM512.9 129.8L514.6 129.8L514.6 130.9L512.9 130.9L512.9 135.9Q512.9 136.4 513.1 136.7Q513.3 136.9 513.8 136.9L513.8 136.9Q514.0 136.9 514.2 136.9Q514.3 136.9 514.5 136.8L514.5 136.8L514.8 138.0Q514.6 138.0 514.3 138.1Q514.1 138.1 513.8 138.1L513.8 138.1Q512.7 138.1 512.1 137.5Q511.6 137.0 511.6 136.0L511.6 136.0L511.6 130.9L510.3 130.9L510.3 129.8L511.6 129.8L511.6 127.9L512.9 127.9L512.9 129.8ZM516.1 141.0L516.1 141.0L516.4 139.8L516.6 139.9Q517.0 140.0 517.3 139.9Q517.6 139.9 517.9 139.6Q518.2 139.3 518.4 138.7L518.4 138.7L518.6 138.0L515.5 129.8L516.9 129.8L518.7 134.7Q518.9 135.4 519.1 136.2L519.1 136.2Q519.2 136.5 519.3 136.8L519.3 136.8Q519.4 136.5 519.5 136.2L519.5 136.2Q519.7 135.4 519.9 134.7L519.9 134.7L521.7 129.8L523.1 129.8L519.5 139.2Q519.3 139.9 518.9 140.3Q518.6 140.7 518.1 140.9Q517.7 141.1 517.1 141.1L517.1 141.1Q516.7 141.1 516.5 141.1Q516.2 141.0 516.1 141.0Z M48 155.7L63 155.7L63 156.9L48 156.9L48 155.7Z M71.2 161.2L71.2 161.2Q70.2 161.2 69.4 160.7Q68.6 160.1 68.2 159.2Q67.8 158.2 67.8 156.9L67.8 156.9Q67.8 155.6 68.2 154.7Q68.6 153.7 69.4 153.2Q70.2 152.7 71.2 152.7L71.2 152.7Q72.0 152.7 72.5 153.0Q73.0 153.2 73.2 153.6Q73.5 153.9 73.6 154.1L73.6 154.1L73.7 154.1L73.7 150.1L75.0 150.1L75.0 161L73.8 161L73.8 159.7L73.6 159.7Q73.5 160.0 73.2 160.3Q73.0 160.6 72.5 160.9Q72.0 161.2 71.2 161.2ZM71.4 160.0L71.4 160.0Q72.2 160.0 72.7 159.6Q73.2 159.2 73.5 158.5Q73.7 157.8 73.7 156.9L73.7 156.9Q73.7 156.0 73.5 155.3Q73.2 154.6 72.7 154.3Q72.2 153.9 71.4 153.9L71.4 153.9Q70.6 153.9 70.1 154.3Q69.6 154.7 69.4 155.4Q69.1 156.1 69.1 156.9L69.1 156.9Q69.1 157.8 69.4 158.5Q69.6 159.2 70.1 159.6Q70.7 160.0 71.4 160.0ZM80.8 161.2L80.8 161.2Q79.6 161.2 78.7 160.6Q77.9 160.1 77.4 159.2Q76.9 158.2 76.9 157.0Q76.9 155.7 77.4 154.8Q77.9 153.8 78.7 153.3Q79.5 152.7 80.6 152.7L80.6 152.7Q81.3 152.7 81.9 152.9Q82.5 153.1 83.1 153.6Q83.6 154.1 83.9 154.9Q84.2 155.7 84.2 156.8L84.2 156.8L84.2 157.4L78.3 157.4Q78.3 158.1 78.6 158.7L78.6 158.7Q78.9 159.4 79.5 159.7Q80.0 160.0 80.8 160.0L80.8 160.0Q81.3 160.0 81.7 159.9Q82.1 159.7 82.4 159.4Q82.6 159.2 82.8 158.7L82.8 158.7L84.1 159.1Q83.9 159.7 83.4 160.2Q83.0 160.6 82.3 160.9Q81.6 161.2 80.8 161.2ZM78.3 156.2L78.3 156.2L82.9 156.2Q82.8 155.7 82.6 155.2L82.6 155.2Q82.4 154.6 81.9 154.2Q81.4 153.9 80.6 153.9Q79.9 153.9 79.4 154.2Q78.8 154.6 78.6 155.2L78.6 155.2Q78.3 155.7 78.3 156.2ZM87.4 164.1L86.1 164.1L86.1 152.8L87.4 152.8L87.4 154.1L87.5 154.1Q87.6 153.9 87.9 153.6Q88.1 153.2 88.6 153.0Q89.1 152.7 89.9 152.7L89.9 152.7Q90.9 152.7 91.7 153.2Q92.5 153.7 92.9 154.7Q93.4 155.6 93.4 156.9L93.4 156.9Q93.4 158.2 92.9 159.2Q92.5 160.1 91.7 160.7Q90.9 161.2 89.9 161.2L89.9 161.2Q89.1 161.2 88.6 160.9Q88.2 160.6 87.9 160.3Q87.6 160.0 87.5 159.7L87.5 159.7L87.4 159.7L87.4 164.1ZM89.7 160.0L89.7 160.0Q90.5 160.0 91.0 159.6Q91.5 159.2 91.8 158.5Q92.0 157.8 92.0 156.9L92.0 156.9Q92.0 156.1 91.8 155.4Q91.5 154.7 91.0 154.3Q90.5 153.9 89.7 153.9L89.7 153.9Q88.9 153.9 88.4 154.3Q87.9 154.6 87.7 155.3Q87.4 156.0 87.4 156.9L87.4 156.9Q87.4 157.8 87.7 158.5Q87.9 159.2 88.4 159.6Q89.0 160.0 89.7 160.0ZM95.3 150.1L96.6 150.1L96.6 161L95.3 161L95.3 150.1ZM102.2 161.2L102.2 161.2Q101.1 161.2 100.3 160.6Q99.4 160.1 99.0 159.2Q98.5 158.2 98.5 157.0L98.5 157.0Q98.5 155.7 99.0 154.7Q99.4 153.8 100.3 153.2Q101.1 152.7 102.2 152.7L102.2 152.7Q103.4 152.7 104.2 153.2Q105.0 153.8 105.5 154.7Q106.0 155.7 106.0 157.0L106.0 157.0Q106.0 158.2 105.5 159.2Q105.0 160.1 104.2 160.6Q103.4 161.2 102.2 161.2ZM102.2 160.0L102.2 160.0Q103.1 160.0 103.6 159.6Q104.1 159.1 104.4 158.5Q104.6 157.8 104.6 157.0L104.6 157.0Q104.6 156.1 104.4 155.4Q104.1 154.7 103.6 154.3Q103.1 153.9 102.2 153.9L102.2 153.9Q101.4 153.9 100.9 154.3Q100.4 154.7 100.1 155.4Q99.8 156.1 99.8 157.0L99.8 157.0Q99.8 157.8 100.1 158.5Q100.4 159.1 100.9 159.6Q101.4 160.0 102.2 160.0ZM107.8 164.0L107.8 164.0L108.1 162.8L108.2 162.9Q108.6 163.0 109.0 162.9Q109.3 162.9 109.6 162.6Q109.8 162.3 110.0 161.7L110.0 161.7L110.3 161.0L107.1 152.8L108.6 152.8L110.3 157.7Q110.6 158.4 110.8 159.2L110.8 159.2Q110.9 159.5 111.0 159.8L111.0 159.8Q111.0 159.5 111.1 159.2L111.1 159.2Q111.3 158.4 111.6 157.7L111.6 157.7L113.3 152.8L114.8 152.8L111.2 162.2Q110.9 162.9 110.6 163.3Q110.2 163.7 109.8 163.9Q109.3 164.1 108.7 164.1L108.7 164.1Q108.4 164.1 108.1 164.1Q107.9 164.0 107.8 164.0ZM119.8 161.2L119.8 161.2Q118.6 161.2 117.7 160.6Q116.9 160.1 116.4 159.2Q115.9 158.2 115.9 157.0Q115.9 155.7 116.4 154.8Q116.8 153.8 117.7 153.3Q118.5 152.7 119.6 152.7L119.6 152.7Q120.3 152.7 120.9 152.9Q121.5 153.1 122.1 153.6Q122.6 154.1 122.9 154.9Q123.2 155.7 123.2 156.8L123.2 156.8L123.2 157.4L117.3 157.4Q117.3 158.1 117.6 158.7L117.6 158.7Q117.9 159.4 118.5 159.7Q119.0 160.0 119.8 160.0L119.8 160.0Q120.3 160.0 120.7 159.9Q121.1 159.7 121.3 159.4Q121.6 159.2 121.8 158.7L121.8 158.7L123.1 159.1Q122.9 159.7 122.4 160.2Q122.0 160.6 121.3 160.9Q120.6 161.2 119.8 161.2ZM117.3 156.2L117.3 156.2L121.8 156.2Q121.8 155.7 121.6 155.2L121.6 155.2Q121.4 154.6 120.9 154.2Q120.4 153.9 119.6 153.9Q118.9 153.9 118.4 154.2Q117.8 154.6 117.5 155.2L117.5 155.2Q117.3 155.7 117.3 156.2ZM128.1 161.2L128.1 161.2Q127.1 161.2 126.3 160.7Q125.6 160.1 125.1 159.2Q124.7 158.2 124.7 156.9L124.7 156.9Q124.7 155.6 125.1 154.7Q125.6 153.7 126.3 153.2Q127.1 152.7 128.1 152.7L128.1 152.7Q128.9 152.7 129.4 153.0Q129.9 153.2 130.1 153.6Q130.4 153.9 130.5 154.1L130.5 154.1L130.6 154.1L130.6 150.1L131.9 150.1L131.9 161L130.7 161L130.7 159.7L130.5 159.7Q130.4 160.0 130.1 160.3Q129.9 160.6 129.4 160.9Q128.9 161.2 128.1 161.2ZM128.3 160.0L128.3 160.0Q129.1 160.0 129.6 159.6Q130.1 159.2 130.4 158.5Q130.6 157.8 130.6 156.9L130.6 156.9Q130.6 156.0 130.4 155.3Q130.1 154.6 129.6 154.3Q129.1 153.9 128.3 153.9L128.3 153.9Q127.6 153.9 127.0 154.3Q126.5 154.7 126.3 155.4Q126.0 156.1 126.0 156.9L126.0 156.9Q126.0 157.8 126.3 158.5Q126.5 159.2 127.1 159.6Q127.6 160.0 128.3 160.0Z M141.4 161.2L141.4 161.2Q140.7 161.2 140.0 160.9Q139.4 160.6 139.0 160.0Q138.7 159.5 138.7 158.7L138.7 158.7Q138.7 158.0 138.9 157.5Q139.2 157.1 139.7 156.8Q140.1 156.6 140.7 156.5Q141.3 156.3 141.8 156.3L141.8 156.3Q142.6 156.2 143.0 156.1Q143.5 156.1 143.7 155.9Q143.9 155.8 143.9 155.5L143.9 155.5L143.9 155.5Q143.9 155.0 143.8 154.6Q143.6 154.2 143.2 154.1Q142.8 153.9 142.2 153.9L142.2 153.9Q141.6 153.9 141.2 154.0Q140.8 154.2 140.6 154.5Q140.3 154.8 140.2 155.1L140.2 155.1L138.9 154.6Q139.2 153.9 139.7 153.5Q140.3 153.1 140.9 152.9Q141.6 152.7 142.2 152.7L142.2 152.7Q142.6 152.7 143.1 152.8Q143.7 152.9 144.1 153.2Q144.6 153.5 144.9 154.1Q145.3 154.6 145.3 155.6L145.3 155.6L145.3 161L144.0 161L144.0 159.9L143.9 159.9Q143.7 160.2 143.4 160.5Q143.1 160.8 142.6 161.0Q142.1 161.2 141.4 161.2ZM141.7 160.0L141.7 160.0Q142.4 160.0 142.9 159.7Q143.4 159.5 143.7 159.0Q143.9 158.5 143.9 158.0L143.9 158.0L143.9 156.9Q143.9 157.0 143.6 157.1Q143.3 157.2 143.0 157.2Q142.6 157.3 142.3 157.3Q142.0 157.4 141.8 157.4L141.8 157.4Q141.3 157.4 140.9 157.6Q140.5 157.7 140.2 158.0Q140.0 158.3 140.0 158.7L140.0 158.7Q140.0 159.2 140.2 159.4Q140.4 159.7 140.8 159.9Q141.2 160.0 141.7 160.0ZM150.4 161.2L150.4 161.2Q149.5 161.2 148.9 160.9Q148.2 160.7 147.8 160.2Q147.4 159.7 147.2 159.0L147.2 159.0L148.5 158.7Q148.6 159.4 149.1 159.7Q149.6 160.0 150.3 160.0L150.3 160.0Q151.2 160.0 151.7 159.7Q152.2 159.3 152.2 158.8L152.2 158.8Q152.2 158.4 151.9 158.1Q151.6 157.8 151.0 157.7L151.0 157.7L149.7 157.3Q148.5 157.1 148.0 156.5Q147.5 156.0 147.5 155.1L147.5 155.1Q147.5 154.4 147.9 153.9Q148.3 153.3 148.9 153.0Q149.6 152.7 150.5 152.7L150.5 152.7Q151.3 152.7 151.9 153.0Q152.5 153.2 152.9 153.7Q153.3 154.1 153.4 154.7L153.4 154.7L152.2 155.0Q152.1 154.5 151.7 154.2Q151.3 153.8 150.5 153.8L150.5 153.8Q149.8 153.8 149.3 154.2Q148.8 154.5 148.8 155.0L148.8 155.0Q148.8 155.5 149.1 155.7Q149.5 156.0 150.2 156.2L150.2 156.2L151.4 156.5Q152.5 156.7 153.1 157.3Q153.6 157.9 153.6 158.7L153.6 158.7Q153.6 159.4 153.2 160.0Q152.8 160.5 152.1 160.9Q151.3 161.2 150.4 161.2Z M161.4 161.2L161.4 161.2Q160.7 161.2 160.0 160.9Q159.4 160.6 159.0 160.0Q158.7 159.5 158.7 158.7L158.7 158.7Q158.7 158.0 158.9 157.5Q159.2 157.1 159.7 156.8Q160.1 156.6 160.7 156.5Q161.3 156.3 161.8 156.3L161.8 156.3Q162.6 156.2 163.0 156.1Q163.5 156.1 163.7 155.9Q163.9 155.8 163.9 155.5L163.9 155.5L163.9 155.5Q163.9 155.0 163.8 154.6Q163.6 154.2 163.2 154.1Q162.8 153.9 162.2 153.9L162.2 153.9Q161.6 153.9 161.2 154.0Q160.8 154.2 160.6 154.5Q160.3 154.8 160.2 155.1L160.2 155.1L158.9 154.6Q159.2 153.9 159.7 153.5Q160.3 153.1 160.9 152.9Q161.6 152.7 162.2 152.7L162.2 152.7Q162.6 152.7 163.1 152.8Q163.7 152.9 164.1 153.2Q164.6 153.5 164.9 154.1Q165.3 154.6 165.3 155.6L165.3 155.6L165.3 161L164.0 161L164.0 159.9L163.9 159.9Q163.7 160.2 163.4 160.5Q163.1 160.8 162.6 161.0Q162.1 161.2 161.4 161.2ZM161.7 160.0L161.7 160.0Q162.4 160.0 162.9 159.7Q163.4 159.5 163.7 159.0Q163.9 158.5 163.9 158.0L163.9 158.0L163.9 156.9Q163.9 157.0 163.6 157.1Q163.3 157.2 163.0 157.2Q162.6 157.3 162.3 157.3Q162.0 157.4 161.8 157.4L161.8 157.4Q161.3 157.4 160.9 157.6Q160.5 157.7 160.2 158.0Q160.0 158.3 160.0 158.7L160.0 158.7Q160.0 159.2 160.2 159.4Q160.4 159.7 160.8 159.9Q161.2 160.0 161.7 160.0Z M174.1 152.8L176.0 152.8L176.0 153.9L174.1 153.9L174.1 161L172.8 161L172.8 153.9L171.1 153.9L171.1 152.8L172.8 152.8L172.8 151.7Q172.8 151.0 173.1 150.5Q173.4 150.1 174.0 149.8Q174.5 149.6 175.1 149.6L175.1 149.6Q175.6 149.6 175.9 149.7Q176.2 149.7 176.3 149.8L176.3 149.8L176.0 150.9Q175.8 150.9 175.7 150.8Q175.5 150.8 175.2 150.8L175.2 150.8Q174.6 150.8 174.4 151.1Q174.1 151.4 174.1 152.0L174.1 152.0L174.1 152.8ZM180.5 161.1L180.5 161.1Q179.7 161.1 179.0 160.8Q178.4 160.4 178.1 159.7Q177.7 159.0 177.7 158.0L177.7 158.0L177.7 152.8L179.0 152.8L179.0 157.9Q179.0 158.8 179.5 159.4Q180.0 159.9 180.9 159.9L180.9 159.9Q181.5 159.9 181.9 159.7Q182.4 159.4 182.7 158.9Q182.9 158.4 182.9 157.7L182.9 157.7L182.9 152.8L184.3 152.8L184.3 161L183.0 161L183.0 159.5Q182.6 160.3 182.1 160.6L182.1 160.6Q181.4 161.1 180.5 161.1ZM186.6 150.1L187.9 150.1L187.9 161L186.6 161L186.6 150.1ZM190.2 150.1L191.5 150.1L191.5 161L190.2 161L190.2 150.1ZM193.7 155.7L198.5 155.7L198.5 156.9L193.7 156.9L193.7 155.7ZM203.5 161.2L203.5 161.2Q202.7 161.2 202.0 160.9Q201.4 160.7 200.9 160.2Q200.5 159.7 200.4 159.0L200.4 159.0L201.6 158.7Q201.8 159.4 202.3 159.7Q202.8 160.0 203.5 160.0L203.5 160.0Q204.4 160.0 204.9 159.7Q205.4 159.3 205.4 158.8L205.4 158.8Q205.4 158.4 205.1 158.1Q204.8 157.8 204.2 157.7L204.2 157.7L202.8 157.3Q201.7 157.1 201.2 156.5Q200.6 156.0 200.6 155.1L200.6 155.1Q200.6 154.4 201.0 153.9Q201.4 153.3 202.1 153.0Q202.8 152.7 203.7 152.7L203.7 152.7Q204.5 152.7 205.1 153.0Q205.7 153.2 206.1 153.7Q206.4 154.1 206.6 154.7L206.6 154.7L205.4 155.0Q205.2 154.5 204.8 154.2Q204.5 153.8 203.7 153.8L203.7 153.8Q202.9 153.8 202.4 154.2Q202.0 154.5 202.0 155.0L202.0 155.0Q202.0 155.5 202.3 155.7Q202.6 156.0 203.3 156.2L203.3 156.2L204.6 156.5Q205.7 156.7 206.2 157.3Q206.8 157.9 206.8 158.7L206.8 158.7Q206.8 159.4 206.4 160.0Q205.9 160.5 205.2 160.9Q204.5 161.2 203.5 161.2ZM210.2 152.8L211.9 152.8L211.9 153.9L210.2 153.9L210.2 158.9Q210.2 159.4 210.4 159.7Q210.6 159.9 211.2 159.9L211.2 159.9Q211.3 159.9 211.5 159.9Q211.7 159.9 211.8 159.8L211.8 159.8L212.1 161.0Q211.9 161.0 211.6 161.1Q211.4 161.1 211.1 161.1L211.1 161.1Q210.1 161.1 209.5 160.5Q208.9 160.0 208.9 159.0L208.9 159.0L208.9 153.9L207.7 153.9L207.7 152.8L208.9 152.8L208.9 150.9L210.2 150.9L210.2 152.8ZM215.9 161.2L215.9 161.2Q215.1 161.2 214.5 160.9Q213.8 160.6 213.4 160.0Q213.1 159.5 213.1 158.7L213.1 158.7Q213.1 158.0 213.3 157.5Q213.6 157.1 214.1 156.8Q214.6 156.6 215.1 156.5Q215.7 156.3 216.3 156.3L216.3 156.3Q217.0 156.2 217.5 156.1Q217.9 156.1 218.1 155.9Q218.4 155.8 218.4 155.5L218.4 155.5L218.4 155.5Q218.4 155.0 218.2 154.6Q218.0 154.2 217.6 154.1Q217.2 153.9 216.6 153.9L216.6 153.9Q216.1 153.9 215.6 154.0Q215.2 154.2 215.0 154.5Q214.7 154.8 214.6 155.1L214.6 155.1L213.3 154.6Q213.6 153.9 214.2 153.5Q214.7 153.1 215.3 152.9Q216.0 152.7 216.6 152.7L216.6 152.7Q217.0 152.7 217.5 152.8Q218.1 152.9 218.6 153.2Q219.0 153.5 219.4 154.1Q219.7 154.6 219.7 155.6L219.7 155.6L219.7 161L218.4 161L218.4 159.9L218.3 159.9Q218.2 160.2 217.8 160.5Q217.5 160.8 217.0 161.0Q216.6 161.2 215.9 161.2ZM216.1 160.0L216.1 160.0Q216.8 160.0 217.3 159.7Q217.8 159.5 218.1 159.0Q218.4 158.5 218.4 158.0L218.4 158.0L218.4 156.9Q218.3 157.0 218.0 157.1Q217.7 157.2 217.4 157.2Q217.0 157.3 216.7 157.3Q216.4 157.4 216.2 157.4L216.2 157.4Q215.7 157.4 215.3 157.6Q214.9 157.7 214.6 158.0Q214.4 158.3 214.4 158.7L214.4 158.7Q214.4 159.2 214.6 159.4Q214.8 159.7 215.2 159.9Q215.6 160.0 216.1 160.0ZM225.3 161.2L225.3 161.2Q224.2 161.2 223.4 160.6Q222.5 160.1 222.1 159.2Q221.6 158.2 221.6 157.0L221.6 157.0Q221.6 155.7 222.1 154.7Q222.5 153.8 223.4 153.2Q224.2 152.7 225.3 152.7L225.3 152.7Q225.9 152.7 226.4 152.9Q227.0 153.0 227.4 153.3Q227.8 153.6 228.2 154.0Q228.5 154.4 228.6 155.0L228.6 155.0L227.4 155.3Q227.3 155.0 227.1 154.8Q226.9 154.5 226.7 154.3Q226.4 154.1 226.1 154.0Q225.7 153.9 225.3 153.9L225.3 153.9Q224.5 153.9 224.0 154.3Q223.4 154.7 223.2 155.4Q222.9 156.1 222.9 157.0L222.9 157.0Q222.9 157.8 223.2 158.5Q223.4 159.1 224.0 159.6Q224.5 160.0 225.3 160.0L225.3 160.0Q225.7 160.0 226.1 159.9Q226.4 159.8 226.7 159.6Q227.0 159.4 227.1 159.1Q227.3 158.8 227.4 158.5L227.4 158.5L228.7 158.8Q228.5 159.4 228.2 159.8Q227.9 160.3 227.4 160.6Q227.0 160.9 226.5 161.0Q225.9 161.2 225.3 161.2ZM231.9 161L230.6 161L230.6 150.1L231.9 150.1L231.9 156.4L232.0 156.4L235.5 152.8L237.2 152.8L233.7 156.3L237.4 161L235.7 161L232.7 157.2L231.9 158.0L231.9 161Z M246.3 161L245.0 161L242.5 152.8L243.9 152.8L244.9 156.4Q245.1 157.1 245.3 158.0L245.3 158.0Q245.5 158.7 245.7 159.6L245.7 159.6Q245.9 158.8 246.0 158.1L246.0 158.1Q246.3 157.2 246.5 156.4L246.5 156.4L247.4 152.8L248.9 152.8L249.8 156.4Q250.0 157.1 250.3 158.1L250.3 158.1Q250.4 158.8 250.6 159.6L250.6 159.6Q250.8 158.8 250.9 158.1L250.9 158.1Q251.2 157.2 251.4 156.4L251.4 156.4L252.4 152.8L253.8 152.8L251.3 161L250.0 161L248.9 157.3Q248.7 156.7 248.6 156.1Q248.4 155.6 248.3 154.9L248.3 154.9Q248.2 154.6 248.1 154.3L248.1 154.3Q248.1 154.6 248.0 154.9L248.0 154.9Q247.8 155.6 247.7 156.2Q247.5 156.7 247.4 157.3L247.4 157.3L246.3 161ZM258.9 161.2L258.9 161.2Q257.7 161.2 256.8 160.6Q256.0 160.1 255.5 159.2Q255.0 158.2 255.0 157.0Q255.0 155.7 255.5 154.8Q255.9 153.8 256.8 153.3Q257.6 152.7 258.7 152.7L258.7 152.7Q259.4 152.7 260.0 152.9Q260.6 153.1 261.2 153.6Q261.7 154.1 262.0 154.9Q262.3 155.7 262.3 156.8L262.3 156.8L262.3 157.4L256.4 157.4Q256.4 158.1 256.7 158.7L256.7 158.7Q257 159.4 257.6 159.7Q258.1 160.0 258.9 160.0L258.9 160.0Q259.4 160.0 259.8 159.9Q260.2 159.7 260.4 159.4Q260.7 159.2 260.9 158.7L260.9 158.7L262.2 159.1Q262.0 159.7 261.5 160.2Q261.1 160.6 260.4 160.9Q259.7 161.2 258.9 161.2ZM256.4 156.2L256.4 156.2L260.9 156.2Q260.9 155.7 260.7 155.2L260.7 155.2Q260.5 154.6 260.0 154.2Q259.5 153.9 258.7 153.9Q258.0 153.9 257.5 154.2Q256.9 154.6 256.6 155.2L256.6 155.2Q256.4 155.7 256.4 156.2ZM268.0 161.2L268.0 161.2Q267.2 161.2 266.7 160.9Q266.3 160.6 266.0 160.3Q265.7 160.0 265.6 159.7L265.6 159.7L265.5 159.7L265.5 161L264.2 161L264.2 150.1L265.5 150.1L265.5 154.1L265.6 154.1Q265.7 153.9 266.0 153.6Q266.2 153.2 266.7 153.0Q267.2 152.7 268.0 152.7L268.0 152.7Q269.0 152.7 269.8 153.2Q270.6 153.7 271.0 154.7Q271.4 155.6 271.4 156.9L271.4 156.9Q271.4 158.2 271.0 159.2Q270.6 160.1 269.8 160.7Q269.0 161.2 268.0 161.2ZM267.8 160.0L267.8 160.0Q268.6 160.0 269.1 159.6Q269.6 159.2 269.8 158.5Q270.1 157.8 270.1 156.9L270.1 156.9Q270.1 156.1 269.8 155.4Q269.6 154.7 269.1 154.3Q268.6 153.9 267.8 153.9L267.8 153.9Q267.0 153.9 266.5 154.3Q266.0 154.6 265.7 155.3Q265.5 156.0 265.5 156.9L265.5 156.9Q265.5 157.8 265.7 158.5Q266.0 159.2 266.5 159.6Q267.0 160.0 267.8 160.0Z M279.4 161.2L279.4 161.2Q278.7 161.2 278.0 160.9Q277.4 160.6 277.0 160.0Q276.7 159.5 276.7 158.7L276.7 158.7Q276.7 158.0 276.9 157.5Q277.2 157.1 277.7 156.8Q278.1 156.6 278.7 156.5Q279.3 156.3 279.8 156.3L279.8 156.3Q280.6 156.2 281.0 156.1Q281.5 156.1 281.7 155.9Q281.9 155.8 281.9 155.5L281.9 155.5L281.9 155.5Q281.9 155.0 281.8 154.6Q281.6 154.2 281.2 154.1Q280.8 153.9 280.2 153.9L280.2 153.9Q279.6 153.9 279.2 154.0Q278.8 154.2 278.6 154.5Q278.3 154.8 278.2 155.1L278.2 155.1L276.9 154.6Q277.2 153.9 277.7 153.5Q278.3 153.1 278.9 152.9Q279.6 152.7 280.2 152.7L280.2 152.7Q280.6 152.7 281.1 152.8Q281.7 152.9 282.1 153.2Q282.6 153.5 282.9 154.1Q283.3 154.6 283.3 155.6L283.3 155.6L283.3 161L282.0 161L282.0 159.9L281.9 159.9Q281.7 160.2 281.4 160.5Q281.1 160.8 280.6 161.0Q280.1 161.2 279.4 161.2ZM279.7 160.0L279.7 160.0Q280.4 160.0 280.9 159.7Q281.4 159.5 281.7 159.0Q281.9 158.5 281.9 158.0L281.9 158.0L281.9 156.9Q281.9 157.0 281.6 157.1Q281.3 157.2 281.0 157.2Q280.6 157.3 280.3 157.3Q280.0 157.4 279.8 157.4L279.8 157.4Q279.3 157.4 278.9 157.6Q278.5 157.7 278.2 158.0Q278.0 158.3 278.0 158.7L278.0 158.7Q278.0 159.2 278.2 159.4Q278.4 159.7 278.8 159.9Q279.2 160.0 279.7 160.0ZM286.9 164.1L285.6 164.1L285.6 152.8L286.9 152.8L286.9 154.1L287.0 154.1Q287.1 153.9 287.4 153.6Q287.6 153.2 288.1 153.0Q288.6 152.7 289.4 152.7L289.4 152.7Q290.4 152.7 291.2 153.2Q292.0 153.7 292.4 154.7Q292.8 155.6 292.8 156.9L292.8 156.9Q292.8 158.2 292.4 159.2Q292.0 160.1 291.2 160.7Q290.4 161.2 289.4 161.2L289.4 161.2Q288.6 161.2 288.1 160.9Q287.7 160.6 287.4 160.3Q287.1 160.0 287.0 159.7L287.0 159.7L286.9 159.7L286.9 164.1ZM289.2 160.0L289.2 160.0Q290.0 160.0 290.5 159.6Q291.0 159.2 291.2 158.5Q291.5 157.8 291.5 156.9L291.5 156.9Q291.5 156.1 291.2 155.4Q291.0 154.7 290.5 154.3Q290.0 153.9 289.2 153.9L289.2 153.9Q288.4 153.9 287.9 154.3Q287.4 154.6 287.1 155.3Q286.9 156.0 286.9 156.9L286.9 156.9Q286.9 157.8 287.1 158.5Q287.4 159.2 287.9 159.6Q288.4 160.0 289.2 160.0ZM296.1 164.1L294.8 164.1L294.8 152.8L296.0 152.8L296.0 154.1L296.2 154.1Q296.3 153.9 296.6 153.6Q296.8 153.2 297.3 153.0Q297.8 152.7 298.6 152.7L298.6 152.7Q299.6 152.7 300.4 153.2Q301.1 153.7 301.6 154.7Q302.0 155.6 302.0 156.9L302.0 156.9Q302.0 158.2 301.6 159.2Q301.2 160.1 300.4 160.7Q299.6 161.2 298.6 161.2L298.6 161.2Q297.8 161.2 297.3 160.9Q296.8 160.6 296.6 160.3Q296.3 160.0 296.2 159.7L296.2 159.7L296.1 159.7L296.1 164.1ZM298.4 160.0L298.4 160.0Q299.1 160.0 299.7 159.6Q300.2 159.2 300.4 158.5Q300.7 157.8 300.7 156.9L300.7 156.9Q300.7 156.1 300.4 155.4Q300.2 154.7 299.7 154.3Q299.1 153.9 298.4 153.9L298.4 153.9Q297.6 153.9 297.1 154.3Q296.6 154.6 296.3 155.3Q296.1 156.0 296.1 156.9L296.1 156.9Q296.1 157.8 296.3 158.5Q296.6 159.2 297.1 159.6Q297.6 160.0 298.4 160.0Z "/></g></svg>