<!-- Generated by readme-aura https://github.com/collectioneur/readme-aura -->
<svg width="800" height="80" viewBox="0 0 800 80" xmlns="http://www.w3.org/2000/svg"><mask id="satori_om-id"><rect x="0" y="0" width="800" height="80" fill="#fff"/></mask><rect x="0" y="0" width="800" height="80" fill="#0a0a0a"/><mask id="satori_om-id-0"><rect x="48" y="31" width="110" height="19" fill="#fff"/></mask><g  ><path fill="#fff" d="M51.0 47L48.4 47L52.4 35.4L55.5 35.4L59.6 47L56.9 47L56.0 44.3L51.9 44.3L51.0 47ZM52.5 42.4L55.4 42.4L55.0 41.4Q54.7 40.3 54.4 39L54.4 39Q54.1 38.2 53.9 37.2L53.9 37.2Q53.7 38.2 53.5 39.0L53.5 39.0Q53.1 40.3 52.8 41.4L52.8 41.4L52.5 42.4ZM60.4 35.4L62.8 35.4L62.8 47L60.4 47L60.4 35.4ZM66.6 47L64.3 47L64.3 38.3L66.6 38.3L66.6 47ZM65.5 37.1L65.5 37.1Q64.9 37.1 64.5 36.8Q64.2 36.4 64.2 35.9L64.2 35.9Q64.2 35.4 64.5 35.1Q64.9 34.7 65.5 34.7L65.5 34.7Q66.0 34.7 66.4 35.1Q66.7 35.4 66.7 35.9L66.7 35.9Q66.7 36.4 66.4 36.8Q66.0 37.1 65.5 37.1Z M73.4 47L70.8 47L74.8 35.4L77.9 35.4L82.0 47L79.3 47L78.4 44.3L74.3 44.3L73.4 47ZM74.9 42.4L77.8 42.4L77.5 41.4Q77.1 40.3 76.8 39L76.8 39Q76.5 38.2 76.3 37.2L76.3 37.2Q76.1 38.2 75.9 39.0L75.9 39.0Q75.5 40.3 75.2 41.4L75.2 41.4L74.9 42.4ZM85.2 47L82.9 47L82.9 35.4L85.2 35.4L85.2 41.6L85.3 41.6L88.2 38.3L90.9 38.3L87.6 42.1L91.1 47L88.3 47L85.9 43.4L85.2 44.2L85.2 47ZM96.5 47.1L96.5 47.1Q95.8 47.1 95.3 46.9Q94.8 46.7 94.5 46.3Q94.2 46.0 94.0 45.6L94.0 45.6L93.9 45.6L93.9 47L91.6 47L91.6 35.4L94.0 35.4L94.0 39.7L94.0 39.7Q94.2 39.4 94.5 39.0Q94.8 38.7 95.3 38.4Q95.8 38.2 96.5 38.2L96.5 38.2Q97.5 38.2 98.3 38.7Q99.1 39.2 99.6 40.2Q100.1 41.2 100.1 42.6L100.1 42.6Q100.1 44.1 99.6 45.1Q99.1 46.1 98.3 46.6Q97.5 47.1 96.5 47.1ZM95.8 45.3L95.8 45.3Q96.4 45.3 96.8 44.9Q97.3 44.6 97.5 44Q97.7 43.4 97.7 42.6L97.7 42.6Q97.7 41.9 97.5 41.3Q97.3 40.7 96.8 40.4Q96.4 40.0 95.8 40.0L95.8 40.0Q95.2 40.0 94.8 40.4Q94.4 40.7 94.1 41.3Q93.9 41.8 93.9 42.6L93.9 42.6Q93.9 43.4 94.1 44.0Q94.4 44.6 94.8 44.9Q95.2 45.3 95.8 45.3ZM103.7 47.2L103.7 47.2Q102.8 47.2 102.2 46.9Q101.5 46.6 101.1 46.0Q100.8 45.4 100.8 44.6L100.8 44.6Q100.8 43.8 101.0 43.3Q101.3 42.8 101.8 42.5Q102.2 42.3 102.8 42.1Q103.4 41.9 104.0 41.9L104.0 41.9Q104.8 41.8 105.3 41.7Q105.7 41.7 105.9 41.5Q106.2 41.4 106.2 41.1L106.2 41.1L106.2 41.1Q106.2 40.7 106.0 40.4Q105.9 40.2 105.5 40.0Q105.2 39.9 104.8 39.9L104.8 39.9Q104.3 39.9 104.0 40.0Q103.7 40.2 103.5 40.4Q103.3 40.6 103.1 40.9L103.1 40.9L101 40.5Q101.2 39.8 101.8 39.3Q102.3 38.7 103.1 38.4Q103.8 38.2 104.8 38.2L104.8 38.2Q105.5 38.2 106.2 38.3Q106.8 38.5 107.4 38.8Q107.9 39.2 108.2 39.8Q108.5 40.3 108.5 41.1L108.5 41.1L108.5 47L106.3 47L106.3 45.8L106.2 45.8Q106 46.2 105.6 46.5Q105.3 46.8 104.8 47.0Q104.3 47.2 103.7 47.2ZM104.3 45.5L104.3 45.5Q104.9 45.5 105.3 45.3Q105.7 45.1 105.9 44.7Q106.2 44.3 106.2 43.9L106.2 43.9L106.2 42.9Q106.1 43.0 105.9 43.1Q105.7 43.1 105.4 43.2Q105.1 43.2 104.9 43.3Q104.6 43.3 104.4 43.3L104.4 43.3Q104.0 43.4 103.7 43.5Q103.4 43.7 103.2 43.9Q103 44.1 103 44.5L103 44.5Q103 44.8 103.2 45.1Q103.3 45.3 103.6 45.4Q103.9 45.5 104.3 45.5ZM112.4 47L110.0 47L110.0 38.3L112.3 38.3L112.3 39.8L112.4 39.8Q112.6 39.0 113.2 38.6Q113.7 38.1 114.5 38.1L114.5 38.1Q114.7 38.1 114.9 38.2Q115.1 38.2 115.2 38.2L115.2 38.2L115.2 40.3Q115.1 40.3 114.8 40.2Q114.5 40.2 114.2 40.2L114.2 40.2Q113.7 40.2 113.3 40.4Q112.8 40.7 112.6 41.1Q112.4 41.5 112.4 42.0L112.4 42.0L112.4 47Z M121.8 47L119.4 47L119.4 35.4L121.8 35.4L121.8 38.5L121.7 41.2Q121.8 41.1 121.8 41L121.8 41Q122.2 40.5 122.6 39.9Q123 39.4 123.5 38.7L123.5 38.7L126.4 35.4L129.3 35.4L124.9 40.4L129.4 47L126.6 47L123.3 42.0L121.8 43.7L121.8 47ZM132.7 41.9L132.7 41.9L132.7 47L130.3 47L130.3 35.4L132.6 35.4L132.6 39.9Q132.9 39.2 133.5 38.8L133.5 38.8Q134.2 38.2 135.3 38.2L135.3 38.2Q136.2 38.2 136.9 38.6Q137.5 38.9 137.9 39.7Q138.3 40.4 138.3 41.4L138.3 41.4L138.3 47L135.9 47L135.9 41.9Q135.9 41.0 135.5 40.6Q135.1 40.1 134.4 40.1L134.4 40.1Q133.9 40.1 133.5 40.3Q133.1 40.5 132.9 41.0Q132.7 41.4 132.7 41.9ZM142.2 47.2L142.2 47.2Q141.4 47.2 140.7 46.9Q140.1 46.6 139.7 46.0Q139.3 45.4 139.3 44.6L139.3 44.6Q139.3 43.8 139.6 43.3Q139.9 42.8 140.3 42.5Q140.8 42.3 141.4 42.1Q142.0 41.9 142.6 41.9L142.6 41.9Q143.4 41.8 143.8 41.7Q144.3 41.7 144.5 41.5Q144.7 41.4 144.7 41.1L144.7 41.1L144.7 41.1Q144.7 40.7 144.6 40.4Q144.4 40.2 144.1 40.0Q143.8 39.9 143.4 39.9L143.4 39.9Q142.9 39.9 142.6 40.0Q142.2 40.2 142.0 40.4Q141.8 40.6 141.7 40.9L141.7 40.9L139.6 40.5Q139.8 39.8 140.3 39.3Q140.8 38.7 141.6 38.4Q142.4 38.2 143.4 38.2L143.4 38.2Q144.1 38.2 144.7 38.3Q145.4 38.5 145.9 38.8Q146.5 39.2 146.8 39.8Q147.1 40.3 147.1 41.1L147.1 41.1L147.1 47L144.9 47L144.9 45.8L144.8 45.8Q144.6 46.2 144.2 46.5Q143.9 46.8 143.4 47.0Q142.9 47.2 142.2 47.2ZM142.9 45.5L142.9 45.5Q143.4 45.5 143.9 45.3Q144.3 45.1 144.5 44.7Q144.7 44.3 144.7 43.9L144.7 43.9L144.7 42.9Q144.6 43.0 144.4 43.1Q144.2 43.1 144.0 43.2Q143.7 43.2 143.5 43.3Q143.2 43.3 143.0 43.3L143.0 43.3Q142.6 43.4 142.3 43.5Q141.9 43.7 141.7 43.9Q141.6 44.1 141.6 44.5L141.6 44.5Q141.6 44.8 141.7 45.1Q141.9 45.3 142.2 45.4Q142.5 45.5 142.9 45.5ZM150.9 41.9L150.9 41.9L150.9 47L148.6 47L148.6 38.3L150.8 38.3L150.8 40.1Q151.1 39.2 151.7 38.8L151.7 38.8Q152.4 38.2 153.5 38.2L153.5 38.2Q154.4 38.2 155.1 38.6Q155.8 38.9 156.2 39.7Q156.5 40.4 156.5 41.4L156.5 41.4L156.5 47L154.2 47L154.2 41.9Q154.2 41.0 153.8 40.6Q153.4 40.1 152.6 40.1L152.6 40.1Q152.1 40.1 151.7 40.3Q151.3 40.5 151.1 41.0Q150.9 41.4 150.9 41.9Z "/></g><mask id="satori_om-id-1"><rect x="612" y="32" width="140" height="16" fill="#fff"/></mask><mask id="satori_om-id-1-0"><rect x="612" y="32" width="58" height="16" fill="#fff"/></mask><mask id="satori_om-id-1-0-0"><rect x="612" y="32" width="9" height="16" fill="#fff"/></mask><g  ><path fill="#ef4444" d="M618.4 33.2L618.4 47.6L614.1 47.6L614.1 33.2L618.4 33.2ZM616.6 45.4L615.3 46.2L615.3 46.6L617.3 46.6L617.3 46.2L615.9 46.2L617.3 45.4L617.3 45L615.3 45L615.3 45.4L616.6 45.4ZM617.3 43.0L615.3 43.0L615.3 44.6L617.3 44.6L617.3 43.0ZM616.9 43.4L616.9 44.2L615.7 44.2L615.7 43.4L616.9 43.4ZM615.7 40.5L615.3 40.5L615.3 42.2L617.3 42.2L617.3 40.5L616.1 40.5L616.1 41.3L616.5 41.3L616.5 40.9L616.9 40.9L616.9 41.8L615.7 41.8L615.7 40.5ZM616.9 39.7L615.3 39.7L615.3 40.1L617.3 40.1L617.3 38.7L616.9 38.7L616.9 39.7ZM616.1 38.9L615.3 38.9L615.3 39.3L616.5 39.3L616.5 38.3L617.3 38.3L617.3 37.9L615.3 37.9L615.3 38.3L616.1 38.3L616.1 38.9ZM616.1 36.5L616.1 37.1L615.7 37.1L615.7 36.5L616.1 36.5ZM616.5 36.1L615.3 36.1L615.3 37.5L617.3 37.5L617.3 37.1L616.5 37.1L616.5 36.1ZM616.0 35.3L615.3 35.3L615.3 35.7L617.3 35.7L617.3 35.3L616.4 35.3L616.4 34.6L617.3 34.6L617.3 34.2L615.3 34.2L615.3 34.6L616.0 34.6L616.0 35.3Z "/></g><g  ><path fill="#555" d="M629.3 45L628.1 45L628.1 35.5L629.3 35.5L629.3 38.8L629.3 40.5Q629.5 40.3 629.6 40.2L629.6 40.2Q629.9 39.8 630.3 39.4Q630.6 39.0 631.0 38.6L631.0 38.6L633.8 35.5L635.4 35.5L631.5 39.6L635.4 45L633.9 45L630.7 40.5L629.3 41.9L629.3 45ZM638.7 45.2L638.7 45.2Q638.1 45.2 637.5 44.9Q637.0 44.7 636.6 44.2Q636.3 43.7 636.3 43.0L636.3 43.0Q636.3 42.4 636.5 42.0Q636.8 41.6 637.2 41.4Q637.6 41.2 638.1 41.1Q638.6 41.0 639.1 40.9L639.1 40.9Q639.7 40.8 640.1 40.8Q640.5 40.7 640.7 40.6Q640.9 40.5 640.9 40.2L640.9 40.2L640.9 40.2Q640.9 39.8 640.7 39.5Q640.6 39.1 640.2 39.0Q639.9 38.8 639.4 38.8L639.4 38.8Q638.9 38.8 638.5 39.0Q638.2 39.1 637.9 39.4Q637.7 39.6 637.6 39.9L637.6 39.9L636.5 39.5Q636.8 38.8 637.2 38.5Q637.7 38.1 638.3 38.0Q638.8 37.8 639.4 37.8L639.4 37.8Q639.7 37.8 640.2 37.9Q640.6 38.0 641.1 38.2Q641.5 38.5 641.8 39.0Q642.0 39.5 642.0 40.3L642.0 40.3L642.0 45L640.9 45L640.9 44.0L640.8 44.0Q640.7 44.3 640.4 44.5Q640.2 44.8 639.8 45.0Q639.3 45.2 638.7 45.2ZM638.9 44.2L638.9 44.2Q639.6 44.2 640.0 43.9Q640.4 43.7 640.7 43.3Q640.9 42.9 640.9 42.4L640.9 42.4L640.9 41.5Q640.8 41.5 640.6 41.6Q640.3 41.7 640.0 41.7Q639.7 41.8 639.5 41.8Q639.2 41.8 639.0 41.9L639.0 41.9Q638.6 41.9 638.2 42.0Q637.9 42.2 637.7 42.4Q637.5 42.6 637.5 43.0L637.5 43.0Q637.5 43.4 637.6 43.7Q637.8 43.9 638.2 44.0Q638.5 44.2 638.9 44.2ZM646.9 47.8L646.9 47.8Q646.1 47.8 645.6 47.6Q645.0 47.4 644.6 47.1Q644.2 46.7 644.0 46.4L644.0 46.4L644.9 45.8Q645.1 46.0 645.3 46.2Q645.5 46.5 645.9 46.6Q646.3 46.8 646.9 46.8L646.9 46.8Q647.8 46.8 648.3 46.4Q648.9 46.0 648.9 45.1L648.9 45.1L648.9 43.7L648.8 43.7Q648.6 43.9 648.4 44.2Q648.2 44.5 647.8 44.7Q647.4 44.9 646.7 44.9L646.7 44.9Q645.8 44.9 645.2 44.5Q644.5 44.1 644.1 43.3Q643.7 42.5 643.7 41.4L643.7 41.4Q643.7 40.3 644.1 39.5Q644.5 38.7 645.2 38.3Q645.8 37.8 646.7 37.8L646.7 37.8Q647.4 37.8 647.8 38.0Q648.2 38.3 648.4 38.6Q648.7 38.8 648.8 39.0L648.8 39.0L648.9 39.0L648.9 37.9L650.0 37.9L650.0 45.2Q650.0 46.1 649.6 46.7Q649.2 47.3 648.5 47.5Q647.8 47.8 646.9 47.8ZM646.9 43.9L646.9 43.9Q647.5 43.9 648.0 43.6Q648.4 43.3 648.6 42.7Q648.9 42.2 648.9 41.4L648.9 41.4Q648.9 40.6 648.6 40.1Q648.4 39.5 648.0 39.2Q647.5 38.8 646.9 38.8L646.9 38.8Q646.2 38.8 645.8 39.2Q645.3 39.5 645.1 40.1Q644.9 40.7 644.9 41.4L644.9 41.4Q644.9 42.1 645.1 42.7Q645.3 43.2 645.8 43.6Q646.2 43.9 646.9 43.9ZM654.9 47.8L654.9 47.8Q654.1 47.8 653.5 47.6Q652.9 47.4 652.6 47.1Q652.2 46.7 652.0 46.4L652.0 46.4L652.9 45.8Q653.0 46.0 653.3 46.2Q653.5 46.5 653.9 46.6Q654.3 46.8 654.9 46.8L654.9 46.8Q655.7 46.8 656.3 46.4Q656.8 46.0 656.8 45.1L656.8 45.1L656.8 43.7L656.7 43.7Q656.6 43.9 656.4 44.2Q656.2 44.5 655.8 44.7Q655.3 44.9 654.7 44.9L654.7 44.9Q653.8 44.9 653.1 44.5Q652.5 44.1 652.1 43.3Q651.7 42.5 651.7 41.4L651.7 41.4Q651.7 40.3 652.1 39.5Q652.4 38.7 653.1 38.3Q653.8 37.8 654.7 37.8L654.7 37.8Q655.4 37.8 655.8 38.0Q656.2 38.3 656.4 38.6Q656.6 38.8 656.8 39.0L656.8 39.0L656.9 39.0L656.9 37.9L658.0 37.9L658.0 45.2Q658.0 46.1 657.6 46.7Q657.2 47.3 656.4 47.5Q655.7 47.8 654.9 47.8ZM654.9 43.9L654.9 43.9Q655.5 43.9 655.9 43.6Q656.4 43.3 656.6 42.7Q656.8 42.2 656.8 41.4L656.8 41.4Q656.8 40.6 656.6 40.1Q656.4 39.5 656.0 39.2Q655.5 38.8 654.9 38.8L654.9 38.8Q654.2 38.8 653.7 39.2Q653.3 39.5 653.1 40.1Q652.8 40.7 652.8 41.4L652.8 41.4Q652.8 42.1 653.1 42.7Q653.3 43.2 653.7 43.6Q654.2 43.9 654.9 43.9ZM660.0 35.5L661.1 35.5L661.1 45L660.0 45L660.0 35.5ZM666.1 45.2L666.1 45.2Q665.1 45.2 664.3 44.7Q663.6 44.2 663.2 43.4Q662.8 42.6 662.8 41.5Q662.8 40.4 663.2 39.6Q663.6 38.8 664.3 38.3Q665.0 37.8 666.0 37.8L666.0 37.8Q666.5 37.8 667.1 38.0Q667.6 38.2 668.1 38.6Q668.5 39.0 668.8 39.7Q669.1 40.4 669.1 41.4L669.1 41.4L669.1 41.8L663.9 41.8Q664.0 42.5 664.2 43.0L664.2 43.0Q664.5 43.6 665.0 43.9Q665.5 44.1 666.1 44.1L666.1 44.1Q666.5 44.1 666.9 44.0Q667.2 43.9 667.5 43.7Q667.7 43.4 667.9 43.0L667.9 43.0L669.0 43.3Q668.8 43.9 668.4 44.3Q668.0 44.7 667.4 44.9Q666.8 45.2 666.1 45.2ZM663.9 40.9L663.9 40.9L667.9 40.9Q667.9 40.4 667.7 40.0L667.7 40.0Q667.5 39.4 667.1 39.1Q666.6 38.8 666.0 38.8Q665.3 38.8 664.9 39.1Q664.4 39.5 664.2 40.0L664.2 40.0Q664.0 40.4 663.9 40.9Z "/></g><mask id="satori_om-id-1-1"><rect x="694" y="32" width="58" height="16" fill="#fff"/></mask><mask id="satori_om-id-1-1-0"><rect x="694" y="32" width="9" height="16" fill="#fff"/></mask><g  ><path fill="#ef4444" d="M700.4 33.2L700.4 47.6L696.1 47.6L696.1 33.2L700.4 33.2ZM698.6 45.4L697.3 46.2L697.3 46.6L699.3 46.6L699.3 46.2L697.9 46.2L699.3 45.4L699.3 45L697.3 45L697.3 45.4L698.6 45.4ZM699.3 43.0L697.3 43.0L697.3 44.6L699.3 44.6L699.3 43.0ZM698.9 43.4L698.9 44.2L697.7 44.2L697.7 43.4L698.9 43.4ZM697.7 40.5L697.3 40.5L697.3 42.2L699.3 42.2L699.3 40.5L698.1 40.5L698.1 41.3L698.5 41.3L698.5 40.9L698.9 40.9L698.9 41.8L697.7 41.8L697.7 40.5ZM698.9 39.7L697.3 39.7L697.3 40.1L699.3 40.1L699.3 38.7L698.9 38.7L698.9 39.7ZM698.1 38.9L697.3 38.9L697.3 39.3L698.5 39.3L698.5 38.3L699.3 38.3L699.3 37.9L697.3 37.9L697.3 38.3L698.1 38.3L698.1 38.9ZM698.1 36.5L698.1 37.1L697.7 37.1L697.7 36.5L698.1 36.5ZM698.5 36.1L697.3 36.1L697.3 37.5L699.3 37.5L699.3 37.1L698.5 37.1L698.5 36.1ZM698.0 35.3L697.3 35.3L697.3 35.7L699.3 35.7L699.3 35.3L698.4 35.3L698.4 34.6L699.3 34.6L699.3 34.2L697.3 34.2L697.3 34.6L698.0 34.6L698.0 35.3Z "/></g><g  ><path fill="#555" d="M714.0 45.1L714.0 45.1Q712.7 45.1 711.8 44.5Q710.8 43.9 710.3 42.9Q709.8 41.8 709.8 40.3L709.8 40.3Q709.8 38.8 710.3 37.7Q710.8 36.6 711.8 36.0Q712.7 35.4 713.9 35.4L713.9 35.4Q714.7 35.4 715.3 35.6Q716.0 35.9 716.5 36.3Q717.0 36.7 717.4 37.3Q717.7 37.8 717.8 38.5L717.8 38.5L716.6 38.5Q716.4 38.0 716.2 37.7Q715.9 37.3 715.6 37.1Q715.3 36.8 714.9 36.7Q714.4 36.5 713.9 36.5L713.9 36.5Q713.1 36.5 712.4 37.0Q711.7 37.4 711.3 38.2Q710.9 39.1 710.9 40.3L710.9 40.3Q710.9 41.5 711.4 42.3Q711.8 43.1 712.4 43.6Q713.1 44.0 714.0 44.0L714.0 44.0Q714.8 44.0 715.4 43.7Q716.0 43.3 716.4 42.7L716.4 42.7Q716.7 42.1 716.7 41.3L716.7 41.3L714.3 41.3L714.3 40.2L717.9 40.2L717.9 41.3Q717.9 42.5 717.4 43.3Q716.9 44.2 716.0 44.7Q715.1 45.1 714.0 45.1ZM720.8 45L719.7 45L719.7 37.9L720.8 37.9L720.8 45ZM720.3 36.7L720.3 36.7Q720.0 36.7 719.7 36.5Q719.5 36.3 719.5 36.0L719.5 36.0Q719.5 35.7 719.7 35.4Q720.0 35.2 720.3 35.2L720.3 35.2Q720.6 35.2 720.8 35.4Q721.1 35.7 721.1 36.0L721.1 36.0Q721.1 36.3 720.8 36.5Q720.6 36.7 720.3 36.7ZM724.2 37.9L725.6 37.9L725.6 38.9L724.2 38.9L724.2 43.2Q724.2 43.6 724.4 43.9Q724.6 44.1 725.0 44.1L725.0 44.1Q725.1 44.1 725.3 44.0Q725.5 44.0 725.6 44.0L725.6 44.0L725.8 45.0Q725.7 45.0 725.4 45.1Q725.2 45.1 725.0 45.1L725.0 45.1Q724.1 45.1 723.6 44.6Q723.0 44.1 723.0 43.2L723.0 43.2L723.0 38.9L722.0 38.9L722.0 37.9L723.0 37.9L723.0 36.2L724.2 36.2L724.2 37.9ZM728.4 45L727.2 45L727.2 35.5L728.4 35.5L728.4 39.6L733.4 39.6L733.4 35.5L734.6 35.5L734.6 45L733.4 45L733.4 40.7L728.4 40.7L728.4 45ZM739.2 45.1L739.2 45.1Q738.5 45.1 737.9 44.8Q737.4 44.5 737.1 43.9Q736.8 43.3 736.8 42.4L736.8 42.4L736.8 37.9L737.9 37.9L737.9 42.3Q737.9 43.1 738.3 43.6Q738.8 44.1 739.5 44.1L739.5 44.1Q740.0 44.1 740.4 43.8Q740.8 43.6 741.1 43.2Q741.3 42.8 741.3 42.2L741.3 42.2L741.3 37.9L742.4 37.9L742.4 45L741.3 45L741.3 43.7Q741.0 44.4 740.6 44.7L740.6 44.7Q740.0 45.1 739.2 45.1ZM747.7 45.2L747.7 45.2Q747.1 45.2 746.7 44.9Q746.2 44.7 746.0 44.4Q745.8 44.1 745.7 43.9L745.7 43.9L745.6 43.9L745.6 45L744.5 45L744.5 35.5L745.6 35.5L745.6 39.0L745.7 39.0Q745.8 38.8 746.0 38.6Q746.2 38.3 746.6 38.0Q747.0 37.8 747.7 37.8L747.7 37.8Q748.6 37.8 749.3 38.3Q750.0 38.7 750.4 39.5Q750.7 40.3 750.7 41.5L750.7 41.5Q750.7 42.6 750.4 43.4Q750.0 44.3 749.3 44.7Q748.6 45.2 747.7 45.2ZM747.6 44.1L747.6 44.1Q748.2 44.1 748.7 43.8Q749.1 43.4 749.4 42.8Q749.6 42.2 749.6 41.5L749.6 41.5Q749.6 40.7 749.4 40.1Q749.1 39.5 748.7 39.2Q748.2 38.8 747.6 38.8L747.6 38.8Q746.9 38.8 746.5 39.2Q746.0 39.5 745.8 40.1Q745.6 40.7 745.6 41.5L745.6 41.5Q745.6 42.2 745.8 42.8Q746.0 43.5 746.5 43.8Q746.9 44.1 747.6 44.1Z "/></g></svg>